<svg xmlns="http://www.w3.org/2000/svg" width="1614" height="1699" fill="none" viewBox="0 0 1614 1699"><path fill="#076FE2" stroke="#000" stroke-miterlimit="10" stroke-width="6" d="M499.641 848.48L531.261 818.66C447.861 741.62 367.461 657.44 343.341 600.08C315.261 533.3 325.641 456.44 342.861 396.5C321.081 421.7 305.001 450.2 294.501 480.26C285.801 573.08 308.721 632 346.821 682.1C386.601 734.24 448.521 798.26 499.641 848.48Z"/><path fill="#000" stroke="#000" stroke-miterlimit="10" stroke-width="6" d="M346.82 681.98C308.72 631.88 280.58 580.76 294.5 480.14C263.84 568.34 282.08 670.22 350.6 742.82L472.94 872.54C473.24 872.84 473.72 872.84 474.02 872.6L499.58 848.48C448.52 798.26 386.6 734.24 346.82 681.98Z"/><path fill="#FED933" stroke="#000" stroke-miterlimit="10" stroke-width="6" d="M849.321 517.52L726.981 387.8C628.941 283.88 465.201 279.14 361.281 377.18C354.741 383.36 348.622 389.78 342.862 396.44C325.642 456.38 315.261 533.3 343.341 600.02C367.521 657.38 447.861 741.56 531.261 818.6L849.261 518.6C849.621 518.3 849.621 517.82 849.321 517.52Z"/><path fill="#000" stroke="#000" stroke-miterlimit="10" stroke-width="6" d="M828.201 487.521L659.361 632.48C608.361 737.9 532.041 895.94 530.541 900.56C529.161 904.7 527.601 916.04 532.521 921.26C539.781 918.68 546.621 914.66 552.561 909.08L844.341 633.8C844.341 633.8 860.241 618.02 868.341 594.8C874.881 576.02 883.821 541.82 883.821 541.82L828.201 487.521Z"/><path fill="#000" stroke="#000" stroke-miterlimit="10" stroke-width="6" d="M493.941 883.16C462.621 858.8 469.101 829.04 471.141 822.14L463.041 846.92L457.041 865.16C456.321 879.98 461.421 895.1 472.401 906.8C488.301 923.6 512.001 928.58 532.521 921.32C527.601 916.1 529.221 904.76 530.541 900.62C530.661 900.2 531.381 898.64 532.581 896.06C532.761 895.7 533.001 895.22 533.181 894.8C522.261 896.42 508.641 894.56 493.941 883.16Z"/><path fill="#076FE2" stroke="#000" stroke-miterlimit="10" stroke-width="6" d="M483.859 783.26L471.138 822.08C469.098 829.04 462.619 858.8 493.939 883.1C508.699 894.56 522.318 896.42 533.178 894.74C547.038 864.92 613.459 727.459 659.419 632.479L483.859 783.26Z"/><path fill="#FED933" stroke="#000" stroke-miterlimit="10" stroke-width="6" d="M868.702 565.76L576.922 841.04C554.182 862.52 518.302 861.5 496.822 838.7C475.342 815.96 476.362 780.08 499.162 758.6L790.942 483.32C813.682 461.84 849.562 462.86 871.042 485.66C892.522 508.46 891.502 544.28 868.702 565.76Z"/><path fill="#CCC" stroke="#000" stroke-miterlimit="10" stroke-width="6" d="M724.4 895.279C708.74 878.779 665.3 831.559 638 801.739L616.16 822.379L713.54 925.579C731.84 944.959 762.38 945.859 781.76 927.559C786.26 923.299 789.74 918.319 792.26 913.039C770.96 924.139 742.22 913.999 724.4 895.279Z"/><path fill="#000" stroke="#000" stroke-miterlimit="10" stroke-width="6" d="M783.682 859.4L686.302 756.2L638.002 801.8C665.362 831.62 708.742 878.84 724.402 895.34C742.162 914.06 770.902 924.2 792.202 913.16C800.422 895.64 797.722 874.28 783.682 859.4Z"/><path fill="#CCC" stroke="#000" stroke-miterlimit="10" stroke-width="6" d="M280.4 318.02C264.74 301.52 54.2 80.4196 26.84 50.5996L5 71.2396L269.48 348.32C287.78 367.7 318.32 368.6 337.7 350.3C342.2 346.04 345.68 341.06 348.2 335.78C326.96 346.88 298.22 336.74 280.4 318.02Z"/><path fill="#000" stroke="#000" stroke-miterlimit="10" stroke-width="6" d="M339.678 282.14L75.1984 5L26.8984 50.6C54.2584 80.42 264.798 301.52 280.458 318.02C298.218 336.74 326.958 346.88 348.258 335.84C356.418 318.38 353.718 296.96 339.678 282.14Z"/><path fill="#000" stroke="#000" stroke-miterlimit="10" stroke-width="6" d="M904.338 743.42L806.958 640.22L759.918 684.56C786.978 714.08 833.058 764.24 849.318 781.28C865.278 798.02 889.998 807.92 910.278 801.86C921.438 783.74 919.638 759.68 904.338 743.42Z"/><path fill="#CCC" stroke="#000" stroke-miterlimit="10" stroke-width="6" d="M849.32 781.34C833.06 764.24 786.98 714.08 759.92 684.62L736.76 706.46L834.14 809.66C852.44 829.04 882.98 829.94 902.36 811.64C905.48 808.7 908.12 805.4 910.28 801.86C889.94 807.98 865.22 798.08 849.32 781.34Z"/><path fill="#076FE2" stroke="#000" stroke-miterlimit="10" stroke-width="6" d="M233.121 375.98L304.161 451.22C315.081 436.04 326.301 421.94 337.881 408.86L262.521 331.28C251.361 344.96 241.521 359.84 233.121 375.98Z"/><path fill="#FED933" stroke="#000" stroke-miterlimit="10" stroke-width="6" d="M432.681 329.96L361.641 254.72C321.681 273.98 288.441 299.36 262.461 331.28L337.821 408.86C367.161 375.68 398.721 349.22 432.681 329.96Z"/><path fill="#076FE2" stroke="#000" stroke-miterlimit="10" stroke-width="6" d="M792.621 1155.2L824.301 1125.38C896.301 1213.16 975.621 1298.36 1031.48 1325.84C1096.46 1357.82 1173.86 1351.94 1234.7 1338.26C1208.24 1358.54 1178.9 1372.94 1148.24 1381.58C1055.06 1384.82 997.581 1358.48 949.821 1317.5C900.021 1274.72 839.721 1209.14 792.621 1155.2Z"/><path fill="#000" stroke="#000" stroke-miterlimit="10" stroke-width="6" d="M949.821 1317.5C997.581 1358.48 1046.96 1389.56 1148.24 1381.58C1058.36 1407.02 957.801 1382.84 889.281 1310.18L767.001 1180.4C766.701 1180.1 766.701 1179.62 767.061 1179.32L792.681 1155.2C839.721 1209.14 900.021 1274.72 949.821 1317.5Z"/><path fill="#FED933" stroke="#000" stroke-miterlimit="10" stroke-width="6" d="M1143.5 825.499L1265.78 955.279C1363.76 1059.26 1358.9 1222.94 1254.98 1320.98C1248.44 1327.16 1241.66 1332.92 1234.7 1338.26C1173.86 1351.94 1096.46 1357.82 1031.48 1325.84C975.619 1298.36 896.299 1213.16 824.299 1125.38L1142.42 825.499C1142.72 825.199 1143.2 825.199 1143.5 825.499Z"/><path fill="#CCC" stroke="#000" stroke-miterlimit="10" stroke-width="6" d="M1309.28 1405.16C1324.82 1421.78 1533.2 1644.92 1561.34 1673.96L1539.44 1694.6L1278.32 1414.28C1260.02 1394.9 1260.92 1364.36 1280.36 1346.06C1284.86 1341.8 1290.02 1338.62 1295.48 1336.46C1283.24 1356.98 1291.64 1386.26 1309.28 1405.16Z"/><path fill="#000" stroke="#000" stroke-miterlimit="10" stroke-width="6" d="M1348.58 1348.04L1609.7 1628.36L1561.34 1673.9C1533.2 1644.86 1324.76 1421.72 1309.28 1405.1C1291.64 1386.26 1283.24 1356.98 1295.48 1336.4C1313.36 1329.26 1334.6 1333.22 1348.58 1348.04Z"/><path fill="#076FE2" stroke="#000" stroke-miterlimit="10" stroke-width="6" d="M1248.68 1448.96L1177.7 1373.66C1193.48 1363.7 1208.24 1353.26 1221.98 1342.46L1295 1422.26C1280.72 1432.58 1265.3 1441.52 1248.68 1448.96Z"/><path fill="#FED933" stroke="#000" stroke-miterlimit="10" stroke-width="6" d="M1306.28 1252.46L1377.26 1327.76C1355.66 1366.52 1328.42 1398.2 1295 1422.26L1221.98 1342.46C1256.78 1315.16 1285.04 1285.22 1306.28 1252.46Z"/><path fill="#000" stroke="#000" stroke-miterlimit="10" stroke-width="6" d="M820.341 1185.14C820.341 1185.14 760.101 1202.78 741.441 1131.2C739.221 1140.44 737.481 1148.96 736.761 1155.14C734.061 1178.12 745.701 1238.12 809.661 1225.58L822.141 1186.52L820.341 1185.14Z"/><path fill="#076FE2" stroke="#000" stroke-miterlimit="10" stroke-width="6" d="M820.341 1185.14L822.081 1186.52L836.781 1140.5L756.561 1076C756.561 1076 747.381 1106.12 741.441 1131.26C760.161 1202.78 820.341 1185.14 820.341 1185.14Z"/><path fill="#FED933" stroke="#000" stroke-miterlimit="10" stroke-width="6" d="M1064.6 773.359L772.698 1048.46C749.898 1069.94 748.878 1105.82 770.298 1128.56C791.778 1151.36 827.658 1152.38 850.398 1130.96L1142.3 855.859C1165.1 834.379 1166.12 798.499 1144.7 775.759C1123.22 752.959 1087.34 751.879 1064.6 773.359Z"/><path fill="#000" stroke="#000" stroke-miterlimit="10" stroke-width="6" d="M1399.16 324.62L1101.08 585.14C1092.38 592.76 1079.18 591.86 1071.56 583.16C1063.94 574.46 1064.84 561.26 1073.54 553.64L1371.62 293.12C1380.32 285.5 1393.52 286.4 1401.14 295.1C1408.76 303.74 1407.86 317 1399.16 324.62Z"/><path fill="#000" stroke="#000" stroke-miterlimit="10" stroke-width="6" d="M1433.9 576.38L1169.36 661.1C1158.38 664.64 1146.56 658.58 1143.02 647.54C1139.48 636.56 1145.54 624.74 1156.58 621.2L1421.12 536.48C1432.1 532.94 1443.92 539 1447.46 550.04C1451 561.08 1444.94 572.84 1433.9 576.38Z"/><path fill="#000" stroke="#000" stroke-miterlimit="10" stroke-width="6" d="M1028.3 525.8L1146.62 274.52C1151.54 264.08 1147.04 251.6 1136.6 246.68C1126.16 241.76 1113.68 246.26 1108.76 256.7L990.441 507.98C985.521 518.42 990.021 530.9 1000.46 535.82C1010.9 540.74 1023.38 536.24 1028.3 525.8Z"/><path fill="#000" stroke="#000" stroke-miterlimit="10" stroke-width="6" d="M231.261 1350.08L529.341 1089.56C538.041 1081.94 551.241 1082.84 558.861 1091.54C566.481 1100.24 565.581 1113.44 556.881 1121.06L258.801 1381.58C250.101 1389.2 236.901 1388.3 229.281 1379.6C221.661 1370.9 222.561 1357.7 231.261 1350.08Z"/><path fill="#000" stroke="#000" stroke-miterlimit="10" stroke-width="6" d="M196.519 1098.32L461.059 1013.6C472.039 1010.06 483.859 1016.12 487.399 1027.16C490.939 1038.14 484.879 1049.96 473.839 1053.5L209.299 1138.22C198.319 1141.76 186.499 1135.7 182.959 1124.66C179.479 1113.62 185.539 1101.86 196.519 1098.32Z"/><path fill="#000" stroke="#000" stroke-miterlimit="10" stroke-width="6" d="M602.121 1148.9L483.801 1400.18C478.881 1410.62 483.381 1423.1 493.821 1428.02C504.261 1432.94 516.741 1428.44 521.661 1418L639.981 1166.72C644.901 1156.28 640.401 1143.8 629.961 1138.88C619.521 1133.96 607.041 1138.4 602.121 1148.9Z"/><path fill="#EF4631" stroke="#000" stroke-miterlimit="10" stroke-width="6" d="M1352.66 1094.96C1450.58 1094.96 1529.96 1015.58 1529.96 917.66C1529.96 819.74 1450.58 740.36 1352.66 740.36C1254.74 740.36 1175.36 819.74 1175.36 917.66C1175.36 1015.58 1254.74 1094.96 1352.66 1094.96Z"/><path fill="#fff" stroke="#fff" stroke-miterlimit="10" stroke-width="6" d="M1433.54 866.54L1298.78 1003.34C1292.12 1010.12 1281.2 1010.18 1274.42 1003.52L1271.9 1001.06C1265.12 994.4 1265.06 983.48 1271.72 976.7L1406.48 839.9C1413.14 833.12 1424.06 833.06 1430.84 839.72L1433.36 842.18C1440.14 848.84 1440.26 859.76 1433.54 866.54Z"/><path fill="#fff" stroke="#fff" stroke-miterlimit="10" stroke-width="6" d="M1407.74 1002.56L1270.94 867.799C1264.16 861.139 1264.1 850.219 1270.76 843.439L1273.22 840.919C1279.88 834.139 1290.8 834.079 1297.58 840.739L1434.38 975.499C1441.16 982.159 1441.22 993.08 1434.56 999.86L1432.1 1002.38C1425.44 1009.16 1414.52 1009.22 1407.74 1002.56Z"/><path stroke="#000" stroke-linecap="round" stroke-linejoin="round" stroke-miterlimit="10" stroke-width="6" d="M499.641 648.02L683.961 480.2"/><path stroke="#000" stroke-linecap="round" stroke-linejoin="round" stroke-miterlimit="10" stroke-width="6" d="M457.16 602.96L641.42 435.14"/><path stroke="#000" stroke-linecap="round" stroke-linejoin="round" stroke-miterlimit="10" stroke-width="6" d="M411.982 562.64L596.242 394.82"/><path stroke="#000" stroke-linecap="round" stroke-linejoin="round" stroke-miterlimit="10" stroke-width="6" d="M1045.16 1213.82L1229.42 1046"/><path stroke="#000" stroke-linecap="round" stroke-linejoin="round" stroke-miterlimit="10" stroke-width="6" d="M1002.68 1168.82L1186.94 1001"/><path stroke="#000" stroke-linecap="round" stroke-linejoin="round" stroke-miterlimit="10" stroke-width="6" d="M957.5 1128.5L1141.76 960.68"/></svg>