            <svg xmlns="http://www.w3.org/2000/svg" xmlns:xlink="http://www.w3.org/1999/xlink" xml:space="preserve" id="Layer_1" x="0" y="0" enable-background="new 0 0 850 850" version="1.1" viewBox="0 0 850 850">
  <g>
    <g>
      <defs>
        <circle id="SVGID_227_" cx="424.2" cy="504" r="133.9" transform="rotate(-45.001 424.225 504.057)"/>
      </defs>
      <clipPath id="SVGID_2_">
        <use xlink:href="#SVGID_227_" overflow="visible"/>
      </clipPath>
      <g clip-path="url(#SVGID_2_)">
        <g>
          <g>
            <circle cx="424.2" cy="504" r="133.9" fill="#5c6f77" transform="rotate(-45.001 424.225 504.057)"/>
          </g>
        </g>
      </g>
      <g clip-path="url(#SVGID_2_)">
        <g>
          <g>
            <path fill="#415560" d="M287.3,490.6c0,17,8.6,16.9,17.1,21.5c8.6,4.7,11.9,2.8,10.1,14c-1.8,11.2,8.3,6.1,3.4,14.3
						c-4.9,8.2-5.8,15.2-0.9,18.5c4.9,3.3,9.8-5.5,14.4,0c4.6,5.5,10.7,19.7,13.8,32.6c3.1,12.9,10.9,14.1,16,24.8
						c5.1,10.7,18.4,21.5,21.5,10.2c3.1-11.3,1.1-9.7-3.6-21.7c-4.7-12.1,0-10.1,6.9-19.2c7-9.1,0.5-12.1,8.5-17.4
						c8-5.3,4.1-12.8,9.3-21.3c5.1-8.5,7.3-23.8-3.5-26c-10.8-2.2-9.1,8.1-27.4-5.5c-18.2-13.5-15.1-20.8-25.2-20.2
						c-10.1,0.7-6.1-0.8-7.1-10.2c-0.9-9.3-7.2-10.2,1.6-14.3c8.8-4.1,13.1-0.3,25-6.3c11.9-6,15.1-4.6,18.7-19.3
						c3.6-14.7,2.4-20.1,17.8-23.1c15.4-3,34.7-10.3,32.9-5.1c-1.8,5.3-9.4,8-7.6,14.2c1.8,6.2,6.5,5.4,3.3,14
						c-3.3,8.6-11.9,11.7-5.7,21.5c6.2,9.8-0.1,8.9-5.3,18.5c-5.1,9.6-3.4,19.5,1.9,25.7c5.3,6.2,7.5,10.7,9.1,15.5
						c1.6,4.9,9,6.7,15.1,3.3c6.1-3.4,14.7-1.9,15.6,2.9c0.9,4.7,3.7,9.5,0,18c-3.7,8.5,5.1,10.4,4.5,22.4
						c-0.6,12,10.2,14.5,14.4,2.8c4.3-11.7,16.2-2.3,22.3-10.6c6.1-8.3,8.3-11.8,12.9-21.9c4.6-10.1,8.9-15.1,12.9-12.8
						s8,5.8,9.8-5.8c1.8-11.6-3.4-11.6,4.9-16.7c8.3-5,17.8-12,17.8-12L543.2,433c0,0,2.9-34.8-45.7-50.6s-23.5-22-79.7-21.1
						c-56.2,0.9-77.1,2.8-102.6,47.7C289.8,453.9,287.3,490.6,287.3,490.6z"/>
          </g>
        </g>
      </g>
      <g clip-path="url(#SVGID_2_)">
        <g>
          <g>
            <path fill="#dfdfdf" d="M324.9,509.6c1.4,4.2,8.9,3,10.5,7.1c1.4,3.4-2.8,6.6-3,10.2c-0.1,1.7,0.6,3.3,1.4,4.7
						c2.5,4.8,5.8,9.3,9.7,13c1.7,1.6,3.5,3.1,4.8,5c2.6,3.7,3.2,8.4,4,12.9c3.1,17.5-3.2,16.5,8.1,30.2c2,2.4,10,8.7,9.2,5.6
						c-1.4-5.7-4.6-6.9,2.5-14.8c3.9-4.4,2.8-8.9,8.5-9.9c3.3-0.6,4.2-4.8,4.6-8.1c0.4-3.3,2-7.5,5.3-7.3c2.4,0.2,4-2.5,4.2-4.8
						c0.2-2.4-0.4-4.8,0.2-7.1c1.3-5.1,8.3-9,6.4-13.9c-0.5-1.4-1.7-2.4-3-3.3c-5.8-3.8-13.7-4.1-19.7-0.8
						c-1.7-5.9-6.5-10.8-12.4-12.7c-2.2-0.7-4.7-1-6.4-2.6c-2.6-2.3-3.7-7.2-7.2-7c-2.9,0.2-5.6,4.3-7.9,2.6
						c-2.2-1.6-5.2-1.3-7.8-0.8c-2.6,0.5-5.5,1.2-7.9,0.1c-2.5-1.1-1.8-3.8-1.9-6.5c-0.1-2.1-4.4,0.6-6-0.7
						c-2.1-1.7,0.6-5.3,0.3-7.9c-1.5-1.6-3.3,1.7-5.3,2.7c-1.8,0.9-4-0.6-5.1-2.4c-2.7-4.5-0.6-11.1,4.2-13.3
						c4.8-2.2,11.1,0.6,12.7,5.6c1.8,1.3,3.6-1.8,3.2-4c-0.4-2.2-1.2-4.9,0.6-6.2c5-3.3,9.1-8.1,11.7-13.6c1-2.1,3.3-4.6,4.9-3
						c1.6,1.6,4.1-0.5,5.4-2.3c1.3-1.8,4.4-3.4,5.4-1.4c0.9,2,4.2,0.6,4.6-1.5c0.4-2.1-0.9-4.1-1.8-6.1c-0.9-2-1.1-4.7,0.7-5.9
						c0.3-1.6,2.9-1.6,4-0.4c1.1,1.2,1.4,3,2.2,4.5c0.8,1.5,2.7,2.7,4.1,1.8c2.1-9.9,1.3-20.4-2.2-30c-0.6-1.8-3.4-0.3-4,1.5
						c-0.6,1.8-1.9,5.9-3,4.3c-1.3-2,0.5-4.9-1.4-6.4c-1.9-1.5-4.8-1.4-6.6,0.2c-1,0.8-8.3,9.9-8.9,11c-4.3,8.1,0.5,13-3.4,13.1
						c-2.9,0.1-1.7-2.5-2.4-5.4c-0.7-2.9-2.8-5.6-5.7-6c-2.8-0.4-2-5,0.2-6.7c2.2-1.8,5.5-3.1,5.7-6c0.2-1.8,2.5-2.4,4.3-2
						c1.7,0.5,3.3,1.6,5.1,1.6c1.8,0,3.6-2.2,2.4-3.5c-1.5-1.6-0.3-4.3,1.3-5.8c1.6-1.5,3.8-2.6,4.7-4.6c0.9-1.9,0.3-4.2,0.6-6.3
						c0.3-2.1,2.2-4.4,4.2-3.5c1,0.5,1.6,1.6,1.8,2.8c0.9,5.2-2.7,10-6,14c3.9,1.9,7.7,3.8,11.6,5.7c0.6,0.3,1.2,0.6,1.8,0.6
						c2.1,0,2.9-2.8,2.5-4.9c-0.3-2.1-1.1-4.4,0.2-6.1c1-1.4,2.9-1.7,4-2.9c2.2-2.5,0.1-6.3-2.2-8.7c-2.2-2.4-4.8-5.7-3.3-8.6
						c1.8-3.3-2.4-7.3-6.2-6.8c-3.7,0.5-6.6,3.4-9.2,6.2c-2.6,2.8-5.6,5.7-9.3,5.8c-1.9,0.1-2.6,2.6-2.2,4.5c0.4,1.9,1.4,3.7,1,5.6
						c-0.6,2.5-3.5,3.7-6,3.8c-2.6,0.1-5.2-0.5-7.6,0c-5.8,1.4-8.1,8.1-10.2,13.6c-3,7.8-7.6,15.1-13.4,21.2
						c-4.5,4.7-9.7,8.8-13.2,14.3c-4.1,6.4-5.4,14.4-5.3,21.9c0.1,6.6,2.6,9.3,5,15c3.9,9.3,3.5,8.1,13.6,9
						C317.3,499.6,323,503.5,324.9,509.6z"/>
          </g>
        </g>
      </g>
      <g clip-path="url(#SVGID_2_)">
        <g>
          <g>
            <path fill="#dfdfdf" d="M384.3,376.9c-0.2,0.1-0.4,0.3-0.6,0.5c-0.5,1,1.3,1.5,2.4,1.3c1.5-0.3,3-0.4,4.4,0.2
						c1.3,0.6,2.4,2.2,1.9,3.6c-0.2,0.6-0.6,1.1-0.8,1.7c-0.6,1.9,1.6,3.7,1.2,5.6c-0.3,1.2-1.5,2-2.3,2.9c-0.9,0.9-1.4,2.6-0.3,3.3
						c1.4,0.9,4.2-0.8,4.6,0.8c0.2,1.1-1.3,1.6-2.5,1.8c-3.6,0.7-6,4.3-6.6,7.9c-0.6,3.6,0.3,7.2,1.2,10.8c0.4,1.5,0.9,3.2,2.2,4
						c1.4,0.8,3.6-0.3,3.1-1.8c3,0.6,5.3-2.6,6.6-5.4c1.3-2.8,3.2-6.1,6.3-6.1c0.7,0,1.4,0.2,2.1,0.1c1.8-0.4,2.4-2.7,3.7-4.1
						c2.1-2.2,5.8-1.4,8.7-2.5c2.9-1.1,4.7-4.5,4-7.5c-0.3-1.2-0.9-2.4-0.8-3.7c0.2-2.7,3.4-4.4,3.6-7.1c0.1-1.2-0.4-2.3-0.2-3.5
						c0.3-2.2,2.8-3.3,4.3-5.1c1.2-1.4,1.7-3.4,2.9-4.9c1.8-2.5,5.2-4.1,5.6-7.2c0.4-3.6-3.8-6-7.4-5.9c-3.6,0.1-7,1.6-10.6,1.5
						c-3.4-0.2-6.5-1.9-9.9-2c-6.5-0.4-12.1,4.8-18.5,5.3c-1,0.1-2.1,0-3,0.4c-4.6,1.7-6.9,10.8-1.1,12.4
						C387.1,375.2,385.6,376,384.3,376.9z"/>
          </g>
        </g>
      </g>
      <g clip-path="url(#SVGID_2_)">
        <g>
          <g>
            <path fill="#dfdfdf" d="M443.7,440.5c-0.2,1.2-0.2,2.7,0.9,3c0.6,0.2,1.3-0.2,1.7-0.7c0.4-0.5,0.7-1.1,1.1-1.6
						c0.9-1.1,2.4-1.5,3.5-2.3c1.1-0.8,1.9-2.6,0.9-3.6c-0.8-0.7-2-0.5-2.8-1.1c-1.3-1-0.5-11.5-5.5-6.8c-1.9,1.8-0.2,1.9,0.6,3.8
						C445.2,434,444.2,437.7,443.7,440.5z"/>
          </g>
        </g>
      </g>
      <g clip-path="url(#SVGID_2_)">
        <g>
          <g>
            <path fill="#dfdfdf" d="M424.8,408.3c-1.3-0.1-2.5-0.5-3.8-0.3c-1.3,0.2-2.5,1.4-2.1,2.6c0.4,1.1,1.9,1.4,2.2,2.6
						c0.1,0.4,0,0.8,0.2,1.2c0.4,0.8,1.6,0.6,2.5,0.3c1.9-0.7,3.8-1.5,5.7-2.2c1.7-0.7,3.6-1.7,3.7-3.5
						C433.5,404,426.6,408.4,424.8,408.3z"/>
          </g>
        </g>
      </g>
      <g clip-path="url(#SVGID_2_)">
        <g>
          <g>
            <path fill="#dfdfdf" d="M552.9,465.2c-1.1-8.2,1.8-16.6,0.9-24.8c-1.2-11.5-9.4-21-17.3-29.5c-1.7-1.9-3.5-3.8-5.8-4.8
						c-2.3-1.1-5.3-1.1-7.1,0.6c-1,0.9-1.9,2.4-3.2,2c-0.5-0.1-1-0.6-1.3-1c-1.8-2.1-3.6-4.1-5.4-6.2c-0.4-0.5-0.9-1-1.5-1.2
						c-1.6-0.4-2.8,1.6-2.9,3.2c-0.1,1.6,0,3.6-1.2,4.6c-0.8,0.7-1.9,0.8-2.9,1c-2.3,0.5-4.5,1.6-6.6,2.8c-1.9,1-3.9,2.2-4.6,4.2
						c-1.4,0.8-2.9-0.6-3.9-1.8c-1.3-1.6-2.5-3.2-3.8-4.8c1.8-1.5,4.6,2.2,6.6,0.9c0.9-0.6,0.9-2,0.3-2.9c-0.6-0.9-1.7-1.4-2.7-1.9
						c-1.5-0.7-3-1.4-4.5-2.1c-1.5-0.7-3-1.4-3.9-2.7c-0.8-1.1-1.2-2.4-2-3.4c-1.9-2.3-5.6-2.2-8.1-0.6c-2.5,1.6-4.1,4.3-5.5,6.9
						c-1.8,3.1-3.2,6.9-5.1,9.8c-1,1.6-5.5,3.1-4.9,5.3c0.2,0.7,0.8,1.1,1.1,1.7c0.5,0.9,0.6,2,0.1,2.9c1.8,1.3,4.5,1.4,6.4,0.1
						c0.3,0.1,0.7,0.1,1,0.2c0.8-0.4,1.3-0.2,1.7,0.6c1.1,0.7,1.3,1.7,1.2,2.7c0.6,0.8,1.6,1.5,2.6,1.6c1.5,0.2,3.1-0.4,3.9-1.6
						c0.6-0.8,0.8-2.1,0.1-2.8c-0.5-0.5-1.3-0.6-1.8-1.1c-1.2-1.3,0.6-3.5,0.1-5.2c-0.2-0.6-0.7-1.2-0.7-1.8c-0.1-0.7,0.4-1.4,0.8-2
						c0.6-0.8,1.2-1.6,2.1-2c0.9-0.4,2.1-0.1,2.5,0.7c0.5,1.2-0.8,2.4-1,3.7c-0.2,1.7,1.5,3,3.1,3.6s3.5,1,4.5,2.4
						c1.1,1.6,0.4,4.2-1.4,4.9c-1.1,0.4-2.3,0.3-3.4,0.8c-1.3,0.7-1.9,2.3-3,3.3c-2.1,1.9-5.4,1.2-7.9,0.1c-0.5-0.2-0.9-0.4-1.4-0.7
						c0,0.5,0,0.9,0.1,1.3c-1.5,0.2-3.2-0.3-4.3-1.4c0.7,1.3,0.2,3-0.8,4c-1,1.1-2.4,1.7-3.7,2.4c-4.4,2.7-8.1,7.5-13.3,7.2
						c-1.2,3.4,6.4,5.3,5,8.6c-0.8,1.9-3.6,1.4-5.6,0.7c-2-0.7-4.9-0.8-5.3,1.3c-0.2,1.1,0.7,2.2,0.7,3.4c-0.1,0.9-0.7,1.7-1,2.5
						c-0.9,2.4,1.2,5.3,3.8,5.8c2.6,0.5,5.2-0.9,7-2.8c1.8-1.9,3-4.3,4.2-6.6c0.4-0.8,0.9-1.6,1.6-2.1c2.3-1.8,6.3-0.3,8.4-2.4
						c0.3-0.3,0.6-0.7,1-0.9c0.9-0.4,2,0.4,2.4,1.4c0.4,0.9,0.4,2,1,2.9c1.3,2,4.8,2,5.6,4.3c0.5,1.5-0.1,3.9,1.4,4.1
						c0.6,0.1,1.1-0.3,1.5-0.8c1.1-1.6,0.2-3.9-1-5.4c-1.2-1.6-2.8-2.9-3.2-4.8c0.7-1.6,3.1-0.8,4.5,0.3c2.7,2.1,5.6,4.6,5.9,7.9
						c0.1,1.2-0.2,2.5,0,3.7c0.2,1.2,1.1,2.5,2.3,2.5c0.8-1.4,0.7-3.2,1.3-4.8c0.6-1.5,2.7-2.8,3.8-1.6c1,1,0.3,2.7,0.4,4.1
						c0.1,2.2,2.3,3.8,4.4,4.1c2.2,0.3,4.3-0.4,6.4-1.2c1,1.8,1.3,4,0.7,5.9c-0.2,0.8-0.6,1.7-0.3,2.5c0.3,0.8,1.2,1.3,1.8,1.9
						c3,2.6,2,7.7,4.2,11c1.8,2.9,5.7,4.2,6.9,7.3c0.3,0.8,0.4,1.7,1,2.3c0.8,0.9,2,1,3.2,0.9c5.8-0.1,11.5-1.7,16.5-4.6
						c1.2-0.7,2.3-1.4,3-2.6c0.7-1.1,0.8-2.7-0.1-3.7c-0.9-1-2.4-1.1-3.7-1.3c-6.5-0.9-12.3-5.4-15-11.4c-0.3-0.7-0.6-1.5-0.3-2.2
						c0.2-0.7,1.2-1.2,1.8-0.7c0.6,4.2,4.1,7.8,8.3,8.5c2.4,0.4,5.2-0.1,7.1,1.4c0.6,0.5,1,1.1,1.7,1.4c1.9,1.1,4.3-0.2,6.5,0
						c1.9,0.1,3.5,1.3,5.2,2.2c1.7,0.9,3.8,1.4,5.4,0.4c1.5-1,1.8-3,1.8-4.8C556.8,477.1,553.8,471.3,552.9,465.2z"/>
          </g>
        </g>
      </g>
      <g clip-path="url(#SVGID_2_)">
        <g>
          <g>
            <path fill="#dfdfdf" d="M503,498.4c2.1-0.5,4.1,1,5.3,2.8c1.2,1.8,1.9,3.9,3.2,5.5c1.3,1.7,3.6,2.9,5.6,2c0.8-0.4,1.4-1,2.1-1.5
						c2.3-1.5,5.4-0.9,8.1-0.2c0.3,1.8-1.3,3.5-2.9,4.3c-1.7,0.9-3.6,1.4-4.8,2.8c-1,1.1-1.5,2.6-2.3,3.8c-1.6,2.7-4.5,4.3-7,6.3
						c-4.3,3.4-7.7,8.8-6.9,14.2c0.2,1.4,0.7,2.8,0.5,4.1c-0.7,4.1-6.5,5-8.4,8.6c-1.6,3-0.3,7.7-3.3,9.3c-0.6,0.3-1.4,0.5-2,1
						c-1,0.9-0.8,2.4-1.1,3.7c-0.4,2.4-2.3,4.2-4,5.8c-4.4,4.1-9.5,13.7-14.5,10.4c-2.2-1.4-0.4-5.3-0.6-7.9
						c-0.5-5.1-1.3-10.1-3-14.9c-0.9-2.7-2.1-5.5-1.4-8.3c0.7-2.3,2.7-4.3,2.6-6.7c0-1.9-1.4-3.6-1.4-5.5c0-2.2,2-4.5,1-6.5
						c-0.8-1.5-2.9-1.9-3.7-3.5c-0.8-1.6,0.4-3.4,1.2-5c0.8-1.6,0.8-4.1-0.9-4.6c-1.3-0.3-2.6,0.8-3.9,0.6c-1.5-0.3-2.1-2.1-3.3-3
						c-1.5-1.1-3.7-0.6-5.4,0.4c-1.7,0.9-3.2,2.2-5.1,2.5c-3.3,0.4-7.2-2.4-9.7-0.1c-0.4,0.4-0.8,0.9-1.3,1.2
						c-1.2,0.5-2.4-0.6-3.2-1.7c-2-2.6-4.1-5.3-5.3-8.4c-1.3-3.1-1.8-6.6-0.6-9.7c0.8-2.2,2.4-4.4,1.7-6.6c-0.3-0.9-0.9-1.7-1.1-2.6
						c-0.4-1.6,0.8-3.3,2.2-4.3c1.4-1,3-1.7,4.2-2.9c3.4-3.4,2.9-10.2,7.4-11.8c2.4-0.8,5,0.4,7.5,0c2.1-0.3,3.9-1.7,5.7-2.7
						c2-1.1,4.2-1.9,6.5-2.3c2.4-0.4,5.2-0.2,6.8,1.7c1.6,1.8,0.7,5.5-1.7,5.6c0.9,1.4,2.6,2.3,4.3,2.2c0.8,0,1.5-0.3,2.2,0
						c0.9,0.3,1.4,1.2,2,1.9c1.3,1.3,3.3,1.8,5,1.2c1.7-0.6,3-2.3,3.2-4.1c2-1.1,4.2,1.2,6.5,1.6c1.3,0.2,2.7-0.2,4.1-0.3
						c3.1-0.2,6,1.2,8.9,2.1c3,0.8,6.5,0.9,8.7-1.6c-2.9,1.2-6.7,3.3-8.9,5.5C496.6,488,503.5,493,503,498.4z"/>
          </g>
        </g>
      </g>
      <g clip-path="url(#SVGID_2_)">
        <g>
          <g>
            <path fill="#dfdfdf" d="M511.6,542.5c-2.2,0.8-3.8,3-3.8,5.4c0,1.1,0.3,2.3-0.1,3.3c-0.3,0.6-0.8,1.1-1.2,1.6
						c-1.5,1.7-2.6,3.9-3,6.1c0,0.2-0.1,0.4,0,0.6c0.1,0.2,0.3,0.4,0.5,0.5c1.3,0.6,2.7-0.6,3.7-1.7c1-1.1,1.9-2.2,2.9-3.4
						c1.2-1.4,2.4-2.7,3.2-4.3c0.5-1.1,0.9-2.2,1.6-3.2c0.9-1.2,2.3-1.8,3.3-3c1.2-1.4,1.5-3.3,1.8-5.1c0.2-1.2,0.4-2.4,0.6-3.6
						c0.3-1.6,0.2-3.7-1.8-3.6C517.9,535.8,515.1,541.2,511.6,542.5z"/>
          </g>
        </g>
      </g>
      <g clip-path="url(#SVGID_2_)">
        <g>
          <g>
            <path fill="#dfdfdf" d="M440.1,433.3c-1.2,0.2-2.1,1.3-2.2,2.4c-0.6-0.5-1.5-0.2-1.9,0.4c-0.4,0.6-0.5,1.4-0.5,2.2
						c0,1,0.1,2.1,0.6,3c0.6,0.9,1.9,1.3,2.7,0.7c0.3-0.2,0.5-0.5,0.7-0.8c0.6-0.6,1.6-0.8,2.2-1.3c1.1-0.9,1.3-2.6,1.1-4
						c-0.1-1-0.4-2.2-1.3-2.7c-0.9-0.6-2.4,0-2.3,1.1"/>
          </g>
        </g>
      </g>
      <g clip-path="url(#SVGID_2_)">
        <g>
          <g>
            <path fill="#dfdfdf" d="M494.4,395.9c0.3,0.5,0.7,1,0.9,1.6c0.3,1.5-1.3,3.1-0.5,4.4c0.7,1.2,2.4,0.9,3.6,1.7
						c0.6,0.4,0.9,1,1.3,1.6c0.4,0.6,0.9,1.1,1.5,1.3c0.7,0.2,1.5-0.2,1.6-0.8c0.1-0.5-0.3-1-0.6-1.4c-1.4-2.1-1.1-4.9-0.9-7.5
						c0.2-2.6,0.2-5.5-1.6-7.3C494.9,384.8,491.8,391.9,494.4,395.9z"/>
          </g>
        </g>
      </g>
      <g clip-path="url(#SVGID_2_)">
        <g>
          <g>
            <path fill="#528eeb" d="M461.3,383.1c0.4,0.7,0.5,1.6,0.9,2.3c0.4,0.7,1.5,1.2,2,0.6c0.2-0.2,0.3-0.5,0.3-0.8
						c0.1-0.7,0.3-1.5,0-2.2c-0.4-0.9-1.6-1.5-1.7-2.5c0-0.9,1-1.5,1.6-2.2c5.6-5.3-5.1-13.6-10.3-9c-3.2,2.8-0.1,4.4,1.4,6.9
						c0.9,1.5,0.7,3.2,2,4.5C458.6,381.8,460.4,381.8,461.3,383.1z"/>
          </g>
        </g>
      </g>
      <g clip-path="url(#SVGID_2_)">
        <g>
          <g>
            <path fill="#415560" d="M361.7,390.2c3.4,41.1,8.8,74.9,7,83.9c-1.8,9-14,16.8-14,16.8s10.9,3.3,17.6,0c6.6-3.3,6.6-3.3,6.6-3.3
						s5.9-0.2,14.6-3.5c8.7-3.3,12.2-15.5,12.2-15.5s-2.1-14.9,0.9-22.1c3-7.2,4-48.8,4-48.8s41.6,0.6,55.1-8.2
						c13.6-8.7,2.6-25.2,2.6-25.2l-96.4,2L361.7,390.2z"/>
          </g>
        </g>
      </g>
      <g clip-path="url(#SVGID_2_)" opacity=".24">
        <g>
          <g>
            <path fill="#b5c6df" d="M447,569.2c-5.4-7.3-3.5-4.4-6.6-12c-3.1-7.6-1.7-12.8-4.5-9.2c-2.8,3.6-0.6,5.1-1.5,11.4
						c-1,6.4-0.6,4,2.2,10.2c2.8,6.2,5.9,5.3,5.5,12c-0.4,6.6,0.1,5.1-1,12.9c-1.1,7.8-1.4,8.4,0.3,11.6c1.7,3.2,1.4-2,3.9-5.6
						c2.5-3.6,5.6-1.2,5.5-7.4c-0.1-6.2-2-3.2-1.1-8.1c0.8-4.9,2.6-6.2,2.4-8.4C451.9,574.5,448.4,571,447,569.2z"/>
          </g>
        </g>
      </g>
      <g clip-path="url(#SVGID_2_)" opacity=".24">
        <g>
          <g>
            <path fill="#b5c6df" d="M505.4,571c-3.2-1.6-7.6-0.6-7,4.3c0.6,4.9,1.2,4.9,0,8c-1.2,3.1,4.5,3.5,6.4-1.6
						c1.9-5.2,0.4-1.4,4.3-6.4C513.1,570.3,507.9,572.2,505.4,571z"/>
          </g>
        </g>
      </g>
      <g clip-path="url(#SVGID_2_)" opacity=".24">
        <g>
          <g>
            <path fill="#b5c6df" d="M360.4,483.8c-4.9-0.8-1.9,2.3,0.8,6.7s0.5,6.6,4.5,6.2c4-0.4,1.9-3.3,2-7.9
						C367.8,484,365.2,484.5,360.4,483.8z"/>
          </g>
        </g>
      </g>
      <g clip-path="url(#SVGID_2_)" opacity=".24">
        <g>
          <g>
            <path fill="#b5c6df" d="M404.3,557.7c-2.8,2.7-0.2,1.9,2.3,4.8c2.5,2.9,5.9-0.9,4.6-4.8C409.8,553.9,406.9,555.2,404.3,557.7z"/>
          </g>
        </g>
      </g>
      <g clip-path="url(#SVGID_2_)" opacity=".24">
        <g>
          <g>
            <path fill="#b5c6df" d="M416.9,467.9c-5.3,0.2-2.1,4.7,0,7.8c2.1,3.1,2.5,1.9,2.9-1.6C420.2,470.6,421.5,467.8,416.9,467.9z"/>
          </g>
        </g>
      </g>
      <g clip-path="url(#SVGID_2_)" opacity=".24">
        <g>
          <g>
            <path fill="#b5c6df" d="M526.5,542.7c-4,0.2-5.8,1.9-5.2,5.6c0.6,3.7,1,7.6,4.1,5.2s1.6-3.7,4.1-6S530.2,542.5,526.5,542.7z"/>
          </g>
        </g>
      </g>
    </g>
    <g>
      <g>
        <g>
          <circle cx="433.3" cy="267.2" r="55.1" fill="#5c6f77"/>
        </g>
      </g>
    </g>
    <g>
      <g>
        <g>
          <path fill="#dfdfdf" d="M397.8,247.4V266c0,1.9-1.5,3.4-3.3,3.4h-29.1c-1.8,0-3.3-1.5-3.3-3.4v-18.6c0-1,0.4-1.8,1-2.4
					c0.6-0.6,1.4-0.9,2.3-0.9h29.1c0.9,0,1.7,0.3,2.3,0.9C397.4,245.5,397.8,246.4,397.8,247.4z"/>
        </g>
      </g>
    </g>
    <g>
      <g>
        <g>
          <path fill="#dfdfdf" d="M363.1,268.4l14.8-14.1c1.2-1.1,3-1.1,4.2,0l14.8,14.1c-0.6,0.6-1.4,0.9-2.3,0.9h-29.1
					C364.5,269.3,363.7,269,363.1,268.4z"/>
        </g>
      </g>
    </g>
    <g>
      <g>
        <g>
          <path fill="#5c6f77" d="M363.1,268.4c4.4-4.7,9.4-9.6,14-14.1c1-1.2,3-1.7,4.4-1c1,0.5,2.5,2.2,3.3,2.9c1.3,1.3,2.7,2.6,4,4
					c2.3,2.4,5.7,5.7,7.9,8.1c-4.9-4.2-10-8.9-14.7-13.3c-1.2-1.4-3.1-1.4-4.3,0c0,0-2.1,1.9-2.1,1.9
					C371.7,260.7,367.2,264.9,363.1,268.4L363.1,268.4z"/>
        </g>
      </g>
    </g>
    <g>
      <g>
        <g>
          <path fill="#dfdfdf" d="M396.8,244.9L382,259c-1.2,1.1-3,1.1-4.2,0l-14.8-14.1c0.6-0.6,1.4-0.9,2.3-0.9h29.1
					C395.4,244,396.2,244.3,396.8,244.9z"/>
        </g>
      </g>
    </g>
    <g>
      <g>
        <g>
          <path fill="#5c6f77" d="M396.8,244.9c-4.4,4.7-9.4,9.6-14,14.1c-1,1.2-3,1.7-4.4,1c-1-0.5-2.5-2.2-3.3-2.9c-1.3-1.3-2.7-2.6-4-4
					c-2.3-2.4-5.7-5.7-7.9-8.1c4.9,4.2,10,8.9,14.7,13.3c1.2,1.4,3.1,1.4,4.3,0c0,0,2.1-1.9,2.1-1.9
					C388.1,252.6,392.6,248.5,396.8,244.9L396.8,244.9z"/>
        </g>
      </g>
    </g>
    <g>
      <g>
        <g>
          <circle cx="364.1" cy="242.4" r="9.9" fill="#5c6f77"/>
        </g>
      </g>
    </g>
    <g>
      <g>
        <g>
          <path fill="#ffac8e" d="M364.2,437c0,0,2.2,9.8,3.5,17.9c0.6,3.7-0.8,7.5,0.7,8.9c1.9,1.9,8.5,0.7,10.2-1.4
					c1.5-2-0.1-7.7-0.4-10.2c-0.7-5.6-0.5-22.5-0.5-22.5L364.2,437z"/>
        </g>
      </g>
    </g>
    <g>
      <g>
        <g>
          <path fill="#2f3e46" d="M434.5,352.3c0,0-21.2,2.8-32.7,5.2c-13.7,2.9-25.3,5.2-31.9,9c-9.6,5.5-9,25.2-8.4,44.5
					c0.7,20.8,3.6,42.3,3.6,42.3s4,0,7.5-0.6c4.2-0.7,6.1-2.4,6.1-2.4s2-28,2.3-33.5c0.7-12.2,2.9-21.5,2.9-21.5s41.2-14,44.6-14.8
					C431.7,379.8,434.5,352.3,434.5,352.3z"/>
        </g>
      </g>
    </g>
    <g>
      <g>
        <g>
          <path fill="#2f3e46" d="M401.8,357.6c-13.7,2.9-25.3,5.2-31.9,9c-0.1,0.1-0.2,0.2-0.4,0.2c0.1,0.1,0.3,0.4,0.4,0.5
					c0.1,0.1,0.2,0.2,0.3,0.3c0.1,0,0.1,0.1,0.2,0.1c0.3,0.2,0.6,0.5,1,0.7c0.3,0.2,0.6,0.4,1,0.6c0,0,0.3,0.2,0.4,0.2
					c0.1,0,0.2,0.1,0.2,0.1c3.1,1.5,6.6,2.6,9,5.3c2.6,2.9,2.9,7.3,1.4,10.9c-1.1,2.5-3,4.6-3.8,7.3c-0.9,3-1,6.3-1,9.4
					c-0.1,6.8,0,13.6-0.1,20.5c-0.1,3.7-0.2,7.4-0.4,11c-0.2,2.8-0.4,5.7-1,8.4c-1.1,4.4-3.4,8.1-6.5,10.8c0.7-0.1,1.5-0.2,2.2-0.3
					c4.2-0.7,6.1-2.4,6.1-2.4s2-28,2.3-33.5c0.7-12.2,2.9-21.5,2.9-21.5s41.2-14,44.6-14.8c3.3-0.9,6.1-28.3,6.1-28.3
					S413.3,355.1,401.8,357.6z"/>
        </g>
      </g>
    </g>
    <g>
      <g>
        <g>
          <path fill="#0d0d0e" d="M378.5,454.4c0,0,0.9-0.7,2.6,2.5c1.7,3.2,3.8,7.4,3.5,9.2c-0.3,1.8-11.6,13.8-15.9,17.3
					c-4.3,3.5-10.4,3.5-10.6,3.4c-2.8-0.7-3.7-2.6-3.4-4.9c0.2-2.3,3.6-6.5,5.2-9.8c1.6-3.3,4.6-10.7,5-12.9c0.4-2.2,1.5-2.6,3-2.5
					c2.5,0.2,3.5,2,5,2.3c1.7,0.4,3.6-0.7,4.1-1C378.6,457,378.5,454.4,378.5,454.4z"/>
        </g>
      </g>
    </g>
    <g>
      <g>
        <g>
          <path fill="#0d0d0e" d="M376.5,467c-1.5,1.5-2.9,3-4.2,4.7c-1.2,1.7-2.2,3.5-3.1,5.4c-1,1.8-2,3.6-3.4,5.1
					c-1.6,1.7-3.7,2.8-5.8,3.8c-0.6,0.3-1.3,0.6-1.9,0.9c0,0,0,0,0,0c0.2,0.1,6.3,0.1,10.6-3.4c4.3-3.5,15.6-15.5,15.9-17.3
					c0.2-1.2-0.7-3.6-1.8-6C380.9,462.7,378.7,464.8,376.5,467z"/>
        </g>
      </g>
    </g>
    <g>
      <g>
        <g>
          <path fill="#0d0d0e" d="M376.2,474.4c-2.5,3-7.5,7.9-12,10.2c-2.8,1.4-8.6,1.1-9.4-0.8c0.3,1.6,1.1,2.9,1.1,3
					c0.5,1.6,5.4,2.5,8.9,0.9c5.1-2.3,9.5-6.7,12.7-10.4c4.4-5.2,6.9-10.1,7.1-11.2c0.1-0.8-0.2-2.3-0.7-3.9
					C383,466.2,380.2,469.5,376.2,474.4z"/>
        </g>
      </g>
    </g>
    <g>
      <g>
        <g>
          <path fill="#ffac8e" d="M389.6,434.3c0,0,0.6,10.1,0.6,18.3c0,3.7-2,7.2-0.8,8.9c1.6,2.2,8.2,2.3,10.2,0.5
					c1.8-1.7,1.1-7.6,1.2-10.2c0.2-5.6,3.1-22.3,3.1-22.3L389.6,434.3z"/>
        </g>
      </g>
    </g>
    <g>
      <g>
        <g>
          <path fill="#2f3e46" d="M468.3,354c0,0-23.3,2.6-34.8,5.1c-13.7,2.9-25.3,5.2-31.9,9c-9.6,5.5-8,21-10.5,40.1
					c-2.7,20.7-3.2,42.4-3.2,42.4s4,0.7,7.4,0.8c4.2,0.1,6.4-1.2,6.4-1.2s6.4-27.3,7.6-32.6c2.6-11.9,6.3-20.6,6.3-20.6
					s8.1-2.6,18.9-4.9c11.4-2.4,20.7-4.5,27.1-8.5c3.8-2.4,8-9,8-14.8C469.5,361,468.3,354,468.3,354z"/>
        </g>
      </g>
    </g>
    <g>
      <g>
        <g>
          <path fill="#2f3e46" d="M468.3,354c0,0-23.3,2.6-34.8,5.1c-12.9,2.8-23.9,5-30.6,8.3c2.8,0.2,5.6,0.1,8.4-0.2
					c5.2-0.6,11.7,0.8,16.9-0.2c5.4-1.1,10.8-2.1,16.2-2.9c2.7-0.4,5.5-0.8,8.3-0.6c2.9,0.1,4.6-2,7.5-1.5c2.8,0.4,5.4,0.9,8.2,0.9
					c0.3,0,0.6,0,0.9,0C469,357.7,468.3,354,468.3,354z"/>
        </g>
      </g>
    </g>
    <g>
      <g>
        <g>
          <path fill="#2f3e46" d="M459.1,384.7c-5.9,0.6-11.8,0.3-17.7,0.2c-4.8-0.1-9.6-0.2-14.4,0.1c-4.2,0.3-8.5,1-12.2,3.2
					c-7.9,4.7-9.2,14.1-10.4,22.6c-1.6,11.8-0.7,23.7-2.8,35.4c-0.3,1.5-0.6,2.9-0.9,4.4c0.7-0.2,1-0.4,1-0.4s6.4-27.3,7.6-32.6
					c2.6-11.9,6.3-20.6,6.3-20.6s8.1-2.6,18.9-4.9c10.4-2.2,19-4.1,25.2-7.5C459.5,384.7,459.3,384.7,459.1,384.7z"/>
        </g>
      </g>
    </g>
    <g>
      <g>
        <g>
          <path fill="#0d0d0e" d="M400.9,454.1c0,0,1-0.5,2.2,3c1.2,3.5,2.6,8,2,9.8c-0.6,1.8-13.6,11.5-18.4,14.1c-4.8,2.6-10.8,1.5-11,1.4
					c-2.6-1.2-3.2-3.2-2.6-5.5c0.6-2.2,4.5-5.7,6.7-8.7c2.1-2.9,6.3-9.7,7-11.8c0.7-2.1,1.9-2.3,3.3-1.9c2.4,0.7,3.2,2.6,4.6,3.2
					c1.6,0.7,3.6,0,4.2-0.2C400.6,456.8,400.9,454.1,400.9,454.1z"/>
        </g>
      </g>
    </g>
    <g>
      <g>
        <g>
          <path fill="#0d0d0e" d="M395.5,473.4c-3,2.5-8.6,6.4-13.4,7.8c-3,0.9-8.6-0.5-9.1-2.5c0,1.6,0.6,3,0.6,3.2c0.2,1.7,4.9,3.5,8.6,2.6
					c5.4-1.4,10.4-4.8,14.2-7.9c5.2-4.3,8.4-8.7,8.8-9.7c0.3-0.8,0.2-2.3-0.1-4C403.5,466.7,400.2,469.4,395.5,473.4z"/>
        </g>
      </g>
    </g>
    <g>
      <g>
        <g>
          <path fill="#fe715e" d="M415.3,283.1c0,0-6.9,3.9-8.7,15.6c-1.2,7.6-1.4,31-2.1,32.3c-1.4,2.7-8.9,20.3-8.9,20.3s9.1,2.2,11.3,7.7
					c0,0,6.7-10.9,10.9-16.7s1-29.5,0-39.8C416.7,292.2,415.3,283.1,415.3,283.1z"/>
        </g>
      </g>
    </g>
    <g>
      <g>
        <g>
          <path fill="#db5956" d="M408.8,333.8c0,0-0.5-1.3-4.4-2.6l0.1-0.3c4.2,1.4,4.6,2.8,4.6,2.8L408.8,333.8z"/>
        </g>
      </g>
    </g>
    <g>
      <g>
        <g>
          <path fill="#fabea8" d="M442.4,269.3c-2.9-5.7-3.8-17.3-3.8-17.3L428,266.6c0.9,8-1.9,10.1-6,13.4c0,0-0.6,12.1,9.6,10.1
					c10.3-2,21.8-13.4,21.8-13.4C450.7,275,443.8,272.4,442.4,269.3z"/>
        </g>
      </g>
    </g>
    <g>
      <g>
        <g>
          <path fill="#f69875" d="M427.8,272.8c0.4-1.7,0.5-3.7,0.2-6.2l10.6-14.6c0,0,0.7,9.7,3.1,15.7C437.6,270.8,432.7,272.3,427.8,272.8
					z"/>
        </g>
      </g>
    </g>
    <g>
      <g>
        <g>
          <path fill="#fe715e" d="M468.9,324.7c0.5-3.9-6.4-46.3-7.2-46.7c-1.2-0.6-9.5-2.9-14.9-5.2c-2.5,5.5-5.7,7.3-11.5,8.2
					c-4,0.6-9.2-0.3-9.9-4.1c-4.1,3.5-10,6.2-10,6.2s-2.3,27.4-0.5,38.9c2.9,19-2.5,26-2.8,33.3c8.9,4.9,23.8,4,25.9,4.2
					c2.4,0.2,12.2-2.1,18.9-0.3c7.8,2.1,11.9,4.5,12.5,4.4c3.4-0.9,4-5.1,2.1-10c-1-2.5-1.2-2.7-1.8-6.2
					C467.8,336.7,468.4,328.1,468.9,324.7z"/>
        </g>
      </g>
    </g>
    <g>
      <g>
        <g>
          <path fill="#bf5547" d="M471.4,353.6c-1-2.5-1.2-2.7-1.8-6.2c-0.6-3.3-0.9-6.4-1.1-9.3c-1.3-4.2-2.1-8.5-3.2-12.8
					c-0.6-2.5-1.3-5-2.4-7.3c-1.1-2.3-3.6-13-4.1-15.3c-1,1.7-1.3,5.3-1.9,8.9c-0.7,3.8-2.8,9.6-13.4,9.3c-9-0.2-11.1-2.3-17.1-0.6
					c-10.7,3.1-10.8,1.2-12.7,0.1c0.1,0.5,1,1.1,1.1,1.6c0.2,1.3,0.3,2.6,0.3,4c4,1.8,8.5,2.3,12.9,2.2c4.5-0.1,9-0.6,13.5-1.1
					c4.8-0.5,9.6-1,13.8,2c1.6,1.1,3.5,2.5,4.6,4.2c0.4,0.3,0.7,0.6,1.1,0.9c2.1,2.6,0.7,5.6-1.3,8c-1.4,2.3-3.5,4.3-5.7,5.5
					c-0.2,0.1-0.4,0.2-0.6,0.2c-1,0.8-2,1.5-3,2.3c-4.1,3.3-9,5.6-14.1,6.9c-1.1,0.3-2.2,0.5-3.2,0.7c2.1,0.4,4.1,0.7,6.2,0.9
					c1.4,0.2,2.9,0.3,4.3,0.3c2.3-0.3,5-0.5,7.7-0.5c0.9-0.2,1.9-0.4,2.8-0.6c4.8-1.3,9.3-4.2,14.4-3.1c1.5,0.3,2.7,1,3.8,1.9
					C472.1,355.7,471.8,354.7,471.4,353.6z"/>
        </g>
      </g>
    </g>
    <g>
      <g>
        <g>
          <path fill="#db5956" d="M412.2,355.3l-0.4-0.1c0.3-1.8,0.8-3.4,1.2-5.2c1.6-6,3.4-12.8,1.6-28.1c-0.5-0.5-4.8-6.1-2.5-13.4
					c0.6-1.9,1.1-2.8,1.7-3.8c0.4-0.7,0.8-1.5,1.3-2.7c1.6-4.1,2.5-6.6,2.5-6.6l0.3,0.1c0,0-0.9,2.6-2.5,6.6c-0.5,1.3-0.9,2-1.4,2.8
					c-0.5,0.9-1,1.8-1.6,3.7c-2.3,7.4,2.5,13,2.5,13.1l0,0l0,0.1c1.8,15.4-0.1,22.5-1.6,28.3C412.9,352,412.5,353.6,412.2,355.3z"/>
        </g>
      </g>
    </g>
    <g>
      <g>
        <g>
          <polygon fill="#0d0d0e" points="443.3 359.5 422.6 362.5 379.4 359.4 400 356.4"/>
        </g>
      </g>
    </g>
    <g>
      <g>
        <g>
          <path fill="#0d0d0e" d="M422.6,362.5l-47.7-2.3l-0.1,2c0,0.4,0.3,0.8,0.8,0.9l46.9,2.3L422.6,362.5z"/>
        </g>
      </g>
    </g>
    <g>
      <g>
        <g>
          <path fill="#0d0d0e" d="M443.3,359.5l-20.6,3l-0.1,2.8l19.7-2.9c0.6-0.1,1-0.6,1-1.1L443.3,359.5z"/>
        </g>
      </g>
    </g>
    <g>
      <g>
        <g>
          <path fill="#fcc0a9" d="M432.3,349.9c-1.3-0.1-4.6,0.5-6.5,1c-1.9,0.5-2.6,0.5-3.5,0.7c-0.9,0.2-1,0.8-0.3,1.1
					c0.8,0.3,1.8,0.7,4.5,0c2.7-0.7,6.3-1.2,6.3-1.2S432.9,349.9,432.3,349.9z"/>
        </g>
      </g>
    </g>
    <g>
      <g>
        <g>
          <path fill="#f8b2a1" d="M420.1,359.4c0,0-0.1,0-0.2-0.1L420.1,359.4z"/>
        </g>
      </g>
    </g>
    <g>
      <g>
        <g>
          <path fill="#fcc0a9" d="M419,357.4c0-0.4,1.2-1.7,2-2.5c1.1-1.1,2-1.7,3.5-2.4c1.3-0.6,5.2-2.3,6.2-2.5c1.9-0.3,3.7,0.1,4.9,0.2
					c1.1,0.1,3.7,1,5,0.8c1.8-0.3,6.9-7,6.9-7l4.2,8.6c0,0-2.8,1.3-5.1,2.6c-2.6,1.4-5.5,2.7-8.1,3.2c-2.6,0.5-3.8-0.4-5-0.4
					c-1.2,0.1-3,0.6-3.9,1.2c-0.9,0.5-2.3,1.7-3.1,1.8c-0.7,0.1-1.1-0.8-1.1-0.8s-1,0.4-1.7,0.9c-0.7,0.5-1.8,0-1.9-0.7
					c0,0-0.6,0.7-1.1,0.6c-0.5-0.1-0.9-0.7-0.6-1.6c0,0,1.4-1.7,2.1-2.4c0.7-0.7,1.9-1.7,2.2-1.9c0.3-0.2,2.2-1,2.2-1
					s-1.2,0.3-2.1,0.6c-0.6,0.2-0.8,0.3-1.2,0.7c-0.8,0.7-1.4,1.2-2.5,2C420.4,357.8,419,358.2,419,357.4z"/>
        </g>
      </g>
    </g>
    <g>
      <g>
        <g>
          <path fill="#fe715e" d="M443.5,348.2c0,0,5.5,2.6,6.1,9c0,0,16.9-9.7,24.8-16.4c4.2-3.5,7.2-7.3,6.9-14.9
					c-0.2-5.2-8.3-30.1-9.8-34.4c-1.4-4.3-2.7-10.2-8.2-12.8c-5.5-2.6-7.6-2.5-7.6-2.5s0.6,14.8,1.5,19.7c0.9,4.9,7.6,30.8,7.6,30.8
					L443.5,348.2z"/>
        </g>
      </g>
    </g>
    <g>
      <g>
        <g>
          <path fill="#db5956" d="M464.9,326.3c2.9,0.3,6.3,1.5,7.4,4.4c-1.3-2.7-4.6-3.7-7.4-3.7L464.9,326.3L464.9,326.3z"/>
        </g>
      </g>
    </g>
    <g>
      <g>
        <g>
          <path fill="#db5956" d="M449.4,357.6l0-0.3c0.3-3.2-3.6-8.5-5.9-8.8l-0.4-0.1l21.5-21.7c-0.5-1.8-6.7-26.1-7.6-30.7l0.4-0.1
					c0.9,4.8,7.5,30.5,7.6,30.8l0,0.1l-0.1,0.1l-21.1,21.3c2.5,0.7,6,5.5,5.9,8.8c1.9-1,12.8-6.9,20.3-12.6l0.2,0.3
					c-8.2,6.3-20.5,12.8-20.6,12.8L449.4,357.6z"/>
        </g>
      </g>
    </g>
    <g>
      <g>
        <g>
          <path fill="#0d0d0e" d="M425.8,363.5L415,363l-24.6-32.7l7.6,0.4c1.3,0.1,2.5,0.7,3.3,1.7L425.8,363.5z"/>
        </g>
      </g>
    </g>
    <g>
      <g>
        <g>
          <path fill="#0d0d0e" d="M422.7,363.3l-47.4-2.3l-23.2-30.9c-0.5-0.7,0-1.7,0.9-1.7l42.9,2.1c1.4,0.1,2.7,0.8,3.5,1.9L422.7,363.3z"/>
        </g>
      </g>
    </g>
    <g>
      <g>
        <g>
          <path fill="#ccc" d="M323,381.6c0.1-1,0.3-2,0.7-3c1.3-3.4,4.3-5.6,7.6-6.1c0.9-6.7,6.7-11.9,13.6-11.9c6.1,0,11.2,3.9,13,9.3
					c1.5-0.7,3.2-1.1,5-1.1c6.4,0,11.5,5.2,11.5,11.5c0,0.4,0,0.8-0.1,1.2h1c3.9,0,7,3.2,7,7l0,0c0,3.9-3.2,7-7,7h-51.4
					c-3.9,0-7-3.2-7-7l0,0C316.9,385,319.6,382.1,323,381.6z"/>
        </g>
      </g>
    </g>
    <g>
      <g>
        <g>
          <path fill="#ccc" d="M590.7,470.4c-0.1-1.3-0.3-2.6-0.8-3.9c-1.7-4.3-5.5-7.2-9.8-7.9c-1.2-8.7-8.6-15.4-17.6-15.4
					c-7.8,0-14.5,5-16.8,12.1c-2-0.9-4.1-1.5-6.4-1.5c-8.2,0-14.9,6.7-14.9,14.9c0,0.5,0,1,0.1,1.5h-1.2c-5,0-9.1,4.1-9.1,9.1v0
					c0,5,4.1,9.1,9.1,9.1h66.4c5,0,9.1-4.1,9.1-9.1v0C598.6,474.8,595.2,471,590.7,470.4z"/>
        </g>
      </g>
    </g>
    <g>
      <g>
        <g>
          <path fill="#dfdfdf" d="M264.9,539.4c0-8.1,6.6-14.7,14.7-14.7c0.2,0,0.4,0,0.6,0c2.2-4.3,6.7-7.2,11.8-7.2c5.9,0,10.8,3.8,12.6,9
					c1.8-0.9,3.9-1.3,6.1-1c5,0.6,9.1,4.6,9.8,9.7c0.1,0.9,0.1,1.7,0,2.6h0.9c3.8,0,6.8,3.1,6.8,6.8v0c0,3.8-3.1,6.8-6.8,6.8h-50.2
					C267.4,548.8,264.9,544.4,264.9,539.4z"/>
        </g>
      </g>
    </g>
    <g opacity=".55">
      <g>
        <g>
          <path fill="#b5c6df" d="M483.1,483.2c0,1.3-3.6,2.4-8,2.4c-4.4,0-8-1.1-8-2.4c0-1.3,3.6-2.4,8-2.4
					C479.5,480.8,483.1,481.9,483.1,483.2z"/>
        </g>
      </g>
    </g>
    <g>
      <g>
        <g>
          <circle cx="475.1" cy="446.1" r="16.9" fill="#fff" transform="rotate(-31.515 475.11 446.09)"/>
        </g>
      </g>
    </g>
    <g>
      <g>
        <g>
          <g>
            <path fill="#415560" d="M475.1,425.5c-11.4,0-20.6,9.2-20.6,20.6c0,17.4,20.6,36.3,20.6,36.3s20.6-20.3,20.6-36.3
						C495.7,434.7,486.5,425.5,475.1,425.5z M475.1,460.6c-8,0-14.5-6.5-14.5-14.5c0-8,6.5-14.5,14.5-14.5c8,0,14.5,6.5,14.5,14.5
						C489.6,454.1,483.1,460.6,475.1,460.6z"/>
          </g>
        </g>
      </g>
    </g>
    <g opacity=".55">
      <g>
        <g>
          <path fill="#b5c6df" d="M318.1,455c0,1-2.6,1.7-5.8,1.7s-5.8-0.8-5.8-1.7c0-1,2.6-1.7,5.8-1.7S318.1,454.1,318.1,455z"/>
        </g>
      </g>
    </g>
    <g>
      <g>
        <g>
          <circle cx="312.2" cy="427.8" r="12.4" fill="#fff"/>
        </g>
      </g>
    </g>
    <g>
      <g>
        <g>
          <g>
            <path fill="#415560" d="M312.2,412.7c-8.4,0-15.1,6.8-15.1,15.1c0,12.8,15.1,26.7,15.1,26.7s15.1-14.9,15.1-26.7
						C327.4,419.4,320.6,412.7,312.2,412.7z M312.2,438.5c-5.9,0-10.7-4.8-10.7-10.7c0-5.9,4.8-10.7,10.7-10.7
						c5.9,0,10.7,4.8,10.7,10.7C322.9,433.7,318.1,438.5,312.2,438.5z"/>
          </g>
        </g>
      </g>
    </g>
    <g opacity=".55">
      <g>
        <g>
          <path fill="#b5c6df" d="M395.8,529.2c0,0.6-1.7,1.2-3.9,1.2s-3.9-0.5-3.9-1.2c0-0.6,1.7-1.2,3.9-1.2S395.8,528.5,395.8,529.2z"/>
        </g>
      </g>
    </g>
    <g>
      <g>
        <g>
          <path fill="#fff" d="M392,519.3c-4.6,0-8.3-3.7-8.3-8.3c0-4.6,3.7-8.3,8.3-8.3c4.6,0,8.3,3.7,8.3,8.3
					C400.2,515.6,396.5,519.3,392,519.3z"/>
        </g>
      </g>
    </g>
    <g>
      <g>
        <g>
          <g>
            <path fill="#415560" d="M392,501c-5.6,0-10.1,4.5-10.1,10.1c0,8.5,10.1,17.8,10.1,17.8S402,518.9,402,511
						C402,505.5,397.5,501,392,501z M392,518.1c-3.9,0-7.1-3.2-7.1-7.1c0-3.9,3.2-7.1,7.1-7.1c3.9,0,7.1,3.2,7.1,7.1
						C399.1,515,395.9,518.1,392,518.1z"/>
          </g>
        </g>
      </g>
    </g>
    <g id="XMLID_00000142898583978724168680000015177312857549243287_">
      <g>
        <g>
          <path fill="#415560" d="M617.2,515.6H590c-5,0-9.1-4.1-9.1-9.1v-27.2c0-5,4.1-9.1,9.1-9.1h27.2c5,0,9.1,4.1,9.1,9.1v27.2
					C626.3,511.6,622.2,515.6,617.2,515.6z"/>
        </g>
      </g>
    </g>
    <g>
      <g>
        <g>
          <path fill="#fff" d="M596.9,486.8h-6.7c-0.6,0-1.2,0.5-1.2,1.2v14.4c0,0.6,0.5,1.2,1.2,1.2h6.7c0.6,0,1.2-0.5,1.2-1.2V488
					C598.1,487.3,597.6,486.8,596.9,486.8z"/>
        </g>
      </g>
    </g>
    <g>
      <g>
        <g>
          <path fill="#fff" d="M619.1,493.1c0-1.2-0.9-2.1-2.1-2.1c1.2,0,2.1-0.9,2.1-2.1c0-1.2-0.9-2.1-2.1-2.1h-0.6h-8.2
					c0.4-3,0.1-6.6,0.1-6.6c0-1.1-0.9-2-2-2h-0.1c-1,0-1.9,0.8-2,1.8c-0.1,1.3-0.4,5.2-1.7,5.8c-1.2,0.5-1.9,1.1-2.2,1.5
					c-0.1,0.1-0.2,0.2-0.3,0.3c-0.3,0.5-0.2,0.9-0.2,0.9v13.4c0,0.9,0.8,1.7,1.7,1.7h15v0h0.6c1.2,0,2.1-0.9,2.1-2.1
					c0-1.2-0.9-2.1-2.1-2.1c1.2,0,2.1-0.9,2.1-2.1c0-1.2-0.9-2.1-2.1-2.1h0C618.1,495.2,619.1,494.3,619.1,493.1z"/>
        </g>
      </g>
    </g>
    <g id="XMLID_00000125571082040087341400000012354914367106269870_">
      <g>
        <g>
          <path fill="#415560" d="M263.3,501.4h-32c-4.2,0-7.6-3.4-7.6-7.6v-32c0-4.2,3.4-7.6,7.6-7.6h32c4.2,0,7.6,3.4,7.6,7.6v32
					C270.9,498,267.5,501.4,263.3,501.4z"/>
        </g>
      </g>
    </g>
    <g>
      <g>
        <g>
          <path fill="#fff" d="M260.3,468.8L260.3,468.8c-3.5-3.5-9.1-3.5-12.6,0l-0.4,0.4l-0.3-0.3c-3.4-3.4-9-3.6-12.6-0.3
					c-3.7,3.5-3.7,9.2-0.2,12.8l0.4,0.4l10.4,10.4c1.2,1.2,3.2,1.2,4.4,0l10.8-10.8C263.8,477.9,263.8,472.2,260.3,468.8z"/>
        </g>
      </g>
    </g>
    <g>
      <defs>
        <circle id="SVGID_229_" cx="289" cy="318.5" r="42.4" transform="rotate(-23.153 288.998 318.497)"/>
      </defs>
      <clipPath id="SVGID_4_">
        <use xlink:href="#SVGID_229_" overflow="visible"/>
      </clipPath>
      <g clip-path="url(#SVGID_4_)">
        <g>
          <g>
            <circle cx="289" cy="318.5" r="42.4" fill="#5c6f77" transform="rotate(-23.153 288.998 318.497)"/>
          </g>
        </g>
      </g>
      <g clip-path="url(#SVGID_4_)">
        <g>
          <g>
            <path fill="#fe715e" d="M326.1,361.6c-0.4-0.6-3.9-5.9-6.8-11.1c-4.3-8-12-16.7-13.1-17.7c-5.7-4.9-14.9-4.4-14.9-4.4
						s5.1,13.8,7.6,19.5c2.5,5.7,9.7,15.9,19.2,22.2C318.9,370.6,327,365.4,326.1,361.6z"/>
          </g>
        </g>
      </g>
      <g clip-path="url(#SVGID_4_)">
        <g>
          <g>
            <path fill="#bf5547" d="M322.6,359.7c-3.1-2.6-6-5.5-8.9-8.3c-3.2-3.1-6.3-6.3-9.8-9c-2.8-2.1-5.8-3.8-9.1-4.9
						c1.5,3.8,3.1,7.9,4.1,10.4c2.5,5.7,9.7,15.9,19.2,22.2c0.7,0.5,7.9-4,8.1-7.7C325,361.5,323.8,360.6,322.6,359.7z"/>
          </g>
        </g>
      </g>
      <g clip-path="url(#SVGID_4_)">
        <g>
          <g>
            <path fill="#0d0d0e" d="M297.9,290.2c3,2.6,4.3,10.1,2.5,13.8l-6.9-13.2L297.9,290.2z"/>
          </g>
        </g>
      </g>
      <g clip-path="url(#SVGID_4_)">
        <g>
          <g>
            <path fill="#fabea8" d="M280.7,315.3c0,4.5-1,6.7-1.9,8.9c-0.9,2.2-9.4,6.7-9.4,6.7s23.9,23.8,33,23.8c9.1,0-3.6-24.1-3.6-24.1
						s-3.8-2.3-4.6-4.7c-0.8-2.4-1.2-7.9-1.2-7.9l-10.5-13.5L280.7,315.3z"/>
          </g>
        </g>
      </g>
      <g clip-path="url(#SVGID_4_)">
        <g>
          <g>
            <path fill="#f69875" d="M279.6,322.1c0.6-1.7,1.1-3.7,1.1-6.8l1.8-10.9l10.5,13.5c0,0,0.4,5.5,1.2,7.9c0.1,0.3,0.2,0.6,0.4,0.9
						C290.1,332.2,279.6,322.1,279.6,322.1z"/>
          </g>
        </g>
      </g>
      <g clip-path="url(#SVGID_4_)">
        <g>
          <g>
            <path fill="#fe715e" d="M259.5,385.7c17.8-1,35.6-1.4,53.4-1.3c-0.7-13.9-1.1-26.8-1.4-29.5c-0.8-6-6.7-22.6-6.7-22.6l-6.9-2.4
						c-0.3,2.3-3.7,3.8-9.3,3.5c-6.5-0.3-12.5-6.5-12.5-6.5s-13.6,7.1-15.8,9.1c-4.4,4.1,0,11.1,0.1,17.1
						C260.5,356,259.7,370.4,259.5,385.7z"/>
          </g>
        </g>
      </g>
      <g clip-path="url(#SVGID_4_)">
        <g>
          <g>
            <path fill="#fe715e" d="M259.5,385.7c17.8-1,35.6-1.4,53.4-1.3c-0.5-9.9-0.8-19.3-1.1-24.9c-2.6,0.5-5.1,0.8-7.7,1
						c-8.9,0.6-18-0.8-26-5.1c-3.7-2-7.2-4.5-10.5-7.1c-1.6-1.3-3.1-2.7-4.6-4.1c-0.1-0.1-0.3-0.3-0.4-0.4c-0.7,2.1-1.5,4.2-2.6,6.1
						c0.2,1.1,0.4,2.3,0.4,3.4C260.5,356,259.7,370.4,259.5,385.7z"/>
          </g>
        </g>
      </g>
      <g clip-path="url(#SVGID_4_)">
        <g>
          <g>
            <path fill="#fabea8" d="M297.8,293c2.8,3.8,3.9,8.5,3.7,11.2c-0.1,2.8-0.3,2.4,0.1,5.9c0.6,4.6-3.3,9.1-5.1,11.3
						c-3.3,4-12,1-14.9-3.3c-1.8-2.6-3.8-5.9-4.6-8.2c-0.7-2.3-3.2-9.9-0.5-13.6c2.7-3.6,8.1-4.4,13.7-4.1
						C295.9,292.4,296.6,291.4,297.8,293z"/>
          </g>
        </g>
      </g>
      <g clip-path="url(#SVGID_4_)">
        <g>
          <g>
            <path fill="#0d0d0e" d="M278.2,303.7c0,0,2.2-1.7,2.5-5c0.3-3.3,0.5-5,0.5-5s2.1,2.4,11.7,0.7c5.1-0.9,6-1.2,6-1.2s3-4.8-1.1-7.6
						c-3.2-2.2-6.6,0.1-9.9,0.8c-2.8,0.6-6-0.1-6.9,0c-6,0.1-5.2,4-5.2,4s-3,0.8-4.1,4.2c-1.2,3.5-0.2,6.2,1.4,10
						c2.2,5.2,6.6,7.6,6.6,7.6L278.2,303.7z"/>
          </g>
        </g>
      </g>
      <g clip-path="url(#SVGID_4_)">
        <g>
          <g>
            <path fill="#fabea8" d="M278.4,307c-2.1-1.7-5.1-0.9-4.4,1.8c0.5,2.3,1.8,2.6,3.9,4.2c1.4,1.1,2.5,0.3,2.5-0.3
						C280.3,310.9,279.7,308.1,278.4,307z"/>
          </g>
        </g>
      </g>
      <g clip-path="url(#SVGID_4_)">
        <g>
          <g>
            <path fill="#fe715e" d="M267.6,362.1c3.1-7.5-1.9-18.8-4.7-23.9c-0.8-1.6-2.9-1.9-4.2-0.6c-2.5,2.7-4.9,6.9-8.5,14.2
						c-3.8,7.8-9.6,25.2-11.6,30.5c-0.3,0.8-0.7,2.6-1.3,5.1c5.6-0.5,11.3-0.9,16.9-1.3C258.2,378.9,265.3,367.6,267.6,362.1z"/>
          </g>
        </g>
      </g>
      <g clip-path="url(#SVGID_4_)">
        <g>
          <g>
            <path fill="#2a2a2a" d="M255.2,385l-0.6-0.3c2.7-5.2,12.5-25.4,12.6-25.6l0.6,0.3C267.8,359.6,258,379.9,255.2,385z"/>
          </g>
        </g>
      </g>
      <g clip-path="url(#SVGID_4_)">
        <g>
          <g>
            <path fill="#fe715e" d="M318.5,325.7c2.1-0.1,5.6,0.6,5.9,2.3c0.4,1.7-0.2,3.9-3,2.4c-2.8-1.5-2.7-4.3-2.7-4.3L318.5,325.7z"/>
          </g>
        </g>
      </g>
      <g clip-path="url(#SVGID_4_)">
        <g>
          <g>
            <path fill="#fabea8" d="M324.8,337.2c-3-0.4-4.4,2.4-7.3,1.6c-1.3-3.2-1.7-10.2-1.5-12.6c-0.3-1.7-1.5-2.3-2.2-3.3
						c-1.3-2-1-2.3-1.6-3.8c-0.4-1.1-1.5-2.8-1.6-3.5c-0.4-1.5,0.8-2.1,1.9-0.9c0.9,1.1,1.3,2.3,2,2.5c0.4,0.1,0.9,0.3,0.9-1.9
						c0-1.4-0.1-3-0.2-4.5c-0.1-1.8-0.9-4.8,0.1-5.1c1-0.3,1.4,2.3,1.7,3.6c0.3,1.4,0.9,4.3,0.9,4.3s0.1-0.6-0.1-2.8
						c-0.3-2.4-0.8-5.3-0.6-6.2c0.2-0.7,1.2-1.2,1.6,0.6c0.4,1.5,1,4.3,1.3,6.1c0.2,1.6,0.4,2.5,0.4,2.5s0.2-1.8,0-2.7
						c-0.2-1.2-0.2-2.4-0.3-3.2c-0.1-1.1-0.2-1.8,0.1-2.2c0.5-0.6,1.2-0.2,1.6,1.6c0.1,0.5,0.5,2.9,0.6,3.5c0.3,2.1,0.4,3.3,0.4,3.3
						s0.1-0.5,0.2-2.1c0-0.6-0.1-3.1-0.2-3.6c-0.1-1.2,1.1-1.3,1.4,0.3c0.1,1,0.5,3.6,0.7,5.7c0.1,1.6,0.8,3.8,0.1,5.9
						c-0.5,1.5-1.2,2.7-1.8,3.9C322.7,327.1,324,330.1,324.8,337.2z"/>
          </g>
        </g>
      </g>
      <g clip-path="url(#SVGID_4_)">
        <g>
          <g>
            <path fill="#fe715e" d="M316.9,352.3c0.3,5,2.8,10,5.2,14.6c2.8-2.3,5.4-4.9,6.3-7c1-2.3,1.6-5,0-12.7c-0.7-3-4.1-19.1-4.1-19.1
						c-3.3,1.8-8.5-0.9-8.5-0.9s-0.1,6.6,0.1,12.4"/>
          </g>
        </g>
      </g>
    </g>
    <g>
      <g>
        <g>
          <path fill="#dfdfdf" d="M267.8,274.1v12.2c0,1.2-1,2.2-2.2,2.2h-19.1c-1.2,0-2.2-1-2.2-2.2v-12.2c0-0.6,0.3-1.2,0.7-1.6
					c0.4-0.4,0.9-0.6,1.5-0.6h19.1c0.6,0,1.1,0.2,1.5,0.6C267.5,272.9,267.8,273.4,267.8,274.1z"/>
        </g>
      </g>
    </g>
    <g>
      <g>
        <g>
          <path fill="#dfdfdf" d="M245,287.9l9.7-9.2c0.8-0.7,2-0.7,2.8,0l9.7,9.2c-0.4,0.4-0.9,0.6-1.5,0.6h-19.1
					C245.9,288.5,245.4,288.3,245,287.9z"/>
        </g>
      </g>
    </g>
    <g>
      <g>
        <g>
          <path fill="#5c6f77" d="M245,287.9c2.5-2.8,5.1-5.5,7.7-8.1c0.6-0.5,1.5-1.6,2.2-2c1-0.5,2.4-0.2,3.1,0.7c3.1,3,6.2,6.1,9.1,9.4
					c-3.4-2.7-6.6-5.7-9.8-8.6c-0.4-0.4-0.7-0.6-1.3-0.6c-0.5,0-0.9,0.2-1.3,0.6C251.6,282.2,248.4,285.1,245,287.9L245,287.9z"/>
        </g>
      </g>
    </g>
    <g>
      <g>
        <g>
          <path fill="#dfdfdf" d="M267.1,272.5l-9.7,9.2c-0.8,0.7-2,0.7-2.8,0l-9.7-9.2c0.4-0.4,0.9-0.6,1.5-0.6h19.1
					C266.2,271.9,266.7,272.1,267.1,272.5z"/>
        </g>
      </g>
    </g>
    <g>
      <g>
        <g>
          <path fill="#5c6f77" d="M267.1,272.5c-2.5,2.8-5.1,5.5-7.7,8.1c-0.6,0.5-1.5,1.6-2.2,2c-1,0.5-2.4,0.2-3.1-0.7
					c-3.1-3-6.2-6.1-9.1-9.4c3.4,2.7,6.6,5.7,9.8,8.6c0.4,0.4,0.7,0.6,1.3,0.6c0.5,0,0.9-0.2,1.3-0.6
					C260.5,278.1,263.7,275.2,267.1,272.5L267.1,272.5z"/>
        </g>
      </g>
    </g>
    <g>
      <defs>
        <circle id="SVGID_231_" cx="562.5" cy="320.1" r="40.8" transform="rotate(-4.513 562.493 320.116)"/>
      </defs>
      <clipPath id="SVGID_6_">
        <use xlink:href="#SVGID_231_" overflow="visible"/>
      </clipPath>
      <g clip-path="url(#SVGID_6_)">
        <g>
          <g>
            <circle cx="562.5" cy="320.1" r="40.8" fill="#5c6f77" transform="rotate(-4.513 562.493 320.116)"/>
          </g>
        </g>
      </g>
      <g clip-path="url(#SVGID_6_)">
        <g>
          <g>
            <path fill="#fabea8" d="M567.5,302.4c-0.4,1.6,0.2,13.5,1.5,16.1c0.5,1.1,8.9,4,8.9,4s-7.6,21.3-12.1,21.9
						c-4.5,0.6-16.5-18.8-16.5-18.8s5.8-3.5,6.1-4.3c1.1-2,0.1-14.8,0.1-14.8L567.5,302.4z"/>
          </g>
        </g>
      </g>
      <g clip-path="url(#SVGID_6_)">
        <g>
          <g>
            <path fill="#f69875" d="M553.5,322.5c1.6,0.5,10.8,1.2,15-5.6c-0.9-4.1-1.3-13.2-1-14.5l-11.9,4.2c0,0,0.9,12.8-0.1,14.8
						C555.3,321.6,554.5,322,553.5,322.5z"/>
          </g>
        </g>
      </g>
      <g clip-path="url(#SVGID_6_)">
        <g>
          <g>
            <path fill="#fe715e" d="M587,377.4c-0.3-18.3-2.5-51.9-3.1-52.4c-1-0.9-7.1-3.2-11.5-4.8c-2.5,4.7-5.6,7.1-11.3,7.1
						c-3.5,0-4.6-2-6.6-5.2c-3.6,0.6-14-1.3-14-1.3s0.7,35.3,0.1,45.5c-0.3,4.8-3,19-3.7,25.4c7.6,4.7,22.9,4,24.7,4.3
						c2.1,0.3,8.9,0.4,14.7,2.3c6.8,2.3,10.5,3.4,10.9,3C587.1,401.4,587.1,383,587,377.4z"/>
          </g>
        </g>
      </g>
      <g clip-path="url(#SVGID_6_)">
        <g>
          <g>
            <path fill="#bf5547" d="M587,377.4c-0.1-8-0.6-18.9-1.2-28.6c-0.8-1.3-1.7-2.7-2.5-4c-0.9-1.5-1.7-3.1-2.8-4.4
						c-1,10.1-2.1,15.6-3.2,20.8c-0.1,0.7-0.3,1.3-0.5,1.8c0,0.4-0.1,0.8-0.1,1.2c-0.3,4.2-0.6,8.5-1,12.7
						c-0.4,4.2-0.8,8.5-1.2,12.7c-0.2,2.7-0.4,5.5-0.4,8.2c0.7,0.2,1.4,0.4,2,0.6c6.8,2.3,10.5,3.4,10.9,3
						C587.1,401.4,587.1,383,587,377.4z"/>
          </g>
        </g>
      </g>
      <g clip-path="url(#SVGID_6_)">
        <g>
          <g>
            <path fill="#fe715e" d="M567,386.5c0,0,4.7,2.6,4.9,8.2c0,0,12.8-8.3,20-13.7c3.8-2.8,6.7-6,6.8-12.7c0.1-4.6-4.3-26.3-5.3-30.1
						c-1-3.8-3.1-9.9-7.8-12.4c-4.7-2.5-6.7-2.8-6.7-2.8s-0.3,13.5,0.3,17.8c0.6,4.3,5.1,27.3,5.1,27.3L567,386.5z"/>
          </g>
        </g>
      </g>
      <g clip-path="url(#SVGID_6_)">
        <g>
          <g>
            <path fill="#a64c80" d="M590.9,371.4c0,0-3.1-3.3-6.6-3l-0.1-0.7c3.9-0.4,7.1,3,7.2,3.2L590.9,371.4z"/>
          </g>
        </g>
      </g>
      <g clip-path="url(#SVGID_6_)">
        <g>
          <g>
            <path fill="#fabea8" d="M563.6,318.7c-1.5,1.3-4.2,2.8-7.6,3.1c-1.9,0.1-3.4-0.5-4.4-1.6c-1.8-2.1-3.5-5.7-3.9-8.9
						c-0.2-1.7,0.2-5.9,0.8-7.9c0.5-1.7,0.6-4.6,1-5.7c1.3-3.6,3.2-7.1,6.4-7.4c8.7-0.8,17.5,8.4,16.8,11c-0.6,2.4-2.6,6.4-3.5,9.5
						C568.5,313.2,566.2,316.4,563.6,318.7z"/>
          </g>
        </g>
      </g>
      <g clip-path="url(#SVGID_6_)">
        <g>
          <g>
            <path fill="#0d0d0e" d="M567.8,296.2c0.6,2.1,1.9,2.2,3.1,3.8c0.6,0.7-1.2,4.1-1.5,6.2c-0.1,0.4,1.4,0.1,1.3,0.6
						c-0.3,2.1-0.5,3.3-0.5,3.3s2.1-2,4-4.5c4.1-5.5,3.1-8.2,1.6-10.3c-1.5-2.1-3.2-2.7-3.2-2.7L567.8,296.2z"/>
          </g>
        </g>
      </g>
      <g clip-path="url(#SVGID_6_)">
        <g>
          <g>
            <path fill="#fabea8" d="M569.6,306.3c0.9-0.8,2.7-1.4,3.2,0.3c0.3,0.8-1,4.3-2.6,5.5c-1.5,1.1-2.8,0.3-2.8,0.3l1-4.4L569.6,306.3z
						"/>
          </g>
        </g>
      </g>
      <g clip-path="url(#SVGID_6_)">
        <g>
          <g>
            <path fill="#0d0d0e" d="M572.1,301.3c0.9-1.7,1.7-3.1,1.7-3.1l-1.4-4.2l-4.6-1.9l-0.3,2.2c-2.7,1.6-3.4,4.6-1,7.1
						c2.3,2.4,1.7,3.3,1.4,4.5c-0.2,1-0.2,3.9-0.2,3.9s1.4-2.5,1.8-3.3C570.2,305.2,572.1,301.3,572.1,301.3z"/>
          </g>
        </g>
      </g>
      <g clip-path="url(#SVGID_6_)">
        <g>
          <g>
            <path fill="#0d0d0e" d="M573.8,291.9c-0.3-2.2-2.1-6-8.8-6.7c-4.9-0.5-8.6,1.4-10.5,2.6c-3.4,2.1-4.6,4.6-4.5,6.2
						c0,0.4,0.4,1.6,0.4,1.6c0.1-0.1,0.9-2.1,4.3-1.7c5.1,0.6,6.3,2.2,12.6,1.3l5.8,1.8C573.1,297,574.2,294.5,573.8,291.9z"/>
          </g>
        </g>
      </g>
    </g>
    <g>
      <g>
        <g>
          <path fill="#fe715e" d="M512.6,290.4c-2.3,0.4-5.8,2.1-5.6,4c0.1,1.8,1.4,3.9,4,1.6c2.6-2.2,1.6-5.1,1.6-5.1L512.6,290.4z"/>
        </g>
      </g>
    </g>
    <g>
      <g>
        <g>
          <path fill="#fabea8" d="M509.6,303.8c2.9-1.2,5.1,1.1,7.9-0.5c0.4-3.6-1.6-10.8-2.1-13.3c0.1-1.8,1.3-2.6,2-3.7
					c1.2-2.2,0.9-2.5,1.3-4.1c0.4-1.2,1.2-3.1,1.4-3.8c0.3-1.6-1-2.2-2.1-0.7c-0.8,1.2-1.2,2.6-1.8,2.8c-0.4,0.2-0.9,0.4-1.2-1.9
					c-0.2-1.5-0.2-3.1-0.3-4.8c-0.1-1.9,0.5-5.2-0.6-5.4c-1.1-0.2-1.3,2.5-1.4,4c-0.2,1.5-0.5,4.6-0.5,4.6s-0.2-0.6-0.2-3
					c0-2.6,0.3-5.7,0-6.6c-0.2-0.7-1.3-1.1-1.6,0.7c-0.2,1.6-0.6,4.6-0.7,6.5c-0.1,1.7-0.1,2.7-0.1,2.7s-0.3-1.9-0.3-2.9
					c0-1.2,0-2.5,0-3.3c0-1.2,0-1.9-0.3-2.3c-0.6-0.6-1.3-0.1-1.5,1.8c-0.1,0.5-0.2,3-0.2,3.7c-0.1,2.2-0.1,3.5-0.1,3.5
					s-0.2-0.5-0.4-2.1c-0.1-0.6-0.2-3.2-0.2-3.8c0-1.3-1.3-1.2-1.4,0.4c-0.1,1.1-0.2,3.8-0.1,6.1c0,1.6-0.4,4.1,0.5,6.2
					c0.6,1.6,1.5,2.8,2.2,3.9C508.5,291.7,508.4,296.3,509.6,303.8z"/>
        </g>
      </g>
    </g>
    <g>
      <g>
        <g>
          <path fill="#fe715e" d="M543.6,339.9c0.9-6.1,2.3-12.2,4.5-17.9c-7.4-0.8-26.2-4.9-26.2-4.9l-6-25.6c0,0-4.9,3.8-9,2.8
					c0,0,1.2,17.2,1.4,20.5c0.5,8.3,2,10.8,3.8,12.8c2.8,3.2,10.1,6.8,14.7,8"/>
        </g>
      </g>
    </g>
    <g>
      <g>
        <g>
          <path fill="#dfdfdf" d="M607.7,281.2v12.2c0,1.2-1,2.2-2.2,2.2h-19.1c-1.2,0-2.2-1-2.2-2.2v-12.2c0-0.6,0.3-1.2,0.7-1.6
					c0.4-0.4,0.9-0.6,1.5-0.6h19.1c0.6,0,1.1,0.2,1.5,0.6C607.5,280,607.7,280.5,607.7,281.2z"/>
        </g>
      </g>
    </g>
    <g>
      <g>
        <g>
          <path fill="#dfdfdf" d="M584.9,295l9.7-9.2c0.8-0.7,2-0.7,2.8,0l9.7,9.2c-0.4,0.4-0.9,0.6-1.5,0.6h-19.1
					C585.9,295.6,585.3,295.3,584.9,295z"/>
        </g>
      </g>
    </g>
    <g>
      <g>
        <g>
          <path fill="#5c6f77" d="M584.9,295c2.5-2.8,5.1-5.5,7.7-8.1c0.6-0.5,1.5-1.6,2.2-2c1-0.5,2.4-0.2,3.1,0.7c3.1,3,6.2,6.1,9.1,9.4
					c-3.4-2.7-6.6-5.7-9.8-8.6c-0.4-0.4-0.7-0.6-1.3-0.6c-0.5,0-0.9,0.2-1.3,0.6C591.5,289.3,588.3,292.2,584.9,295L584.9,295z"/>
        </g>
      </g>
    </g>
    <g>
      <g>
        <g>
          <path fill="#dfdfdf" d="M607.1,279.6l-9.7,9.2c-0.8,0.7-2,0.7-2.8,0l-9.7-9.2c0.4-0.4,0.9-0.6,1.5-0.6h19.1
					C606.1,278.9,606.7,279.2,607.1,279.6z"/>
        </g>
      </g>
    </g>
    <g>
      <g>
        <g>
          <path fill="#5c6f77" d="M607.1,279.6c-2.5,2.8-5.1,5.5-7.7,8.1c-0.6,0.5-1.5,1.6-2.2,2c-1,0.5-2.4,0.2-3.1-0.7
					c-3.1-3-6.2-6.1-9.1-9.4c3.4,2.7,6.6,5.7,9.8,8.6c0.4,0.4,0.7,0.6,1.3,0.6c0.5,0,0.9-0.2,1.3-0.6
					C600.5,285.2,603.7,282.3,607.1,279.6L607.1,279.6z"/>
        </g>
      </g>
    </g>
    <g>
      <g>
        <g>
          <path fill="#dfdfdf" d="M360.9,245.8v-0.6l0.8-0.8c2-1.9,2.9-2.9,2.9-4c0-0.8-0.4-1.5-1.5-1.5c-0.7,0-1.3,0.4-1.6,0.7l-0.3-0.7
					c0.5-0.5,1.3-0.8,2.2-0.8c1.7,0,2.4,1.1,2.4,2.2c0,1.4-1,2.6-2.7,4.2l-0.6,0.6v0h3.5v0.9H360.9z"/>
        </g>
      </g>
    </g>
    <g>
      <g>
        <g>
          <g>
            <path fill="#0a0a0c" d="M443.3,243.4l12.4,0c0,0-0.1,11.1-8.7,20.8c-2.6,2.9-6.8,4-10.4,2.5C428.7,263.3,436.3,253.2,443.3,243.4
						z"/>
          </g>
        </g>
      </g>
      <g>
        <g>
          <g>
            <circle cx="441.5" cy="241.5" r="14.3" fill="#0a0a0c"/>
          </g>
        </g>
      </g>
      <g>
        <g>
          <g>
            <circle cx="425.4" cy="240.8" r="11.5" fill="#0a0a0c" transform="rotate(-9.16 425.33 240.726)"/>
          </g>
        </g>
      </g>
      <g>
        <g>
          <g>
            <circle cx="424.1" cy="247.3" r="11.5" fill="#0a0a0c" transform="rotate(-13.403 424.057 247.24)"/>
          </g>
        </g>
      </g>
      <g>
        <g>
          <g>
            <path fill="#fcc0a9" d="M417.4,263c-1,0-0.8,1-0.8,1s0,0.3,0.4,0.6c0.1,0.1,0.2,0.2,0.3,0.2c0.7,0.4,0.5,1.7,0.5,1.7
						s-0.8,2-0.3,3c0.5,0.8,0.7,1.3,2.7,1.2c1,0.1,2.2,0,3.3,0c1.8-0.1,3.5-0.3,3.5-0.3s1.2-0.1,2.8-0.4c3.1-0.6,7.7-2.2,8.1-5.5
						c0.6-4,0.6-4.5,0.6-4.5l1.2-16.6c0,0,1.3-7.5-5.5-9.6c-6.8-2.1-12.3,0.5-12.3,0.5s-6.3,4.4-4.9,11.7c1.4,7.3-3,8.9-3,8.9
						s-1.5,0.9-0.3,2.4c1.3,1.5,2.5,1.7,2.5,1.7s0.3,0.1,0.4,0.3l0,0c0,0,0,0.1,0.1,0.3c0,0.2,0,0.7-0.3,1.2
						c-0.1,0.2-0.2,0.4-0.2,0.6c-0.1,0.4,0.2,0.6,0.2,0.6s0.2,0.3,0.9,0.3c0,0,1.7,0.2,3.7-1.1C421.1,261.3,420,263,417.4,263z"/>
          </g>
        </g>
      </g>
      <g>
        <g>
          <g>
            <path fill="#ff9b8a" d="M438.6,260L438.6,260C438.6,260,438.6,260,438.6,260z"/>
          </g>
        </g>
      </g>
      <g>
        <g>
          <g>
            <path fill="#0a0a0c" d="M424.7,229.2c-2.2,2.7-3.6,6.1-3.6,9.8c0,8.5,6.9,15.3,15.3,15.3s15.3-6.9,15.3-15.3
						c0-4-1.6-7.7-4.1-10.4c0,0-3-1.8-7.2-1.4C436.2,227.6,424.7,229.2,424.7,229.2z"/>
          </g>
        </g>
      </g>
      <g>
        <g>
          <g>
            <path fill="#fcc0a9" d="M436.1,252.7c-1.5,2.8-1.2,5.9,0.7,6.9c1.8,1,4.5-0.5,6-3.4c1.5-2.8,1.2-5.9-0.7-6.9
						C440.2,248.3,437.5,249.8,436.1,252.7z"/>
          </g>
        </g>
      </g>
    </g>
  </g>
</svg>