<svg xmlns="http://www.w3.org/2000/svg" viewBox="0 0 1200 1200"><defs><style>.cls-1{fill:#4f3cc9}.cls-2{fill:#77e0b5}.cls-3{fill:#fff}.cls-4{fill:#f582ae}</style></defs><g id="_13" data-name="13"><g id="Stars"><path class="cls-1" d="m977.35 520.57-10.63-2.32-2.42-10.61a.82.82 0 0 0-.8-.64.84.84 0 0 0-.81.64l-2.42 10.66-10.63 2.52a.84.84 0 0 0-.64.82.81.81 0 0 0 .65.79l10.63 2.32 2.41 10.61a.84.84 0 0 0 .81.64.82.82 0 0 0 .8-.64l2.43-10.66 10.63-2.52a.82.82 0 0 0 0-1.61ZM306.35 601.57l-10.63-2.32-2.42-10.61a.82.82 0 0 0-.8-.64.84.84 0 0 0-.81.64l-2.42 10.66-10.63 2.52a.84.84 0 0 0-.64.82.81.81 0 0 0 .65.79l10.63 2.32 2.41 10.61a.84.84 0 0 0 .81.64.82.82 0 0 0 .8-.64l2.43-10.66 10.63-2.52a.82.82 0 0 0 0-1.61ZM923.66 478l-5.5-1.2-1.24-5.49a.43.43 0 0 0-.84 0l-1.25 5.52-5.5 1.3a.43.43 0 0 0-.33.42.42.42 0 0 0 .34.41l5.5 1.2 1.24 5.49a.43.43 0 0 0 .84 0l1.25-5.52 5.5-1.3a.44.44 0 0 0 .33-.42.42.42 0 0 0-.34-.41Z"/></g><g id="Plants"><path class="cls-1" d="M196 960h138.73c1.76-18.38-12.69-24.73-12.69-24.73 3.5-5.8 1.86-9.52 1.86-9.52-2.19-3.06-4.49 0-4.49 0 .11-7.44-3.61-8.76-3.61-8.76-2.62-.65-3.5 4.49-3.5 4.49-7.88-8.21-15.54-3.72-15.54-3.72a11.4 11.4 0 0 0 .55-5.69c-1.42-1.86-2.95.55-2.95.55.43-10-3.18-10.4-3.18-10.4-3.61-.11-2.95 7.55-2.95 7.55-5.23-7.22-11.23-7.55-11.23-7.55-9.41-.11-14.12 9.74-14.12 9.74.66-11.71-3.61-11.71-3.61-11.71-4.82 1-1.75 13.68-1.75 13.68-6.79-5.36-12.69-4-12.69-4-11.39 2-14.56 18-14.56 18-3.17-4.49-5.36-3.39-5.36-3.39-3.06 1.64-1.53 6.34-1.53 6.34-10.07 2.52-2.19 4.49-2.19 4.49a14.71 14.71 0 0 0-3.28 4.6C199.48 939.65 196 960 196 960ZM802.09 960h196.84c2.49-26.08-18-35.08-18-35.08 5-8.23 2.64-13.51 2.64-13.51-3.11-4.35-6.37 0-6.37 0 .16-10.56-5.12-12.42-5.12-12.42-3.73-.93-5 6.37-5 6.37-11.18-11.65-22-5.28-22-5.28 1.55-5 .77-8.08.77-8.08-2-2.63-4.19.78-4.19.78.62-14.13-4.5-14.75-4.5-14.75-5.12-.15-4.19 10.71-4.19 10.71C925.51 878.5 917 878 917 878c-13.35-.15-20 13.82-20 13.82.93-16.61-5.12-16.61-5.12-16.61-6.83 1.4-2.48 19.4-2.48 19.4-9.63-7.6-18-5.74-18-5.74-16.15 2.79-20.65 25.46-20.65 25.46-4.5-6.37-7.61-4.81-7.61-4.81-4.34 2.33-2.17 9-2.17 9-14.28 3.57-3.1 6.37-3.1 6.37a20.77 20.77 0 0 0-4.66 6.52c-26.15-.28-31.12 28.59-31.12 28.59Z"/><path class="cls-2" d="M527.65 957.78H231c-3.74-39.3 27.14-52.88 27.14-52.88-7.49-12.4-4-20.35-4-20.35 4.68-6.55 9.6 0 9.6 0-.24-15.91 7.72-18.72 7.72-18.72 5.61-1.4 7.49 9.59 7.49 9.59 16.84-17.55 33.22-7.95 33.22-7.95C309.81 860 311 855.3 311 855.3c3-4 6.32 1.17 6.32 1.17-.94-21.29 6.78-22.23 6.78-22.23 7.72-.23 6.32 16.15 6.32 16.15 11.23-15.45 24.1-16.15 24.1-16.15 20.12-.23 30.18 20.83 30.18 20.83-1.4-25 7.73-25 7.73-25 10.29 2.11 3.74 29.25 3.74 29.25 14.51-11.47 27.14-8.66 27.14-8.66 24.33 4.21 31.12 38.37 31.12 38.37 6.79-9.59 11.46-7.25 11.46-7.25 6.56 3.51 3.28 13.57 3.28 13.57 21.53 5.38 4.68 9.59 4.68 9.59 4.21 3.51 7 9.83 7 9.83 39.31-.51 46.8 43.01 46.8 43.01Z"/><path class="cls-1" d="M531.21 960.78h-303l-.26-2.71c-3.2-33.64 18.11-49.62 26-54.35-6.16-12.06-2.79-20-2.63-20.38l.12-.28.18-.26c2.44-3.4 5.11-4.14 6.93-4.16a6.77 6.77 0 0 1 2.45.36c1.55-13 9.1-15.87 9.46-16l.27-.08a6.68 6.68 0 0 1 5.38.9 12.74 12.74 0 0 1 4.37 6.06c10.87-9.09 21.35-8.63 27.54-7.1a22.73 22.73 0 0 1 .07-8.21l.15-.6.38-.49a6 6 0 0 1 5.14-2.68 4.38 4.38 0 0 1 .51 0c.57-17.53 7.88-19.38 9.47-19.58h.27a7.49 7.49 0 0 1 5.76 2.38c2.06 2.18 3 5.61 3.45 8.84 10.42-10.5 20.64-11.19 21.14-11.21h.5c12.73 0 21.63 7.55 26.87 13.91.52-7.12 2.23-12.25 5.13-15.31a8 8 0 0 1 5.57-2.81h.3l.3.06a8.66 8.66 0 0 1 5.64 4c3.36 5.29 2.76 14.93 1.78 21.65 12.32-7.06 22.31-5.31 23.43-5.08 19.89 3.48 28.77 24.59 32 35 6.17-5.91 10.78-3.91 11.38-3.61 5.64 3 6.27 9.35 5.51 14.11 7.33 2.13 10.37 4.44 10.37 7.72 0 2.43-1.89 4.11-4 5.23a38.73 38.73 0 0 1 3.61 5.62c39.75.9 47.81 45.08 47.89 45.54Zm-297.47-6h290.15c-2.63-9.91-12.57-37-42.41-37h-2.59l-.8-1.8c0-.05-2.59-5.73-6.2-8.74l-4.54-3.78 5.75-1.46a16.8 16.8 0 0 0 3.1-1.13 35.73 35.73 0 0 0-7.78-2.64l-3.12-.78 1-3.06c0-.06 2.33-7.48-1.65-9.88-.92-.16-3.86.66-7.79 6.23l-4 5.7-1.36-6.85c-.07-.32-6.7-32.2-28.69-36h-.14c-.45-.09-11.54-2.26-24.63 8.08L391.2 867l2-8.43c1.68-7 3.26-19.71.36-24.26a2.86 2.86 0 0 0-1.31-1.21c-1.85.75-5.51 5.65-4.6 21.79l.85 15.18-6.5-13.71c-.09-.19-9.47-19.3-27.36-19.12-.9.08-11.86 1.25-21.79 14.91l-6.34 8.71.92-10.73c.33-3.91-.08-10.34-2-12.38a1.44 1.44 0 0 0-.9-.5c-1.54.74-4.8 5.25-4.2 19.09l.5 11.2-6-9.46a5.29 5.29 0 0 0-1-1.09 25.13 25.13 0 0 0 1.25 9.58l2.32 7.41-6.7-3.92c-.57-.33-14.63-8.09-29.54 7.44l-4.16 4.29-1-5.86c-.4-2.28-1.68-6.11-3.16-7.08a.65.65 0 0 0-.48-.14c-.81.41-5.8 3.46-5.61 15.79l.13 9.23-5.53-7.38c-.41-.53-1.66-1.71-2.63-1.71-.69 0-1.42.76-1.89 1.36-.42 1.3-2 7.66 3.89 17.35l1.76 2.93-3.12 1.37c-1.2.51-27.52 12.64-25.62 47.13Zm230.75-70.38h.06Z"/><path class="cls-2" d="M972.79 957.78H676.1c-3.74-39.3 27.15-52.88 27.15-52.88-7.49-12.4-4-20.35-4-20.35 4.68-6.55 9.59 0 9.59 0-.23-15.91 7.72-18.72 7.72-18.72 5.62-1.4 7.49 9.59 7.49 9.59 16.85-17.55 33.23-7.95 33.23-7.95-2.34-7.49-1.17-12.17-1.17-12.17 3-4 6.31 1.17 6.31 1.17-.93-21.29 6.79-22.23 6.79-22.23 7.72-.23 6.32 16.15 6.32 16.15 11.23-15.45 24.1-16.15 24.1-16.15 20.12-.23 30.18 20.83 30.18 20.83-1.4-25 7.72-25 7.72-25 10.3 2.11 3.74 29.25 3.74 29.25 14.51-11.47 27.15-8.66 27.15-8.66 24.33 4.21 31.12 38.37 31.12 38.37 6.78-9.59 11.46-7.25 11.46-7.25 6.55 3.51 3.28 13.57 3.28 13.57 21.52 5.38 4.68 9.59 4.68 9.59 4.21 3.51 7 9.83 7 9.83 39.34-.51 46.83 43.01 46.83 43.01Z"/><path class="cls-1" d="M976.35 960.78h-303l-.26-2.71c-3.2-33.64 18.1-49.62 26-54.35-6.15-12.06-2.78-20-2.63-20.38l.13-.28.18-.26c2.43-3.4 5.11-4.14 6.92-4.16a6.86 6.86 0 0 1 2.38.36c1.54-13 9.09-15.87 9.45-16l.28-.08a6.67 6.67 0 0 1 5.37.9 12.82 12.82 0 0 1 4.38 6.06c10.87-9.09 21.35-8.63 27.53-7.1a22.33 22.33 0 0 1 .08-8.21l.15-.6.37-.49a6 6 0 0 1 5.14-2.68 4.38 4.38 0 0 1 .52 0c.56-17.53 7.88-19.38 9.47-19.58h.27a7.52 7.52 0 0 1 5.76 2.38c2.05 2.18 3 5.61 3.44 8.84 10.42-10.5 20.64-11.19 21.14-11.21h.58c12.72 0 21.62 7.55 26.86 13.91.52-7.12 2.24-12.25 5.13-15.31a8 8 0 0 1 5.57-2.81h.3l.3.06a8.68 8.68 0 0 1 5.65 4c3.36 5.29 2.76 14.93 1.78 21.65 12.31-7.06 22.3-5.3 23.42-5.08 19.9 3.48 28.78 24.59 32 35 6.17-5.91 10.78-3.91 11.37-3.61 5.65 3 6.28 9.35 5.52 14.11 7.32 2.13 10.37 4.44 10.37 7.72 0 2.43-1.89 4.11-4 5.23a38.73 38.73 0 0 1 3.61 5.62c39.74.9 47.81 45.08 47.89 45.54Zm-297.46-6H969c-2.63-9.91-12.57-37-42.41-37H924l-.81-1.8c0-.05-2.59-5.73-6.2-8.74l-4.53-3.78 5.73-1.44a17.35 17.35 0 0 0 3.1-1.13 36 36 0 0 0-7.78-2.64l-3.12-.78 1-3.06c0-.06 2.34-7.48-1.64-9.88-.94-.16-3.86.67-7.8 6.23l-4 5.7-1.36-6.85c-.06-.32-6.69-32.2-28.69-36h-.13c-.46-.09-11.55-2.26-24.64 8.08l-6.8 5.38 2-8.43c1.67-7 3.25-19.71.35-24.26a2.85 2.85 0 0 0-1.3-1.21c-1.85.75-5.51 5.65-4.61 21.79l.85 15.18-6.55-13.72c-.09-.19-9.42-19.12-27.15-19.12h-.21c-.9.08-11.85 1.25-21.79 14.91l-6.33 8.71.92-10.73c.33-3.91-.08-10.34-2-12.38a1.49 1.49 0 0 0-.91-.5c-1.53.74-4.8 5.25-4.19 19.09l.49 11.2-6-9.46a5 5 0 0 0-1-1.09 24.92 24.92 0 0 0 1.25 9.58l2.31 7.41-6.69-3.92c-.58-.33-14.64-8.09-29.55 7.44l-4.12 4.29-1-5.86c-.39-2.28-1.67-6.11-3.16-7.08a.62.62 0 0 0-.47-.14c-.81.41-5.8 3.46-5.62 15.79l.14 9.23-5.54-7.38c-.41-.53-1.65-1.71-2.62-1.71-.69 0-1.41.76-1.88 1.36-.42 1.3-2 7.66 3.88 17.35l1.77 2.93-3.13 1.37c-1.16.45-27.47 12.58-25.58 47.07Zm230.75-70.38h.06ZM385 942.11c-6.67 4.41-9.81 11.44-11.17 15.67H326c-3.8-12-2.52-18.39-2.52-18.39 3.24 5.62 6.81 7.15 6.81 7.15 3.92-7.15 2.39-26.4 2.39-26.4 7.15 6.64 6.47 21.46 6.47 21.46 5.07-18.08 16.68-23.59 16.86-23.67-7.49 12.26-7.83 30.32-7.83 30.32 9.2-14.65 26.74-13 26.74-13-12.78 4.26-13.29 17.2-13.29 17.2 8.71-9.65 23.37-10.34 23.37-10.34Z"/></g><g id="Man"><path class="cls-3" d="m486.55 581.86 27.61-10.08 2.73-78.53c-33.76-25.63-14.85-44-14.85-44l1.44-35.94h134.76c25.08 146.43-38.74 132.43-38.74 132.43l1.61 30.51L633.87 588l-.2 62.27H481.86Z"/><path class="cls-1" d="M636.66 653.25h-158l5-73.54 27.54-10.06 2.61-75c-12.68-9.93-19.42-20.09-20-30.21a23.63 23.63 0 0 1 5.27-16.41l1.51-37.74h140.18l.42 2.5c11.11 64.83 6.62 107.36-13.34 126.42a34.34 34.34 0 0 1-25.17 9.86l1.32 25 32.88 11.76Zm-151.58-6h145.6l.18-57.16-32.64-11.68-1.93-36.41 3.85.84c.5.11 12.73 2.52 23.68-8 12.46-12 24.56-42.33 11.88-118.48H506.36L505 450.58l-.86.83a17.2 17.2 0 0 0-4.33 12.82c.57 8.46 7.11 17.67 18.91 26.63l1.24.94-2.86 82.1-27.69 10.1Z"/><path class="cls-1" d="M561.52 421.2s28.84 18.67 78 0l2.39 17.19s21.69-15.44 15.86-44c0 0-2.92-18.08-33.25-21.58 0 0-12.84-26.25-40.84-15.17 0 0-21-12.83-41.42 6.42 0 0-18.08-.59-21 14 0 0-19.21-2.26-31 11.08a29.91 29.91 0 0 0-7.26 20c0 11.32 1.05 30.87 19.17 41.83 0 0 21.24-14.38 27.84 14l10.5 2.92 2.33-16.33s15.77-4.69 18.68-30.36Z"/><path class="cls-1" d="M631.24 482.7a21 21 0 1 1 21-21 21 21 0 0 1-21 21Zm0-37.92a17 17 0 1 0 17 17 17 17 0 0 0-17-17ZM585.73 482.7a21 21 0 1 1 21-21 21 21 0 0 1-21 21Zm0-37.92a17 17 0 1 0 17 17 17 17 0 0 0-17-17Z"/><circle class="cls-1" cx="630.94" cy="464.37" r="5.25"/><circle class="cls-1" cx="585.73" cy="464.66" r="5.25"/><path class="cls-1" transform="rotate(-84.41 553.227 458.086)" d="M551.25 444.5h4v27.17h-4z"/><path class="cls-1" d="m621.55 495.18-11.81-.92.31-3.98 5.79.45-10.4-31.1 3.79-1.27 12.32 36.82zM613.83 442.6l-2.53-3.1c.42-.34 10.52-8.39 30.44-5.89l-.5 4c-18.24-2.31-27.32 4.92-27.41 4.99ZM600.32 442.14c-.57-.61-14.27-14.63-33-2.85l-2.13-3.39c21.56-13.55 37.88 3.32 38 3.49ZM617.1 516.72a4.6 4.6 0 0 0-.66-7.05 10.88 10.88 0 0 0-5.83-1.9c-5.43-.16-12.62 3.34-16 5.15a1.55 1.55 0 0 0-.3 2.54c3.78 3.3 15.25 9.11 22.79 1.26Z"/><path class="cls-3" d="m702.85 519.05 15 27.06 22.08 110.4L684.34 623v118.27l151 27.06-80.48-245-34.71-98.88a18.73 18.73 0 0 0-11.75-11.57l-3.4-1.15a26.6 26.6 0 0 0-21.73 2.21L653 431.44v54.13s15 10.69 22.08 20.66c0 0 12.11 13.53 27.77 12.82Z"/><path class="cls-1" d="m839.75 772.17-158.41-28.39V617.72l54.28 32.71L715 547.16l-13.9-25.09c-16-.29-27.75-13.27-28.26-13.84l-.2-.26c-6.76-9.45-21.24-19.85-21.39-20l-1.25-.9v-57.36l31.72-18.36a29.6 29.6 0 0 1 24.19-2.47l3.42 1.14A21.89 21.89 0 0 1 723 423.45l34.71 98.88Zm-152.41-33.41 143.57 25.73L752 524.26l-34.69-98.82a15.82 15.82 0 0 0-9.87-9.72l-3.44-1.14a23.62 23.62 0 0 0-19.29 2L656 433.17v50.88c3.8 2.84 15.2 11.67 21.41 20.28 1.11 1.19 12 12.33 25.31 11.72l1.86-.08 16.08 29.1.09.46 23.42 117.06-56.83-34.24Z"/><path class="cls-4" d="M612.73 586c-6.42 17.48-32.27 63.17-113.87-6.32a7.3 7.3 0 0 0-7.32-1.27l-91.4 34.68a54.89 54.89 0 0 0-29.23 26l-54.44 104.67 89.38 21.72-2.13 191.59 339.73.71L711.76 696v-81.39l-91-32.34a6.3 6.3 0 0 0-8.03 3.73Z"/><path class="cls-1" d="m746.84 960.79-346.16-.73 2.15-192.23L312 745.77l56.21-108a57.85 57.85 0 0 1 30.83-27.42l91.4-34.68a10.28 10.28 0 0 1 10.32 1.8c33.83 28.81 61.35 40.69 81.77 35.33 16.51-4.34 24.22-19.26 27.34-27.77a9.33 9.33 0 0 1 11.84-5.55l93 33v83.37Zm-340.09-6.71 333.32.7-31.31-258.56v-79.5l-89-31.62a3.31 3.31 0 0 0-4.21 2c-3.52 9.61-12.3 26.47-31.45 31.5-22.43 5.89-51.76-6.41-87.18-36.57a4.33 4.33 0 0 0-4.31-.75l-91.39 34.68a51.81 51.81 0 0 0-27.64 24.58L320.9 741.75l88 21.38Z"/><path class="cls-1" d="m715.08 591.66-92.35 53.81 2.37 270.33 92.36-50.96-2.38-273.18z"/><path class="cls-3" d="m811.47 647.61-94.01-52v269.23l94.01 47.01V647.61z"/><path class="cls-1" d="m814.47 916.7-100-50V590.53l100 55.31Zm-94-53.72 88 44v-257.6l-88-48.68Z"/><path class="cls-1" d="m909.05 595.61-97.58 52 2.38 268.19 95.2-73.04V595.61z"/><path class="cls-3" d="M622.73 645.47v266.38L528 861.28V595.61l94.73 49.86z"/><path class="cls-1" d="M625.73 916.85 525 863.08V590.64l100.73 53ZM531 859.48l88.73 47.36V647.28L531 600.58ZM671.16 438.21l-23.45 5a17.14 17.14 0 0 0-13.59 16.76 17.14 17.14 0 0 0 13.59 16.77l23.45 5Z"/><path class="cls-2" d="M710.69 493.12h-14.07c-19.76 0-35.79-15-35.79-34.79 0-19.77 16-34.79 35.79-34.79h14.07Z"/><path class="cls-1" d="M713.69 496.12h-17.07c-21.75 0-38.79-16.6-38.79-37.79s17-37.79 38.79-37.79h17.07Zm-17.07-69.58c-18.38 0-32.79 14-32.79 31.79s14.41 31.79 32.79 31.79h11.07v-63.58Z"/><circle class="cls-3" cx="711.05" cy="458.15" r="35.97"/><path class="cls-1" d="M711 496.12a38 38 0 1 1 38-38 38 38 0 0 1-38 38Zm0-71.93a34 34 0 1 0 34 34 34 34 0 0 0-34-34Z"/><path class="cls-1" d="M711 488.29a30.14 30.14 0 1 1 30.14-30.14A30.17 30.17 0 0 1 711 488.29Zm0-56.29a26.14 26.14 0 1 0 26.14 26.13A26.16 26.16 0 0 0 711 432Z"/><path class="cls-2" d="m594.24 438.21-23.45 5a17.14 17.14 0 0 0-13.59 16.76 17.14 17.14 0 0 0 13.59 16.77l23.45 5Z"/><path class="cls-1" d="m597.24 485.36-27.07-5.73a20.13 20.13 0 0 1 0-39.39l27.07-5.73Zm-6-43.45-19.83 4.2a14.13 14.13 0 0 0 0 27.65l19.83 4.2Z"/><path class="cls-2" d="M633.77 493.12H619.7c-19.76 0-35.79-15-35.79-34.79 0-19.77 16-34.79 35.79-34.79h14.07Z"/><path class="cls-1" d="M636.77 496.12H619.7c-21.75 0-38.79-16.6-38.79-37.79s17-37.79 38.79-37.79h17.07Zm-17.07-69.58c-18.39 0-32.79 14-32.79 31.79s14.4 31.79 32.79 31.79h11.07v-63.58Z"/><circle class="cls-3" cx="634.12" cy="458.15" r="35.97"/><path class="cls-1" d="M634.12 496.12a38 38 0 1 1 38-38 38 38 0 0 1-38 38Zm0-71.93a34 34 0 1 0 34 34 34 34 0 0 0-34-34Z"/><path class="cls-1" d="M634.12 488.29a30.14 30.14 0 1 1 30.14-30.14 30.17 30.17 0 0 1-30.14 30.14Zm0-56.27a26.14 26.14 0 1 0 26.14 26.13A26.16 26.16 0 0 0 634.12 432Z"/><path class="cls-3" d="m324.3 745.18 81.2 20-21.37 32.76 89-11.4 24.3-39.25a20.9 20.9 0 0 1 10.08-8.43c14.68-5.79 50.94-9.92 79.08 2.08 2.63 1.13 5.55 9.37-1.64 13.16 0 0 16.8 6.23.71 16.77 0 0 8.55 10.69-3.56 15.67 0 0 2.85 8.55-17.09 11.4l-34.9 5s-19.23 33.48-71.22 44.87L313.8 874.92c-23.47 4.4-42-19.71-31.71-41.26Z"/><path class="cls-1" d="M308.36 878.43a32.2 32.2 0 0 1-29-46.06l43.27-90.68 87.67 21.53-20.13 30.87 81.17-10.39 23.55-38a24 24 0 0 1 11.55-9.7c16-6.31 52.95-10 81.36 2.11 2.56 1.1 4.54 4.62 4.69 8.38a10.47 10.47 0 0 1-2.18 7c2.37 1.62 4.91 4.13 5.3 7.62s-1.56 7.12-5.87 10.51c1.23 2.32 2.5 5.87 1.55 9.56-.77 3-2.81 5.4-6.06 7.17a9 9 0 0 1-1.34 3.95c-2.67 4.32-8.87 7.2-18.43 8.57L532 805.64c-4.18 6.45-24.85 34.61-72.39 45l-145.21 27.2a32.11 32.11 0 0 1-6.04.59ZM326 748.68 284.79 835a26.19 26.19 0 0 0 28.46 37l145.11-27.18c49.86-10.92 69-43.09 69.18-43.42l.73-1.26 1.44-.21 34.9-5c9.84-1.41 13-4.12 14.06-5.61a2.81 2.81 0 0 0 .59-1.93l-1.21-2.75 2.94-.91c2.56-1.06 4.07-2.42 4.49-4.05.69-2.66-1.36-6-2.13-7l-2.06-2.58 2.76-1.81c3.75-2.46 5.79-4.84 5.6-6.54-.24-2.18-4-4.28-5.71-4.91l-6.3-2.34 5.94-3.13a4.84 4.84 0 0 0 2.9-4 5.25 5.25 0 0 0-1.13-3.77c-27.82-11.82-63.67-7.15-76.71-2a17.73 17.73 0 0 0-8.63 7.22L475 789.29l-96.89 12.4L400.67 767Zm253.33 38.76Zm6-43.86Z"/><path class="cls-3" d="M557.48 751.47s16.6.1 28.65 2.93"/><path class="cls-1" d="M585.44 757.32c-11.58-2.72-27.81-2.84-28-2.85v-6c.69 0 17.08.14 29.31 3Z"/><path class="cls-3" d="M558.27 767a88 88 0 0 1 27.07 4.19"/><path class="cls-1" d="M584.38 774a85.51 85.51 0 0 0-26-4l-.17-6a90.28 90.28 0 0 1 28.1 4.34Z"/><path class="cls-3" d="M557.24 782.57s15.28-1.42 25.25 4.28"/><path class="cls-1" d="M581 789.45c-9-5.15-23.34-3.9-23.48-3.89l-.56-6c.67-.06 16.34-1.45 27 4.65Z"/><path class="cls-3" d="m436.48 717.05-30.63 49.14"/><path class="cls-1" transform="rotate(-58.06 421.215 741.654)" d="M392.21 738.62h57.91v6h-57.91z"/></g><g id="Question_mark" data-name="Question mark"><path class="cls-4" d="M734.37 336.73a68.51 68.51 0 0 1 10.8-11.73 59.13 59.13 0 0 0 8.09-8.39 13.19 13.19 0 0 0 2.65-8.09 12.34 12.34 0 0 0-5.14-10.27q-5.14-3.93-13.76-3.93-12.57 0-20.39 6.9a8.55 8.55 0 0 1-10.32.79 8.55 8.55 0 0 1-.61-13.89 44.5 44.5 0 0 1 8.8-5.37q10.28-4.75 24.18-4.75 16.94 0 27 7.33t10.05 20.18a27 27 0 0 1-2 10.88 29.76 29.76 0 0 1-4.92 7.94 95.82 95.82 0 0 1-7.55 7.48 58.22 58.22 0 0 0-8.54 9.07 15.72 15.72 0 0 0-2.8 9.37h-19.2q-.05-8.16 3.66-13.52ZM731.65 383a11.4 11.4 0 0 1-3.41-8.39 11.15 11.15 0 0 1 3.41-8.31 11.89 11.89 0 0 1 8.69-3.33 11.73 11.73 0 0 1 8.54 3.33 11.14 11.14 0 0 1 3.4 8.31 11.39 11.39 0 0 1-3.4 8.39 11.58 11.58 0 0 1-8.54 3.4 11.74 11.74 0 0 1-8.69-3.4Z"/><path class="cls-1" d="M740.34 389.38a14.69 14.69 0 0 1-10.81-4.28 14.33 14.33 0 0 1-4.29-10.51 14.11 14.11 0 0 1 4.31-10.46 14.89 14.89 0 0 1 10.79-4.13 14.66 14.66 0 0 1 10.66 4.13 14.11 14.11 0 0 1 4.31 10.46A14.36 14.36 0 0 1 751 385.1a14.54 14.54 0 0 1-10.66 4.28Zm0-23.43a9 9 0 0 0-6.6 2.47 8.22 8.22 0 0 0-2.5 6.17 8.44 8.44 0 0 0 2.53 6.27 8.78 8.78 0 0 0 6.57 2.52 8.62 8.62 0 0 0 6.42-2.52 8.47 8.47 0 0 0 2.52-6.27 8.22 8.22 0 0 0-2.5-6.17 8.77 8.77 0 0 0-6.44-2.42Zm12.52-12.7h-25.2v-3c0-6 1.43-11.16 4.24-15.23a71.94 71.94 0 0 1 11.28-12.25 58.15 58.15 0 0 0 7.68-7.94 10.17 10.17 0 0 0 2-6.3 9.29 9.29 0 0 0-4-7.89c-2.87-2.2-6.89-3.31-11.93-3.31-7.69 0-13.71 2-18.4 6.15a11.6 11.6 0 0 1-13.94 1.06 11.55 11.55 0 0 1-.83-18.77 48 48 0 0 1 9.39-5.73c7.22-3.34 15.78-5 25.44-5 11.88 0 21.56 2.66 28.75 7.91 7.49 5.46 11.29 13.07 11.29 22.6a30.12 30.12 0 0 1-2.29 12.08 33 33 0 0 1-5.42 8.73 102 102 0 0 1-7.79 7.72 55.59 55.59 0 0 0-8.11 8.58 12.7 12.7 0 0 0-2.24 7.63Zm-19.05-6h13.25a18 18 0 0 1 3.15-8.11 60.2 60.2 0 0 1 9-9.56 95 95 0 0 0 7.31-7.24 27.17 27.17 0 0 0 4.41-7.14 24.22 24.22 0 0 0 1.79-9.69c0-7.62-2.89-13.42-8.82-17.76-6.15-4.48-14.63-6.75-25.22-6.75-8.79 0-16.5 1.51-22.92 4.48a41.23 41.23 0 0 0-8.2 5 5.54 5.54 0 0 0-2.13 4.64 5.47 5.47 0 0 0 2.51 4.37 5.59 5.59 0 0 0 6.71-.52c5.75-5.08 13.28-7.65 22.37-7.65 6.39 0 11.63 1.53 15.58 4.54a15.27 15.27 0 0 1 6.32 12.66 16.17 16.17 0 0 1-3.24 9.88 61.28 61.28 0 0 1-8.5 8.84 66.6 66.6 0 0 0-10.34 11.18 18.81 18.81 0 0 0-3.03 8.83Z"/><path class="cls-2" d="M394.79 390.55a69 69 0 0 1 10.81-11.71 60.25 60.25 0 0 0 8.09-8.39 13.23 13.23 0 0 0 2.64-8.09 12.33 12.33 0 0 0-5.14-10.28q-5.15-3.93-13.75-3.93-12.57 0-20.39 6.9a8.56 8.56 0 0 1-10.33.8 8.55 8.55 0 0 1-.6-13.89 43.5 43.5 0 0 1 8.79-5.37q10.29-4.77 24.19-4.76 16.92 0 27 7.33t10.05 20.18a27 27 0 0 1-2 10.88 30 30 0 0 1-4.91 7.94 99.78 99.78 0 0 1-7.56 7.48 58.22 58.22 0 0 0-8.54 9.07 15.76 15.76 0 0 0-2.79 9.37h-19.2q-.06-8.16 3.64-13.53Zm-2.72 46.26a11.4 11.4 0 0 1-3.4-8.39 11.15 11.15 0 0 1 3.4-8.32 11.93 11.93 0 0 1 8.69-3.32 11.73 11.73 0 0 1 8.54 3.32 11.15 11.15 0 0 1 3.4 8.32 11.4 11.4 0 0 1-3.4 8.39 11.59 11.59 0 0 1-8.54 3.4 11.79 11.79 0 0 1-8.69-3.4Z"/><path class="cls-1" d="M400.76 443.21a14.72 14.72 0 0 1-10.76-4.28 14.36 14.36 0 0 1-4.28-10.51A14.11 14.11 0 0 1 390 418a14.85 14.85 0 0 1 10.79-4.18A14.66 14.66 0 0 1 411.4 418a14.07 14.07 0 0 1 4.3 10.46 14.36 14.36 0 0 1-4.28 10.51 14.52 14.52 0 0 1-10.66 4.24Zm-6.57-8.53a8.82 8.82 0 0 0 6.57 2.53 8.63 8.63 0 0 0 6.42-2.53 8.4 8.4 0 0 0 2.52-6.26 8.16 8.16 0 0 0-2.5-6.17 8.75 8.75 0 0 0-6.44-2.47 9 9 0 0 0-6.59 2.47 8.19 8.19 0 0 0-2.5 6.17 8.4 8.4 0 0 0 2.52 6.26Zm19.1-27.6h-25.2v-3c0-6 1.42-11.16 4.23-15.23a71.61 71.61 0 0 1 11.28-12.25 57.54 57.54 0 0 0 7.68-7.94 10.21 10.21 0 0 0 2.05-6.3 9.31 9.31 0 0 0-4-7.9c-2.88-2.19-6.89-3.31-11.93-3.31-7.7 0-13.72 2-18.41 6.15a11.59 11.59 0 0 1-13.94 1.06 11.55 11.55 0 0 1-.83-18.76 47 47 0 0 1 9.39-5.73c7.22-3.35 15.78-5 25.45-5 11.88 0 21.55 2.66 28.75 7.9 7.49 5.47 11.28 13.07 11.28 22.61a30.12 30.12 0 0 1-2.29 12.08 32.93 32.93 0 0 1-5.41 8.72 100.57 100.57 0 0 1-7.8 7.72 55.4 55.4 0 0 0-8.1 8.59 12.68 12.68 0 0 0-2.24 7.63Zm-19.05-6h13.24a18 18 0 0 1 3.16-8.11 60.54 60.54 0 0 1 9-9.57 93.27 93.27 0 0 0 7.31-7.23 27 27 0 0 0 4.41-7.15 24.17 24.17 0 0 0 1.79-9.68c0-7.62-2.88-13.43-8.82-17.76-6.15-4.48-14.63-6.75-25.21-6.75-8.79 0-16.5 1.5-22.92 4.48a40.91 40.91 0 0 0-8.2 5 5.52 5.52 0 0 0-2.13 4.64 5.46 5.46 0 0 0 2.51 4.38 5.57 5.57 0 0 0 6.7-.53c5.75-5.07 13.28-7.65 22.38-7.65 6.39 0 11.63 1.53 15.57 4.55a15.25 15.25 0 0 1 6.32 12.66 16.19 16.19 0 0 1-3.24 9.88 61.28 61.28 0 0 1-8.5 8.84 66.09 66.09 0 0 0-10.33 11.17 18.7 18.7 0 0 0-3.04 8.83Z"/></g></g></svg>