<svg xmlns="http://www.w3.org/2000/svg" xmlns:xlink="http://www.w3.org/1999/xlink" enable-background="new 0 0 4000 3000" viewBox="0 0 4000 3000"><g><defs><rect id="a" width="4000" height="3000"/></defs><clipPath id="b"><use overflow="visible" xlink:href="#a"/></clipPath><path fill="#1A80FD" stroke="#000" stroke-miterlimit="10" stroke-width="2.6" d="
		M1043.8649,1922.9641c98.39,52.9509,225.0594,85.6897,365.4901,91.6914c0.0602,0.4725,0.0938,0.9448,0.1553,1.4174
		c42.928,329.453,515.2449,539.5187,1054.949,469.1949c514.0256-66.9778,903.7751-364.1433,902.613-676.8993
		c217.6069-102.3154,353.6091-267.79,331.7969-435.1888c-13.8562-106.3414-89.0964-195.6023-202.761-257.6443
		c59.1069-91.2273,86.4368-189.6521,73.5476-288.5711c-42.9277-329.4529-515.2441-539.519-1054.9485-469.1953
		c-342.2141,44.5907-629.2931,191.2238-782.6675,376.5421c-131.9299-20.3763-276.854-22.5421-427.0139-2.9761
		c-539.704,70.3237-942.4205,394.4066-899.4927,723.8596C436.8302,1695.385,696.3856,1872.0791,1043.8649,1922.9641z" clip-path="url(#b)" opacity=".1"/><g clip-path="url(#b)"><g><g><g><g><g><defs><path id="c" d="M1974.2194,797.7802c0-30.6803-24.8367-55.5519-55.4739-55.5519H745.9977
									c-30.6372,0-55.4739,24.8716-55.4739,55.5519v68.1425h1283.6956V797.7802z"/></defs><use fill="#FFF" overflow="visible" xlink:href="#c"/><clipPath id="d"><use overflow="visible" xlink:href="#c"/></clipPath><path fill="#D6DCF2" d="M532.3732,742.2283
								c1415.8066,8.5253,1427.6221-8.3299,1439.5686,150.1852c11.9467,158.5151,41.8132-224.3138,41.8132-224.3138
								l-433.0652-29.9086l-866.1306,50.8445" clip-path="url(#d)"/><use fill="none" stroke="#000" stroke-miterlimit="10" stroke-width="2.6" overflow="visible" xlink:href="#c"/></g><path fill="#FDD504" stroke="#000" stroke-miterlimit="10" stroke-width="2.6" d="M690.5238,865.9227v680.1202
							c0,30.6802,24.8367,55.5518,55.4739,55.5518h1172.7478c30.6372,0,55.4739-24.8716,55.4739-55.5518V865.9227H690.5238z"/></g><g><ellipse cx="760.264" cy="802.597" fill="#E43334" stroke="#000" stroke-miterlimit="10" stroke-width="2.6" rx="15.367" ry="15.388"/><ellipse cx="824.833" cy="802.597" fill="#FDD504" stroke="#000" stroke-miterlimit="10" stroke-width="2.6" rx="15.367" ry="15.388"/><ellipse cx="889.402" cy="802.597" fill="#1AB995" stroke="#000" stroke-miterlimit="10" stroke-width="2.6" rx="15.367" ry="15.388"/></g></g><g><defs><path id="e" d="M1849.9745,1521.2528H814.7688c-12.8383,0-23.2457-10.4075-23.2457-23.2457V957.6976
							c0-12.8383,10.4075-23.2457,23.2457-23.2457h1035.2057c12.8381,0,23.2456,10.4075,23.2456,23.2457v540.3094
							C1873.2201,1510.8453,1862.8126,1521.2528,1849.9745,1521.2528z"/></defs><use fill="#1AB995" overflow="visible" xlink:href="#e"/><use fill="none" stroke="#000" stroke-miterlimit="10" stroke-width="2.6" overflow="visible" xlink:href="#e"/></g><g><ellipse cx="1332.372" cy="1200.817" fill="#FFF" stroke="#000" stroke-miterlimit="10" stroke-width="2.6" rx="171.561" ry="172.016"/><path fill="#FDD504" stroke="#000" stroke-miterlimit="10" stroke-width="2.6" d="M1284.5721,1200.8169v-63.38
						c0-8.3009,8.9624-13.4891,16.1323-9.3386l54.7438,31.6901l54.7438,31.6899c7.1699,4.1505,7.1699,14.5267,0,18.6772
						l-54.7438,31.6901l-54.7438,31.6899c-7.1699,4.1505-16.1323-1.0376-16.1323-9.3386V1200.8169z"/></g></g><path fill="none" stroke="#000" stroke-miterlimit="10" stroke-width="2.6" d="M1750.683,1360.6379
				c-20.1097,21.5183-48.7313,34.833-78.123,36.3428"/><path fill="none" stroke="#000" stroke-miterlimit="10" stroke-width="2.6" d="M1099.6962,817.8056
				c10.4347-3.4065,20.8694-6.813,31.3041-10.2195"/></g><g><g><g><path fill="#1A80FD" stroke="#000" stroke-miterlimit="10" stroke-width="2.6" d="M1519.7983,1127.5166h-18.4982
						c-22.9497,0-41.5541-18.6044-41.5541-41.5542v-55.9489c0-22.9497,18.6044-41.5541,41.5541-41.5541h18.4982
						c22.9497,0,41.5542,18.6044,41.5542,41.5541v55.9489C1561.3525,1108.9122,1542.748,1127.5166,1519.7983,1127.5166z"/><path fill="#1A80FD" stroke="#000" stroke-miterlimit="10" stroke-width="2.6" d="M1519.7983,1287.2629h-18.4982
						c-22.9497,0-41.5541-18.6045-41.5541-41.5542v-55.9489c0-22.9498,18.6044-41.5542,41.5541-41.5542h18.4982
						c22.9497,0,41.5542,18.6044,41.5542,41.5542v55.9489C1561.3525,1268.6584,1542.748,1287.2629,1519.7983,1287.2629z"/></g><g><g><defs><path id="f" d="M2455.8291,2698.9824H1629.291c-79.047,0-143.1273-64.0801-143.1273-143.1272V750.1342
								c0-79.0471,64.0803-143.1273,143.1273-143.1273h826.5381c79.0471,0,143.1274,64.0803,143.1274,143.1273v1805.7209
								C2598.9565,2634.9023,2534.8762,2698.9824,2455.8291,2698.9824z"/></defs><use fill="#FFF" overflow="visible" xlink:href="#f"/><use fill="none" stroke="#000" stroke-miterlimit="10" stroke-width="2.6" overflow="visible" xlink:href="#f"/></g></g><g><defs><path id="g" d="M2411.1416,658.1846h-72.8333c-23.4587,0-42.4756,19.3951-42.4756,43.3204v0.0001
							c0,23.9252-19.0171,43.3204-42.4756,43.3204h-421.5941c-23.4586,0-42.4756-19.3952-42.4756-43.3204v-0.0001
							c0-23.9252-19.017-43.3204-42.4756-43.3204h-72.8331c-72.02,0-130.4037,59.5449-130.4037,132.9971v1692.6974
							c0,73.4521,58.3837,132.9971,130.4037,132.9971h737.1626c72.02,0,130.4036-59.5449,130.4036-132.9971V791.1816
							C2541.5449,717.7294,2483.1614,658.1846,2411.1416,658.1846z"/></defs><use fill="#1AB995" overflow="visible" xlink:href="#g"/><use fill="none" stroke="#000" stroke-miterlimit="10" stroke-width="2.6" overflow="visible" xlink:href="#g"/></g><g><path fill="#FFF" stroke="#000" stroke-miterlimit="10" stroke-width="2.6" d="M2390.491,1765.8921h-695.8617
						c-42.8247,0-77.5409-34.7162-77.5409-77.5409V991.2944c0-42.8246,34.7162-77.5408,77.5409-77.5408h695.8617
						c42.8247,0,77.5408,34.7162,77.5408,77.5408v697.0568C2468.0317,1731.1759,2433.3157,1765.8921,2390.491,1765.8921z"/></g><path fill="#FFF" stroke="#000" stroke-miterlimit="10" stroke-width="2.6" d="M2377.9224,2037.5483h-670.7246
					c-49.766,0-90.1094-40.3434-90.1094-90.1094v-0.1267c0-49.7661,40.3434-90.1095,90.1094-90.1095h670.7246
					c49.7661,0,90.1094,40.3434,90.1094,90.1095v0.1266C2468.0317,1997.205,2427.6885,2037.5483,2377.9224,2037.5483z"/><path fill="#FFF" stroke="#000" stroke-miterlimit="10" stroke-width="2.6" d="M2377.9224,2287.1731h-670.7246
					c-49.766,0-90.1094-40.3435-90.1094-90.1094v-0.1267c0-49.7661,40.3434-90.1096,90.1094-90.1096h670.7246
					c49.7661,0,90.1094,40.3435,90.1094,90.1096v0.1267C2468.0317,2246.8296,2427.6885,2287.1731,2377.9224,2287.1731z"/></g><path fill="none" stroke="#000" stroke-miterlimit="10" stroke-width="2.6" d="M1668.618,801.5997
				c-21.1436,7.8451-39.3114,23.4648-50.2554,43.2066"/><path fill="none" stroke="#000" stroke-miterlimit="10" stroke-width="2.6" d="M2343.4243,2181.2896
				c-21.3596,11.4995-45.3604,18.0437-69.5935,18.9753"/></g><ellipse cx="2785.964" cy="1310.613" fill="#1A80FD" stroke="#000" stroke-miterlimit="10" stroke-width="2.6" rx="158.585" ry="158.808"/><g><g><g><path fill="#FBD164" stroke="#000" stroke-miterlimit="10" stroke-width="2.6" d="M2670.251,728.3332
						c-28.6052,15.185-62.7446,15.7239-91.8135,1.4488l-452.0498-221.9842v485.748c0,26.0422,21.0811,47.1534,47.0872,47.1534
						h861.2993c26.0061,0,47.0872-21.1111,47.0872-47.1534V509.8343L2670.251,728.3332z"/><path fill="#FBD164" stroke="#000" stroke-miterlimit="10" stroke-width="2.6" d="M2670.251,728.3332l411.6104-218.4989
						V457.461c0-26.0416-21.0811-47.1533-47.0872-47.1533h-861.2993c-26.0061,0-47.0872,21.1118-47.0872,47.1533v50.3368
						l452.0498,221.9842C2607.5063,744.0571,2641.6458,743.5182,2670.251,728.3332z"/></g><g><g><defs><ellipse id="h" cx="3081.861" cy="461.676" rx="171.629" ry="171.87"/></defs><use fill="#E43334" overflow="visible" xlink:href="#h"/><clipPath id="i"><use overflow="visible" xlink:href="#h"/></clipPath><path fill="#C11F27" d="M2984.575,234.1248c344.9077,41.643,247.0615,350.7196,149.2153,409.2955
							c-97.8459,58.5759,200.5847-9.8738,200.5847-9.8738l-53.8154-343.7409l-172.6797-55.6808" clip-path="url(#i)"/><use fill="none" stroke="#000" stroke-miterlimit="10" stroke-width="2.6" overflow="visible" xlink:href="#h"/></g><g><path fill="#FFF" stroke="#000" stroke-miterlimit="10" stroke-width="2.6" d="M3107.7163,528.9674h-24.157V422.4682
							l-27.7168,16.074l0.1636-24.1909l34.0425-19.9666h17.8313L3107.7163,528.9674z"/></g></g></g><path fill="none" stroke="#000" stroke-miterlimit="10" stroke-width="2.6" d="M2261.0679,467.2948
				c-7.6086,6.5342-15.217,13.0684-22.8257,19.6026"/><path fill="none" stroke="#000" stroke-miterlimit="10" stroke-width="2.6" d="M2874.323,905.4229
				c-20.6362,5.5194-41.2725,11.0389-61.9084,16.5583"/></g><g><g><g><defs><path id="j" d="M1413.0217,2101.6526c26.5244,110.4624,24.7863,243.5703-19.8816,266.9834
							c-44.668,23.4131-133.4868-62.2288-188.8843-157.5569c-76.5803-131.7795-80.4021-272.1595,0.8643-314.756
							C1286.3864,1853.7266,1376.3551,1948.9519,1413.0217,2101.6526z"/></defs><use fill="#1AB995" overflow="visible" xlink:href="#j"/><clipPath id="k"><use overflow="visible" xlink:href="#j"/></clipPath><path fill="#0FA379" d="M1207.8916,1830.7721
						c-121.7295,368.4523,157.4686,513.6656,157.4686,513.6656l-268.3765-136.5439l2.1643-312.1007" clip-path="url(#k)"/><use fill="none" stroke="#000" stroke-miterlimit="10" stroke-width="2.6" overflow="visible" xlink:href="#j"/></g><g><defs><path id="l" d="M1666.2646,2245.4531c-48.0869,100.4172-130.1948,194.4644-176.4446,175.5222
							s-57.9058-151.3914-39.7145-264.0527c25.1472-155.7404,107.6863-259.4489,191.8306-224.9865
							C1726.0803,1966.3984,1732.739,2106.6389,1666.2646,2245.4531z"/></defs><use fill="#1AB995" overflow="visible" xlink:href="#l"/><clipPath id="m"><use overflow="visible" xlink:href="#l"/></clipPath><path fill="#0FA379" d="M1596.5975,1798.4623
						c223.2711,203.5317-183.6222,574.0765-183.6222,574.0765l101.7234-574.0765" clip-path="url(#m)"/><use fill="none" stroke="#000" stroke-miterlimit="10" stroke-width="2.6" overflow="visible" xlink:href="#l"/></g><g><defs><path id="n" d="M1604.0487,2011.8726c-18.7589,145.551-79.7808,300.6604-141.0859,301.2461
							c-61.3053,0.5859-124.5697-153.3359-145.4382-298.5084c-28.8483-200.683,29.0609-367.6692,140.5962-368.735
							C1569.656,1644.8096,1629.9805,1810.6661,1604.0487,2011.8726z"/></defs><use fill="#1AB995" overflow="visible" xlink:href="#n"/><clipPath id="o"><use overflow="visible" xlink:href="#n"/></clipPath><path fill="#0FA379" d="M1571.3176,1727.7114
						c-277.3802-245.8851-216.1322,435.6938-126.6361,586.8965c89.4961,151.2024-236.7899-221.4226-236.7899-221.4226
						l-48.1425-526.8318l194.7894-15.1715c0,0,170.9817-13.0043,183.9677,8.6694s71.5144,169.0546,71.5144,169.0546" clip-path="url(#o)"/><use fill="none" stroke="#000" stroke-miterlimit="10" stroke-width="2.6" overflow="visible" xlink:href="#n"/></g><g><defs><path id="p" d="M1207.8916,2269.8528l57.9874,408.0447c0,12.3914,77.5037,22.4365,173.1093,22.4365
							c95.6057,0,173.1094-10.0452,173.1094-22.4365l57.9873-408.0447H1207.8916z"/></defs><use fill="#FBD164" overflow="visible" xlink:href="#p"/><clipPath id="q"><use overflow="visible" xlink:href="#p"/></clipPath><path fill="#F9B964" d="M1172.6664,2273.8533
						c616.1803,92.2583,445.9199,332.1133,301.6316,470.8247s167.3745,36.1614,167.3745,36.1614l138.5168-388.7195l-14.4288-199.082
						l-242.4045-18.6699" clip-path="url(#q)"/><use fill="none" stroke="#000" stroke-miterlimit="10" stroke-width="2.6" overflow="visible" xlink:href="#p"/></g><path fill="#FBD164" stroke="#000" stroke-miterlimit="10" stroke-width="2.6" d="M1662.9069,2309.8572H1208.645
					c-19.8705,0-35.9786-16.1082-35.9786-35.9788v-0.0505c0-19.8706,16.1082-35.9788,35.9786-35.9788h454.2618
					c19.8705,0,35.9788,16.1082,35.9788,35.9788v0.0505C1698.8856,2293.749,1682.7773,2309.8572,1662.9069,2309.8572z"/></g><path fill="none" stroke="#000" stroke-miterlimit="10" stroke-width="2.6" d="M1251.1052,2093.5332
				c0.4543,16.3547,5.312,32.5662,13.9246,46.4692"/><path fill="none" stroke="#000" stroke-miterlimit="10" stroke-width="2.6" d="M1545.037,1810.8478
				c10.7765,22.8037,13.6466,49.2638,8.0109,73.8527"/><path fill="none" stroke="#000" stroke-miterlimit="10" stroke-width="2.6" d="M1633.4559,2186.0735
				c-1.4507,2.886-2.9014,5.7717-4.3521,8.6577"/><path fill="none" stroke="#000" stroke-miterlimit="10" stroke-width="2.6" d="M1347.1991,2579.0874
				c18.9451,10.7388,41.8486,14.2766,63.1444,9.7537"/></g><g><g><g><g><defs><polygon id="r" points="930.548 2541.343 895.569 2656.957 815.779 2644.619 858.274 2538.287"/></defs><use fill="#F9C1BB" overflow="visible" xlink:href="#r"/><clipPath id="s"><use overflow="visible" xlink:href="#r"/></clipPath><path fill="#ED707B" d="M768.8909,2605.509c105.0483,18.4802,103.5377-0.7537,136.9493,1.064
							c33.4116,1.8174-49.6458-36.603-49.6458-36.603l-58.1129,16.3479" clip-path="url(#s)"/><use fill="none" stroke="#000" stroke-miterlimit="10" stroke-width="2.6" overflow="visible" xlink:href="#r"/></g><g><g><defs><polygon id="t" points="1351.783 2516.593 1351.783 2653.999 1424.984 2656.957 1420.459 2513.504"/></defs><use fill="#F9C1BB" overflow="visible" xlink:href="#t"/><clipPath id="u"><use overflow="visible" xlink:href="#t"/></clipPath><path fill="#ED707B" d="M1321.7881,2555.6641c51.4253,17.0586,88.7231-0.0779,106.4678,9.2012
								s-0.7098-46.1619-0.7098-46.1619l-58.9121,10.6616" clip-path="url(#u)"/><use fill="none" stroke="#000" stroke-miterlimit="10" stroke-width="2.6" overflow="visible" xlink:href="#t"/></g><g><g><defs><path id="v" d="M1306.8715,2590.7354c75.0297,26.218,151.2452-26.9309,151.2452-26.9309V1460.4532
										l-195.1682,12.8623L1306.8715,2590.7354z"/></defs><use fill="#FDD504" overflow="visible" xlink:href="#v"/><clipPath id="w"><use overflow="visible" xlink:href="#v"/></clipPath><path fill="#FCB006" d="M1314.1523,1631.0459
									c-29.0957,145.4246-10.1268,182.4395-16.2109,335.6862c-6.0842,153.2465-34.9929,179.91-34.9929,179.91l-58.1698-160.6241
									l46.5813-254.0468L1314.1523,1631.0459z" clip-path="url(#w)"/><line x1="1438.922" x2="1427.412" y1="2519.362" y2="1631.999" fill="none" stroke="#FFF" stroke-miterlimit="10" stroke-width="2.6" clip-path="url(#w)"/><path fill="none" stroke="#FFF" stroke-miterlimit="10" stroke-width="2.6" d="
									M1272.3612,2538.2874c122.4635,24.4502,185.7555-31.6011,185.7555-31.6011" clip-path="url(#w)"/><use fill="none" stroke="#000" stroke-miterlimit="10" stroke-width="2.6" overflow="visible" xlink:href="#v"/></g><g><g><linearGradient id="x" x1="1425.385" x2="1425.385" y1="1286.313" y2="1275.169" gradientUnits="userSpaceOnUse"><stop offset="0" stop-color="#00ebbe"/><stop offset="1" stop-color="#00e2c9"/></linearGradient><path fill="url(#x)" d="M1473.5111,1329.9059c4.5728-61.8289-96.4038-198.598-96.4038-198.598l21.3038,151.9657"/></g><g><defs><path id="y" d="M1562.0513,1071.5184c18.6549,3.0071,11.0699,45.6356,11.0699,45.6356
											s68.2648-75.8824,70.1097-85.4341s23.8905-1.5914-23.858,59.0637c0,0,30.1003,19.5985,28.2552,27.0275
											c-1.845,7.4291-34.5321,49.2576-44.3721,56.4043l-167.2793,244.8765l-37.5657-105.7546
											c0,0,154.4152-144.7104,155.6451-155.3234c1.2301-10.613-10.5343-23.439,3.0751-50.9421
											C1563.1821,1094.8436,1562.0513,1071.5184,1562.0513,1071.5184z"/></defs><use fill="#F9C1BB" overflow="visible" xlink:href="#y"/><clipPath id="z"><use overflow="visible" xlink:href="#y"/></clipPath><path fill="#ED707B" d="M1476.1575,1174.2155
										c-11.8907,99.4794-2.5437,183.1394,6.1492,244.8765s-92.371,48.5376-92.371,48.5376l8.4755-154.2922l50.8402-89.625" clip-path="url(#z)"/><use fill="none" stroke="#000" stroke-miterlimit="10" stroke-width="2.6" overflow="visible" xlink:href="#y"/></g></g><polygon fill="#F9C1BB" stroke="#000" stroke-miterlimit="10" stroke-width="2.6" points="1445.407 1206.48 1482.307 1256.248 1458.117 1311.227 1413.837 1277.232"/><g><defs><path id="A" d="M1413.8369,1440.3177l-220.672,15.2041L793.0874,2576.2319
										c57.8772,43.6821,171.9965,35.4563,171.9965,35.4563l354.4432-925.1954"/></defs><use fill="#FDD504" overflow="visible" xlink:href="#A"/><clipPath id="B"><use overflow="visible" xlink:href="#A"/></clipPath><path fill="#FCB006" d="M960.3284,1838.0157
									c173.6954-36.5671,146.009-223.2759,269.9076-232.5668s159.6997-62.8954,159.6997-62.8954l-225.1812-7.4478l-30.7307,8.9104
									l-106.1472,154.3977l-19.2995,69.3929" clip-path="url(#B)"/><line x1="827.986" x2="1215.554" y1="2529.074" y2="1505.94" fill="none" stroke="#FFF" stroke-miterlimit="10" stroke-width="2.6" clip-path="url(#B)"/><path fill="none" stroke="#FFF" stroke-miterlimit="10" stroke-width="2.6" d="
									M793.0874,2498.5527c41.4174,67.2864,202.3831,55.4558,202.3831,55.4558" clip-path="url(#B)"/><use fill="none" stroke="#000" stroke-miterlimit="10" stroke-width="2.6" overflow="visible" xlink:href="#A"/></g><g><defs><path id="C" d="M1387.6904,1103.8701c-2.9381-6.3279-5.8477-12.0121-8.7139-16.9496"/></defs><use fill="#1A80FD" overflow="visible" xlink:href="#C"/><clipPath id="D"><use overflow="visible" xlink:href="#C"/></clipPath><ellipse cx="1254.569" cy="1070.154" fill="#F9C1BB" stroke="#000" stroke-miterlimit="10" stroke-width="2.6" clip-path="url(#D)" rx="38.841" ry="81.466" transform="rotate(-80.689 1254.586 1070.183)"/><path fill="#1D62FC" d="M1156.5399,1174.2155
									c-9.6498,181.3081,57.6422,172.9818,141.4015,148.0032l5.8525,50.1249c0,0-219.5968,216.3142-0.0802,180.2339
									c219.5165-36.0802,71.5537,80.4868,71.5537,80.4868s-357.0406,19.6674-365.082-22.0835
									c-8.0415-41.7509-14.0178-236.0293-14.0178-236.0293l134.6396-106.8533l13.1932-44.3859" clip-path="url(#D)"/><use fill="none" stroke="#000" stroke-miterlimit="10" stroke-width="2.6" overflow="visible" xlink:href="#C"/></g><g><defs><path id="E" d="M1447.0804,1290.2069c16.316-27.7898,29.0774-57.1748,29.0774-57.1748
										c-12.9841-28.6797-86.049-131.4475-102.365-154.2645c-0.0538-0.0743-0.105-0.1462-0.1588-0.2206
										c-1.9694-2.757-3.1218-4.356-3.1218-4.356l-0.2484,0.1475c-3.9669-4.7213-7.8289-7.8937-11.5142-8.7863
										c-15.7808-3.8251-205.2603-6.6986-242.1614,6.0358c-0.0026,0.0347-0.0051,0.0782-0.0077,0.1141
										c-67.5895,3.0801-120.4123,362.4854-120.4123,362.4854l119.7259-52.4572c2.2896,96.5243,5.25,176.0942,5.25,176.0942
										c143.5354,25.4714,338.9,3.1724,369.8546-76.9951C1490.9988,1480.8295,1472.214,1388.0713,1447.0804,1290.2069z"/></defs><use fill="#1A80FD" overflow="visible" xlink:href="#E"/><clipPath id="F"><use overflow="visible" xlink:href="#E"/></clipPath><g clip-path="url(#F)"><g opacity=".29"><rect width="61.798" height="1119.75" x="800.183" y="755.189" fill="#485065" stroke="#000" stroke-miterlimit="10" stroke-width="2.6"/><rect width="61.798" height="1119.75" x="918.041" y="755.189" fill="#485065" stroke="#000" stroke-miterlimit="10" stroke-width="2.6"/><rect width="61.798" height="1119.75" x="1035.898" y="755.189" fill="#485065" stroke="#000" stroke-miterlimit="10" stroke-width="2.6"/><rect width="61.798" height="1119.75" x="1153.756" y="755.189" fill="#485065" stroke="#000" stroke-miterlimit="10" stroke-width="2.6"/><rect width="61.798" height="1119.75" x="1271.613" y="755.189" fill="#485065" stroke="#000" stroke-miterlimit="10" stroke-width="2.6"/><rect width="61.798" height="1119.75" x="1389.471" y="755.189" fill="#485065" stroke="#000" stroke-miterlimit="10" stroke-width="2.6"/><rect width="61.798" height="1119.75" x="1507.328" y="755.189" fill="#485065" stroke="#000" stroke-miterlimit="10" stroke-width="2.6"/><rect width="61.798" height="1119.75" x="1625.186" y="755.189" fill="#485065" stroke="#000" stroke-miterlimit="10" stroke-width="2.6"/></g><g opacity=".27"><rect width="61.885" height="1118.18" x="1212.641" y="342.894" fill="#485065" stroke="#000" stroke-miterlimit="10" stroke-width="2.6" transform="rotate(90 1243.583 901.984)"/><rect width="61.885" height="1118.18" x="1212.641" y="460.917" fill="#485065" stroke="#000" stroke-miterlimit="10" stroke-width="2.6" transform="rotate(90 1243.584 1020.007)"/><rect width="61.885" height="1118.18" x="1212.641" y="578.94" fill="#485065" stroke="#000" stroke-miterlimit="10" stroke-width="2.6" transform="rotate(90 1243.583 1138.03)"/><rect width="61.885" height="1118.18" x="1212.641" y="696.963" fill="#485065" stroke="#000" stroke-miterlimit="10" stroke-width="2.6" transform="rotate(90 1243.583 1256.053)"/><rect width="61.885" height="1118.18" x="1212.641" y="814.986" fill="#485065" stroke="#000" stroke-miterlimit="10" stroke-width="2.6" transform="rotate(90 1243.584 1374.076)"/><rect width="61.885" height="1118.18" x="1212.641" y="933.009" fill="#485065" stroke="#000" stroke-miterlimit="10" stroke-width="2.6" transform="rotate(90 1243.584 1492.099)"/><rect width="61.885" height="1118.18" x="1212.641" y="1051.032" fill="#485065" stroke="#000" stroke-miterlimit="10" stroke-width="2.6" transform="rotate(90 1243.584 1610.122)"/><rect width="61.885" height="1118.18" x="1212.641" y="1169.055" fill="#485065" stroke="#000" stroke-miterlimit="10" stroke-width="2.6" transform="rotate(90 1243.583 1728.145)"/></g></g><ellipse cx="1253.364" cy="1068.694" fill="#F9C1BB" stroke="#000" stroke-miterlimit="10" stroke-width="2.6" clip-path="url(#F)" rx="59.348" ry="98.392" transform="rotate(-62.115 1253.385 1068.68)"/><path fill="#485065" d="M1490.9988,1388.0746
									c-23.6156,181.8954-326.7129,143.8295-371.572-73.01l0,0l-15.9646,209.0619l-15.6038,122.7424l291.1182,4.4364
									l125.1792-168.5859L1490.9988,1388.0746z" clip-path="url(#F)" opacity=".33"/><path fill="#1A80FD" stroke="#000" stroke-miterlimit="10" stroke-width="2.6" d="
									M1387.6904,1165.265c0,0,55.2373,105.0159,69.3269,164.6409" clip-path="url(#F)"/><use fill="none" stroke="#000" stroke-miterlimit="10" stroke-width="2.6" overflow="visible" xlink:href="#E"/></g><path fill="#485065" stroke="#000" stroke-miterlimit="10" stroke-width="2.6" d="M671.7145,2708.293
								c0,0,4.925-32.9998,58.2795-31.322c53.3545,1.678,83.5778-41.6094,83.5778-41.6094l90.7607-0.792l-11.7454,68.1062
								c-0.6265,3.6331-4.0751,6.3062-8.1186,6.2935L671.7145,2708.293z"/><path fill="#485065" stroke="#000" stroke-miterlimit="10" stroke-width="2.6" d="M1554.9818,2709.5071
								c0,0,6.6658-33.5432-47.2782-31.8376s-68.963-42.2944-68.963-42.2944l-90.4827-0.8049l-12.1761,69.2273
								c-0.6495,3.6929,1.8601,6.4102,5.9081,6.397L1554.9818,2709.5071z"/><g><defs><path id="G" d="M1426.1406,1182.3638l-31.6976,149.7159c-0.7211,3.4056,2.7141,6.4508,6.978,6.1858l66.3809-4.1254
										c2.8837-0.1793,5.2419-1.9282,5.7092-4.2343l30.576-150.8888c0.5287-2.6093-2.0686-4.9432-5.3361-4.7949l-65.4401,2.9703
										C1429.7212,1177.3553,1426.7469,1179.5005,1426.1406,1182.3638z"/></defs><use fill="#FFF" overflow="visible" xlink:href="#G"/><clipPath id="H"><use overflow="visible" xlink:href="#G"/></clipPath><path fill="#D6DCF2" d="M1401.5769,1236.3761c53.9014,22.9218,56.3185,28.2449,62.6898,37.3187
									s-29.4629,69.4387-29.4629,69.4387l-101.3925-13.2277l52.6803-71.0526" clip-path="url(#H)"/><use fill="none" stroke="#000" stroke-miterlimit="10" stroke-width="2.6" overflow="visible" xlink:href="#G"/></g><line x1="1122.316" x2="1116.538" y1="1223.712" y2="1407.764" fill="#1A80FD" stroke="#000" stroke-miterlimit="10" stroke-width="2.6"/><g><defs><path id="I" d="M1328.9673,1299.1659c9.6044-0.1764,61.3639-51.5437,76.1239-47.2986
										c14.7599,4.2452,57.9456,11.2146,59.1755,21.8275s-14.7539,38.1671-19.059,41.3696
										c-4.3049,3.2025-51.0508,12.7563-57.8157,14.8789c-6.765,2.1226-276.1338,149.6423-348.7035,136.9067
										C966.1189,1454.1146,943.979,1368.1499,1328.9673,1299.1659z"/></defs><use fill="#F9C1BB" overflow="visible" xlink:href="#I"/><clipPath id="J"><use overflow="visible" xlink:href="#I"/></clipPath><path fill="#ED707B" d="M1152.5317,1325.2224
									c-182.7972,128.7291-133.1122,144.3663-82.0077,154.3173c51.1045,9.9509-166.0898,48.3333-166.0898,48.3333l5.6783-120.833
									l92.2721-68.2722" clip-path="url(#J)"/><use fill="none" stroke="#000" stroke-miterlimit="10" stroke-width="2.6" overflow="visible" xlink:href="#I"/></g></g></g></g><g><g><defs><path id="K" d="M1205.8557,1070.1537l-4.7949-112.1729l90.8368,13.1721
								c1.027,12.9037,17.2133,99.0007,17.2133,99.0007"/></defs><use fill="#F9C1BB" overflow="visible" xlink:href="#K"/><clipPath id="L"><use overflow="visible" xlink:href="#K"/></clipPath><path fill="#ED707B" d="M1328.8143,1099.5905c-35.9744-48.6877-73.7285-110.059-73.7285-110.059
							l55.625-11.5366l28.3035,53.7119l13.2158,20.312" clip-path="url(#L)"/><use fill="none" stroke="#000" stroke-miterlimit="10" stroke-width="2.6" overflow="visible" xlink:href="#K"/></g><g><defs><path id="M" d="M1256.3619,1005.9574c30.4275,6.1811,79.0739,13.671,87.9196,0.617
								c39.1943-57.8413-13.1896-169.9005-18.5658-175.5896c-5.3762-5.6891-95.4738,10.4325-108.4908,29.9576
								c-8.1235,12.185-0.5275,63.4663,6.3318,100.3005"/></defs><use fill="#F9C1BB" overflow="visible" xlink:href="#M"/><use fill="none" stroke="#000" stroke-miterlimit="10" stroke-width="2.6" overflow="visible" xlink:href="#M"/></g><path fill="#485065" stroke="#000" stroke-miterlimit="10" stroke-width="2.6" d="M1244.8978,958.3739
						c-19.7174,19.4044-64.6624,15.9854-64.6624,15.9854s-17.3074-107.6911,14.0323-110.2664s217.0638-70.4575,220.151-59.963
						c3.087,10.4946-40.7341,72.6732-74.2631,66.1043c0,0-28.5,72.5649-76.6621,72.1948
						C1215.3314,942.0588,1244.8978,958.3739,1244.8978,958.3739z"/><path fill="#F9C1BB" stroke="#000" stroke-miterlimit="10" stroke-width="2.6" d="M1276.5132,944.797
						c-56.322-52.9562-99.8967-1.962-33.884,33.376"/><g><defs><path id="N" d="M1175.4778,892.1818c0,0-48.5681-156.1419,168.5559-64.7437L1175.4778,892.1818z"/></defs><use fill="#485065" overflow="visible" xlink:href="#N"/><clipPath id="O"><use overflow="visible" xlink:href="#N"/></clipPath><rect width="52.703" height="23.657" x="1148.363" y="853.362" fill="#485065" stroke="#000" stroke-miterlimit="10" stroke-width="2.6" clip-path="url(#O)" transform="rotate(-21.421 1174.799 865.239)"/><use fill="none" stroke="#000" stroke-miterlimit="10" stroke-width="2.6" overflow="visible" xlink:href="#N"/></g><path fill="#485065" stroke="#000" stroke-miterlimit="10" stroke-width="2.6" d="M1319.5271,816.5245
						c0,0,111.653-57.0157,135.9791-32.3065c24.3262,24.7093-129.3654,47.0863-129.3654,47.0863L1319.5271,816.5245z"/></g></g><g><g><path d="M1337.1748,936.7108L1337.1748,936.7108c-2.9668,1.3633-6.7604-0.3749-8.473-3.8824l-5.2374-10.7262
						c-1.7128-3.5076-0.696-7.4562,2.2708-8.8195l0,0c2.9668-1.3633,6.7604,0.3749,8.473,3.8825l5.2375,10.7261
						C1341.1583,931.3989,1340.1417,935.3475,1337.1748,936.7108z"/><path d="M1320.4095,887.5314c-22.9034,9.4116-23.4642,20.7473-8.7517,15.7704
						C1326.3705,898.3248,1335.3734,881.3824,1320.4095,887.5314z"/><g><path fill="#F9C1BB" stroke="#000" stroke-miterlimit="10" stroke-width="2.6" d="M1348.7372,907.0728
							c31.6609,18.5231,25.5496,35.3588,5.965,39.2037"/></g></g><ellipse cx="1297.626" cy="956.669" fill="#ED707B" opacity=".27" rx="20.955" ry="9.998"/><g><path fill="#F9C1BB" stroke="#BA424D" stroke-miterlimit="10" stroke-width="2.6" d="M1323.7665,963.3777
						c14.9167,9.1528,28.1117,1.4163,28.1117,1.4163"/></g><path fill="none" stroke="#000" stroke-miterlimit="10" stroke-width="2.6" d="M1239.5961,941.0278
					c-3.8733,5.6428-3.3418,8.5447-0.1487,11.2856"/></g><path fill="#FDD504" stroke="#000" stroke-miterlimit="10" stroke-width="2.6" d="M1373.7739,1574.0693
				c2.6442,49.325,81.4207,64.6885,81.4207,64.6885"/><path fill="none" stroke="#000" stroke-miterlimit="10" stroke-width="2.6" d="M1042.5502,2089.9609
				c24.2373,5.3569,49.5455,5.8062,73.9572,1.313"/><path fill="none" stroke="#000" stroke-miterlimit="10" stroke-width="2.6" d="M1352.8816,2094.7517
				c20.4033-4.0869,41.233-6.0364,62.0393-5.8059"/><path fill="none" stroke="#000" stroke-miterlimit="10" stroke-width="2.6" d="M1234.7389,893.9157
				c-10.1667,1.7206-20.1115,4.7521-29.5111,8.9959"/><path fill="none" stroke="#000" stroke-miterlimit="10" stroke-width="2.6" d="M1166.8271,1383.5183
				c-0.9845,0.9858-1.969,1.9717-2.9535,2.9576"/></g><g><g><g><defs><path id="P" d="M2248.7522,1322.8317c0-22.4852-13.553-41.3201-31.8699-46.6876
							c-0.1301-0.05-0.5942-0.1028-1.3652-0.1028h-93.4248c-0.3591,0-0.5649-1.8173-0.4893-2.1409
							c13.5532-43.5647,6.8806-84.407,6.6226-85.7488c-0.0273-0.0275-0.0273-0.0652-0.0273-0.0905
							c0-26.6522-19.0122-48.2356-42.4595-48.2356c-21.7463,0-39.6007,18.5128-42.1757,42.4033h-0.0273
							c-8.5797,80.8481-63.3297,104.9723-75.6462,109.4354c-0.0752,0.0253-0.1532,0-0.2285,0c-0.7227-0.1411-1.4705,0-2.2432,0
							h-57.4556c-8.5039,0-15.3823,7.7145-15.3823,17.3513v200.499c0,9.6749,6.8784,16.681,15.3823,16.681h264.7572
							c1.4958,0.1577,3.0164,0,4.5369,0c28.0054,0,37.6936-26.2404,37.6936-26.2404
							c3.0669-6.6565,31.9226-163.0863,31.9226-163.0863h0.0247c0.542-2.0907,0.9539-4.2843,1.2395-6.4762l0.1279-0.7108v-0.0505
							C2248.5486,1327.4104,2248.7522,1325.1265,2248.7522,1322.8317"/></defs><use fill="#FDD504" overflow="visible" xlink:href="#P"/><clipPath id="Q"><use overflow="visible" xlink:href="#P"/></clipPath><path fill="#FBB006" d="M1950.4556,1380.9281c30.7729-38.5201,38.4662,167.5627,155.7878,167.5627
						c117.3218,0-202.6598,38.5201-202.6598,38.5201l8.4059-138.6726" clip-path="url(#Q)"/><use fill="none" stroke="#000" stroke-miterlimit="10" stroke-width="2.6" overflow="visible" xlink:href="#P"/></g><g><g><defs><path id="R" d="M1956.3154,1539.8201h-105.4637c-7.9991,0-14.4839-6.4846-14.4839-14.4839V1278.34
								c0-7.9991,6.4847-14.4838,14.4839-14.4838h105.4637c7.9993,0,14.4839,6.4846,14.4839,14.4838v246.9962
								C1970.7993,1533.3354,1964.3147,1539.8201,1956.3154,1539.8201z"/></defs><use fill="#1A80FD" overflow="visible" xlink:href="#R"/><clipPath id="S"><use overflow="visible" xlink:href="#R"/></clipPath><path fill="#1D62FC" d="M1827.9067,1401.8381
							c7.4779-153.0627,93.8188-130.3896,128.4189-137.9819c34.6-7.5923-119.9579-49.5452-119.9579-49.5452l-21.9214,22.4829
							l-13.3524,73.8192" clip-path="url(#S)"/><use fill="none" stroke="#000" stroke-miterlimit="10" stroke-width="2.6" overflow="visible" xlink:href="#R"/></g><ellipse cx="1903.584" cy="1333.046" fill="#FFF" stroke="#000" stroke-miterlimit="10" stroke-width="2.6" rx="22.401" ry="22.433"/></g></g><path fill="none" stroke="#000" stroke-miterlimit="10" stroke-width="2.6" d="M2143.0205,1420.3488
				c-9.1841,19.6807-25.2925,36.0363-44.8167,45.5046"/><path fill="none" stroke="#000" stroke-miterlimit="10" stroke-width="2.6" d="M1867.5398,1430.7445
				c0,4.493,0,8.9861,0,13.4791"/></g><g><g><g><defs><path id="T" d="M3007.8679,2662.5535c301.8242-369.8396-414.926-582.5225-301.5828-1063.3137
							c0,0-80.4731,3.5323-99.5759,37.9657c0,0-80.2319-73.9679-141.3608-14.0284c0,0-36.9321-19.1296-52.2144-11.4778
							c0,0-43.2996,45.9111,0,149.2112c43.2998,103.2999-180.8398,251.2357,63.676,807.2703
							c20.3762,38.2593-71.3171,94.3728-45.8467,130.0813h539.9497C2990.822,2698.262,3007.1572,2682.4775,3007.8679,2662.5535
							L3007.8679,2662.5535z"/></defs><use fill="#FDD504" overflow="visible" xlink:href="#T"/><clipPath id="U"><use overflow="visible" xlink:href="#T"/></clipPath><path fill="#FCB006" d="M2930.5676,2182.395
						c-388.8125-92.1104-324.7476,381.3171-324.7476,381.3171s-189.436,16.2603-100.9924,229.5554
						c71.7083,172.9363,185.0447,35.7087,205.4211,35.7087c20.3762,0,336.2092-89.2715,341.3032-102.0247
						c5.0942-12.7532,34.5981-505.0222,34.5981-505.0222" clip-path="url(#U)"/><path fill="#FCB006" stroke="#000" stroke-miterlimit="10" stroke-width="2.6" d="
						M2740.835,2075.6921c102.2891-13.2083,103.1299-71.9224,195.5073-115.4474c92.3774-43.5251,90.3479-177.7891-35.5525-169.0795
						c-125.9006,8.7096-84.8853,95.1062-194.9636,99.5844S2591.4685,2094.9795,2740.835,2075.6921z" clip-path="url(#U)"/><path fill="#FCB006" stroke="#000" stroke-miterlimit="10" stroke-width="2.6" d="
						M2380.7114,2148.0151c57.3811-7.4094,57.853-40.3464,109.6741-64.7627c51.8213-24.4163,50.6826-99.7346-19.9441-94.8488
						c-70.6265,4.8857-47.6182,53.3518-109.3689,55.864C2299.3215,2046.7798,2296.9209,2158.8347,2380.7114,2148.0151z" clip-path="url(#U)"/><path fill="#FCB006" stroke="#000" stroke-miterlimit="10" stroke-width="2.6" d="
						M2650.1035,1700.5859c57.3813-7.4094,57.853-40.3463,109.6741-64.7627c51.8213-24.4164,50.6826-99.7346-19.9441-94.8488
						c-70.6265,4.8857-47.6179,53.3519-109.3689,55.864S2566.3132,1711.4056,2650.1035,1700.5859z" clip-path="url(#U)"/><path fill="#FCB006" stroke="#000" stroke-miterlimit="10" stroke-width="2.6" d="
						M2360.0183,2519.334c57.3813-7.4094,57.853-40.3464,109.6743-64.7627c51.821-24.4163,50.6826-99.7346-19.9441-94.8489
						c-70.6267,4.886-47.6182,53.3521-109.3689,55.864C2278.6287,2418.0986,2276.228,2530.1536,2360.0183,2519.334z" clip-path="url(#U)"/><use fill="none" stroke="#000" stroke-miterlimit="10" stroke-width="2.6" overflow="visible" xlink:href="#T"/></g><g><defs><path id="V" d="M3310.0547,1887.3717c-367.6191,138.6365,37.9792,709.399-283.0684,750.0145l-71.3328,60.8757
							c544.571-86.9717,42.1514-570.3655,366.6833-787.3918C3335.4692,1902.0881,3324.8328,1881.7986,3310.0547,1887.3717z"/></defs><use fill="#FDD504" overflow="visible" xlink:href="#V"/><clipPath id="W"><use overflow="visible" xlink:href="#V"/></clipPath><path fill="#FCB006" stroke="#000" stroke-miterlimit="10" stroke-width="2.6" d="
						M3197.7944,2290.561c102.2891-13.2085,103.1301-71.9224,195.5076-115.4475s90.3477-177.7889-35.5527-169.0793
						c-125.9004,8.7095-84.885,95.1062-194.9634,99.5842C3052.7073,2110.0967,3048.428,2309.8484,3197.7944,2290.561z" clip-path="url(#W)"/><path fill="#FCB006" stroke="#000" stroke-miterlimit="10" stroke-width="2.6" d="
						M3169.7771,2757.3237c102.2891-13.2083,103.1299-71.9221,195.5073-115.4473s90.3479-177.7891-35.5525-169.0793
						c-125.9006,8.7095-84.8853,95.1062-194.9636,99.5842S3020.4106,2776.6111,3169.7771,2757.3237z" clip-path="url(#W)"/><path fill="#FCB006" stroke="#000" stroke-miterlimit="10" stroke-width="2.6" d="
						M3348.0698,1963.2927c102.2891-13.2084,103.1299-71.9224,195.5076-115.4474c92.3774-43.5251,90.3477-177.7891-35.5527-169.0795
						s-84.885,95.1062-194.9636,99.5844C3202.9827,1782.8284,3198.7034,1982.5801,3348.0698,1963.2927z" clip-path="url(#W)"/><use fill="none" stroke="#000" stroke-miterlimit="10" stroke-width="2.6" overflow="visible" xlink:href="#V"/></g><g><defs><path id="X" d="M2896.397,2133.3345c3.1575,2.5161,9.1106,12.646,12.3455,15.4165
							c248.9019,213.1755,178.4434,416.8831,128.4495,504.5115c-16.0317,28.1001-45.7515,45.5388-78.0483,46.688l-453.1631-1.6885
							c0,0-23.6919-144.7522,133.8401-91.822c0,0-15.0232-292.5876,60.8459-411.3826"/></defs><use fill="#FDD504" overflow="visible" xlink:href="#X"/><clipPath id="Y"><use overflow="visible" xlink:href="#X"/></clipPath><path fill="#FCB006" stroke="#000" stroke-miterlimit="10" stroke-width="2.6" d="
						M2851.74,2322.5518c72.1472,78.1914,121.9187,43.8486,213.5889,95.6013s203.125-30.1067,120.658-130.8528
						c-82.4673-100.7461-130.4814-14.6555-199.9526-104.6133S2746.3882,2208.3738,2851.74,2322.5518z" clip-path="url(#Y)"/><path fill="#FCB006" stroke="#000" stroke-miterlimit="10" stroke-width="2.6" d="
						M2720.6714,2927.3403c105.4377-13.615,106.3047-74.1362,201.5256-119.001c95.2212-44.865,93.1289-183.2617-36.647-174.2842
						c-129.7759,8.9778-87.498,98.0337-200.9648,102.6497S2566.7073,2947.2214,2720.6714,2927.3403z" clip-path="url(#Y)"/><use fill="none" stroke="#000" stroke-miterlimit="10" stroke-width="2.6" overflow="visible" xlink:href="#X"/></g><g><defs><path id="Z" d="M2482.1763,1662.2227c37.4846,52.2156,73.0271,39.7179,86.5806,31.9276
							c3.4629-1.9904,4.7336-6.2982,2.7202-9.7511c-8.5037-14.5826-35.198-50.2421-85.5801-33.0096
							C2481.4099,1652.9242,2479.4087,1658.3673,2482.1763,1662.2227z"/></defs><use fill="#FFF" overflow="visible" xlink:href="#Z"/><clipPath id="aa"><use overflow="visible" xlink:href="#Z"/></clipPath><ellipse cx="2553.151" cy="1685.874" fill="#485065" stroke="#000" stroke-miterlimit="10" stroke-width="2.6" clip-path="url(#aa)" rx="36.828" ry="31.819" transform="rotate(-89.742 2553.203 1685.84)"/><use fill="none" stroke="#000" stroke-miterlimit="10" stroke-width="2.6" overflow="visible" xlink:href="#Z"/></g><g><line x1="2604.547" x2="2473.618" y1="1755.607" y2="1681.044" fill="none" stroke="#000" stroke-miterlimit="10" stroke-width="2.6"/><line x1="2571.484" x2="2469.024" y1="1790.761" y2="1684.946" fill="none" stroke="#000" stroke-miterlimit="10" stroke-width="2.6"/><line x1="2541.755" x2="2463.43" y1="1821.483" y2="1690.857" fill="none" stroke="#000" stroke-miterlimit="10" stroke-width="2.6"/></g></g><path fill="none" stroke="#000" stroke-miterlimit="10" stroke-width="2.6" d="M2482.7375,2210.8276
				c16.0962,9.6082,35.9385,12.7197,54.197,8.4988"/><path fill="none" stroke="#000" stroke-miterlimit="10" stroke-width="2.6" d="M2840.0889,2447.0654
				c0.4646,24.8613,14.4751,49.052,35.7935,61.8015"/><path fill="none" stroke="#000" stroke-miterlimit="10" stroke-width="2.6" d="M2625.384,1817.6824
				c-4.5183,10.7957-11.5127,20.5435-20.2888,28.2753"/></g></g></g></svg>