<svg xmlns="http://www.w3.org/2000/svg" enable-background="new 0 0 2202.42 1853.71" viewBox="0 0 2202.42 1853.71"><g><g opacity=".5"><ellipse cx="1208.24" cy="1563.56" fill="#141723" opacity="0" rx="994.18" ry="290.15"/><ellipse cx="1204.29" cy="1563.56" fill="#141723" opacity=".032" rx="968.4" ry="282.63"/><ellipse cx="1200.35" cy="1563.56" fill="#141723" opacity=".065" rx="942.62" ry="275.1"/><ellipse cx="1196.4" cy="1563.56" fill="#141723" opacity=".097" rx="916.83" ry="267.58"/><ellipse cx="1192.46" cy="1563.56" fill="#141723" opacity=".129" rx="891.05" ry="260.05"/><ellipse cx="1188.51" cy="1563.56" fill="#141723" opacity=".161" rx="865.27" ry="252.53"/><ellipse cx="1184.57" cy="1563.56" fill="#141723" opacity=".194" rx="839.48" ry="245"/><ellipse cx="1180.63" cy="1563.56" fill="#141723" opacity=".226" rx="813.7" ry="237.48"/><ellipse cx="1176.68" cy="1563.56" fill="#141723" opacity=".258" rx="787.91" ry="229.95"/><ellipse cx="1172.74" cy="1563.56" fill="#141723" opacity=".29" rx="762.13" ry="222.43"/><ellipse cx="1168.79" cy="1563.56" fill="#141723" opacity=".323" rx="736.35" ry="214.9"/><ellipse cx="1164.85" cy="1563.56" fill="#141723" opacity=".355" rx="710.56" ry="207.38"/><ellipse cx="1160.9" cy="1563.56" fill="#141723" opacity=".387" rx="684.78" ry="199.85"/><ellipse cx="1156.96" cy="1563.56" fill="#141723" opacity=".419" rx="659" ry="192.33"/><ellipse cx="1153.01" cy="1563.56" fill="#141723" opacity=".452" rx="633.21" ry="184.8"/><ellipse cx="1149.07" cy="1563.56" fill="#141723" opacity=".484" rx="607.43" ry="177.28"/><ellipse cx="1145.12" cy="1563.56" fill="#141723" opacity=".516" rx="581.65" ry="169.75"/><ellipse cx="1141.18" cy="1563.56" fill="#141723" opacity=".548" rx="555.86" ry="162.23"/><ellipse cx="1137.23" cy="1563.56" fill="#141723" opacity=".581" rx="530.08" ry="154.7"/><ellipse cx="1133.29" cy="1563.56" fill="#141723" opacity=".613" rx="504.29" ry="147.18"/><ellipse cx="1129.34" cy="1563.56" fill="#141723" opacity=".645" rx="478.51" ry="139.65"/><ellipse cx="1125.4" cy="1563.56" fill="#141723" opacity=".677" rx="452.73" ry="132.13"/><ellipse cx="1121.45" cy="1563.56" fill="#141723" opacity=".71" rx="426.94" ry="124.6"/><ellipse cx="1117.51" cy="1563.56" fill="#141723" opacity=".742" rx="401.16" ry="117.08"/><ellipse cx="1113.56" cy="1563.56" fill="#141723" opacity=".774" rx="375.38" ry="109.55"/><ellipse cx="1109.62" cy="1563.56" fill="#141723" opacity=".806" rx="349.59" ry="102.03"/><ellipse cx="1105.68" cy="1563.56" fill="#141723" opacity=".839" rx="323.81" ry="94.5"/><ellipse cx="1101.73" cy="1563.56" fill="#141723" opacity=".871" rx="298.02" ry="86.98"/><ellipse cx="1097.79" cy="1563.56" fill="#141723" opacity=".903" rx="272.24" ry="79.45"/><ellipse cx="1093.84" cy="1563.56" fill="#141723" opacity=".935" rx="246.46" ry="71.93"/><ellipse cx="1089.9" cy="1563.56" fill="#141723" opacity=".968" rx="220.67" ry="64.4"/><ellipse cx="1085.95" cy="1563.56" fill="#141723" rx="194.89" ry="56.88"/></g><g><g><path fill="#616161" d="M2018.31,1522.66c2.22,116.18-353.55,201.59-794.63,190.77c-441.09-10.82-800.46-113.78-802.68-229.96
				c-2.22-116.18,350.18-299.67,791.27-288.85S2016.08,1406.48,2018.31,1522.66z"/><linearGradient id="a" x1="564.425" x2="1316.058" y1="1436.773" y2="1436.773" gradientTransform="matrix(2.1547 .0917 -.1406 1.1954 -610.875 -354.754)" gradientUnits="userSpaceOnUse"><stop offset="0" stop-color="#cbcbd6"/><stop offset="1" stop-color="#f9faf9"/></linearGradient><path fill="url(#a)" d="M2018.22,1518.08c2.22,116.18-353.55,201.59-794.63,190.77c-441.09-10.82-800.46-113.78-802.68-229.96
				c-0.2-10.33-9.82-162.44-4.55-172.24c54.02-100.39,393.96-126.47,795.82-116.61c395.88,9.71,736.06,53.11,801.16,154.21
				C2020.77,1355.79,2017.99,1506.17,2018.22,1518.08z"/><linearGradient id="b" x1="1904.99" x2="1653.952" y1="-76.091" y2="-76.091" gradientTransform="matrix(5.2969 .1299 .0485 2.5364 -8119.75 1291.378)" gradientUnits="userSpaceOnUse"><stop offset="0" stop-color="#cbcbd6"/><stop offset="1" stop-color="#f9faf9"/></linearGradient><path fill="url(#b)" d="M2013.46,1347.02c2.22,116.18-353.55,201.59-794.63,190.77c-441.09-10.82-800.46-113.78-802.68-229.96
				c-2.22-116.18,353.55-201.59,794.63-190.77C1651.86,1127.89,2011.23,1230.84,2013.46,1347.02z"/><linearGradient id="c" x1="1612.197" x2="1913.754" y1="-34.859" y2="-34.859" gradientTransform="matrix(5.2969 .1299 .0485 2.5364 -8119.75 1291.378)" gradientUnits="userSpaceOnUse"><stop offset="0" stop-color="#40465a"/><stop offset=".436" stop-color="#fff"/><stop offset=".995" stop-color="#2d3345"/></linearGradient><path fill="url(#c)" d="M1218.79,1535.41c-439.57-10.79-797.77-113.08-802.43-228.76c0,0.4-0.22,0.78-0.21,1.18
				c2.22,116.18,361.59,219.13,802.68,229.96c441.08,10.82,796.85-74.59,794.62-190.77c-0.01-0.4-0.23-0.79-0.24-1.19
				C2012.96,1461.39,1658.33,1546.19,1218.79,1535.41z" opacity=".47"/></g><g><g><linearGradient id="d" x1="1545.778" x2="1657.034" y1="1422.885" y2="111.493" gradientUnits="userSpaceOnUse"><stop offset="0" stop-color="#818181"/><stop offset="1" stop-color="#b9b9bb"/></linearGradient><path fill="url(#d)" d="M1945.36,1318.05c112.62-265.15,220.1-954.48,248.78-1147.93c4.03-27.19-16.75-51.64-44.24-52.2
					l-856.74-17.47c-22.98-0.47-42.72,16.15-46.07,38.89c-23.96,162.52-119.4,780.87-221.61,1047.27
					c-10.67,27.82,7.77,58.1,37.36,61.53l835.45,96.89C1918.22,1347.34,1937.52,1336.51,1945.36,1318.05z"/><linearGradient id="e" x1="1521.274" x2="2297.878" y1="761.75" y2="182.799" gradientUnits="userSpaceOnUse"><stop offset="0" stop-color="#cbcbd6"/><stop offset="1" stop-color="#f9faf9"/></linearGradient><path fill="url(#e)" d="M1938.93,1304.54c112.62-265.15,220.1-954.48,248.78-1147.93c4.03-27.19-16.75-51.64-44.24-52.2
					l-856.74-17.47c-22.98-0.47-42.72,16.15-46.07,38.89c-23.96,162.52-119.4,780.87-221.61,1047.27
					c-10.67,27.82,7.77,58.1,37.36,61.53l835.45,96.89C1911.78,1333.83,1931.09,1323,1938.93,1304.54z"/></g><g><linearGradient id="f" x1="1438.367" x2="1549.623" y1="1500.221" y2="188.829" gradientUnits="userSpaceOnUse"><stop offset="0" stop-color="#818181"/><stop offset="1" stop-color="#b9b9bb"/></linearGradient><path fill="url(#f)" d="M1837.95,1395.38c112.62-265.15,220.1-954.48,248.78-1147.93c4.03-27.19-16.75-51.64-44.24-52.2
					l-856.74-17.47c-22.98-0.47-42.72,16.15-46.07,38.89c-23.96,162.52-119.4,780.87-221.61,1047.27
					c-10.67,27.82,7.77,58.1,37.36,61.53l835.45,96.89C1810.8,1424.67,1830.11,1413.84,1837.95,1395.38z"/><linearGradient id="g" x1="1428.75" x2="2068.399" y1="851.224" y2="105.746" gradientUnits="userSpaceOnUse"><stop offset="0" stop-color="#cbcbd6"/><stop offset="1" stop-color="#f9faf9"/></linearGradient><path fill="url(#g)" d="M1831.51,1381.87c112.62-265.15,220.1-954.48,248.78-1147.93c4.03-27.19-16.75-51.64-44.24-52.2
					l-856.74-17.47c-22.98-0.47-42.72,16.15-46.07,38.89c-23.96,162.52-119.4,780.87-221.61,1047.27
					c-10.67,27.82,7.77,58.1,37.36,61.53l835.45,96.89C1804.37,1411.17,1823.67,1400.33,1831.51,1381.87z"/></g><g><linearGradient id="h" x1="1330.957" x2="1442.212" y1="1577.557" y2="266.165" gradientUnits="userSpaceOnUse"><stop offset="0" stop-color="#818181"/><stop offset="1" stop-color="#b9b9bb"/></linearGradient><path fill="url(#h)" d="M1730.54,1472.72c112.62-265.15,220.1-954.48,248.78-1147.93c4.03-27.19-16.75-51.64-44.24-52.2
					l-856.74-17.47c-22.98-0.47-42.72,16.15-46.07,38.89c-23.96,162.52-119.4,780.87-221.61,1047.27
					c-10.67,27.82,7.77,58.1,37.36,61.53l835.45,96.89C1703.39,1502.01,1722.7,1491.18,1730.54,1472.72z"/><linearGradient id="i" x1="1324.565" x2="1435.819" y1="1564.118" y2="252.743" gradientUnits="userSpaceOnUse"><stop offset="0" stop-color="#cbcbd6"/><stop offset="1" stop-color="#f9faf9"/></linearGradient><path fill="url(#i)" d="M1972.98,311.32c-6.01,41.11-15.71,104.52-28.31,181.51c-46.35,285.64-131.86,757.44-220.48,966.29
					c-7.95,18.62-27.15,29.28-47.12,27.15l-680.46-78.92l-154.94-18.04c-29.67-3.49-48.09-33.74-37.43-61.47
					c17.45-45.76,34.9-102,51.78-164.44c81.06-301.16,149.9-748.33,169.87-882.91c3.3-22.69,23.08-39.36,45.96-38.98l692.09,14.35
					l164.64,3.3C1956.11,259.74,1976.86,284.17,1972.98,311.32z"/></g><g opacity=".63"><g><g><path fill="#a09f9f" d="M1816.72,515.61c-184.86-10.4-369.76-19.33-554.71-27.91c-4.98-0.22-8.83-4.38-8.66-9.28
							c0.17-4.9,4.3-8.68,9.28-8.47c185.33,8.35,370.62,17.06,555.87,27.22c4.77,0.26,8.24,4.57,7.74,9.67
							S1821.48,515.87,1816.72,515.61z"/></g><g><path fill="#a09f9f" d="M1810.5,571.4c-183.89-11.11-367.89-21.32-551.91-29.99c-4.95-0.23-8.61-4.51-8.23-9.54
							c0.38-5.03,4.67-8.9,9.63-8.67c184.3,8.45,368.57,18.42,552.74,29.29c4.74,0.28,8.07,4.71,7.45,9.94
							C1819.56,567.66,1815.23,571.68,1810.5,571.4z"/></g><g><path fill="#a09f9f" d="M1803,628.38c-183.25-11.83-366.62-22.75-550.01-32.08c-4.94-0.25-8.42-4.62-7.84-9.74
							c0.58-5.13,5.02-9.07,9.96-8.82c183.57,9.1,367.12,19.79,550.56,31.38c4.71,0.29,7.93,4.83,7.19,10.16
							S1807.71,628.68,1803,628.38z"/></g><g><path fill="#a09f9f" d="M1794.35,686.21c-234.13-15.93-468.36-30.63-702.76-42.09c-4.77-0.23-8-4.59-7.27-9.74
							s5.15-9.13,9.92-8.91c234.52,11.2,468.88,25.59,703.14,41.22c4.69,0.31,7.81,4.92,6.97,10.32
							C1803.51,682.41,1799.04,686.53,1794.35,686.21z"/></g><g><path fill="#a09f9f" d="M1671.52,736.63c-196.35-13.31-392.61-25.66-589.1-36.66c-4.76-0.24-7.84-4.65-6.94-9.85
							c0.91-5.2,5.46-9.21,10.22-8.97c196.5,10.78,392.77,22.88,589.13,35.94c4.84,0.33,8.01,4.97,7.09,10.37
							C1681.01,732.86,1676.35,736.97,1671.52,736.63z"/></g><g><path fill="#a09f9f" d="M1765.16,849.61c-234.29-18.41-468.7-35.55-703.33-49.1c-4.76-0.27-7.64-4.71-6.47-9.93
							c1.17-5.22,5.94-9.24,10.7-8.97c234.5,13.3,468.78,30.16,702.95,48.28c4.67,0.36,7.58,5.06,6.52,10.52
							C1774.47,845.86,1769.83,849.97,1765.16,849.61z"/></g><g><path fill="#a09f9f" d="M1753.25,908.02c-234.79-19.24-469.7-37.21-704.85-51.44c-4.77-0.28-7.56-4.71-6.27-9.91
							c1.29-5.2,6.15-9.18,10.92-8.91c234.95,14.01,469.67,31.7,704.27,50.67c4.67,0.38,7.54,5.07,6.41,10.49
							C1762.61,904.33,1757.92,908.4,1753.25,908.02z"/></g><g><path fill="#a09f9f" d="M1740.77,965.86c-235.46-20.03-471.04-38.78-706.88-53.66c-4.78-0.3-7.5-4.69-6.12-9.83
							c1.38-5.15,6.33-9.09,11.11-8.8c235.59,14.67,470.93,33.16,706.15,52.93c4.68,0.39,7.51,5.05,6.33,10.4
							C1750.18,962.25,1745.45,966.25,1740.77,965.86z"/></g><g><path fill="#a09f9f" d="M1727.85,1022.81c-236.26-20.77-472.65-40.25-709.33-55.72c-4.79-0.31-7.47-4.64-6.02-9.71
							c1.45-5.07,6.48-8.94,11.26-8.64c236.38,15.28,472.49,34.52,708.47,55.05c4.69,0.41,7.49,5.01,6.28,10.27
							C1737.31,1019.31,1732.54,1023.22,1727.85,1022.81z"/></g><g><path fill="#a09f9f" d="M1600.4,1068.4c-199.25-17.11-398.38-33.09-597.85-47.44c-4.8-0.32-7.46-4.57-5.95-9.54
							c1.5-4.97,6.58-8.75,11.38-8.44c199.19,14.2,398.05,30,597.03,46.93c4.89,0.43,7.81,4.93,6.54,10.04
							C1610.27,1065.07,1605.29,1068.84,1600.4,1068.4z"/></g><g><path fill="#a09f9f" d="M1690.89,1173c-238.88-22.46-477.91-43.64-717.27-60.43c-4.83-0.33-7.48-4.4-5.95-9.12
							c1.54-4.72,6.67-8.31,11.5-7.98c239.02,16.66,477.71,37.66,716.26,59.95c4.72,0.44,7.52,4.75,6.26,9.62
							C1700.44,1169.89,1695.61,1173.44,1690.89,1173z"/></g><g><path fill="#a09f9f" d="M1677.4,1223.9c-239.87-22.93-479.88-44.58-720.24-61.7c-4.85-0.34-7.52-4.26-6-8.81
							c1.53-4.55,6.67-7.99,11.51-7.66c240.03,17.02,479.71,38.52,719.25,61.3c4.74,0.45,7.54,4.61,6.3,9.28
							C1686.97,1220.97,1682.15,1224.35,1677.4,1223.9z"/></g><g><path fill="#a09f9f" d="M1548.39,1261.44c-202.44-18.65-404.73-36.08-607.42-51.68c-4.86-0.34-7.58-4.1-6.09-8.45
							c1.49-4.35,6.63-7.63,11.49-7.29c202.42,15.53,404.44,32.87,606.61,51.42c4.96,0.47,7.93,4.46,6.67,8.88
							C1558.38,1258.75,1553.36,1261.91,1548.39,1261.44z"/></g><g><g><path fill="#a09f9f" d="M1142.63,478.67c-20.17-0.79-30.21-1.17-50.14-1.91c0.13-7.26,0.17-10.88,0.17-18.06
								c48.65,1.75,73.4,2.7,123.28,4.72c-0.13,7.24-0.22,10.88-0.47,18.2c-20.55-0.86-30.78-1.28-51.15-2.09
								c-1.26,45.54-3.18,69.09-8.84,116.82c-8.61-0.41-12.9-0.61-21.47-1.01C1139.61,547.67,1141.49,524.15,1142.63,478.67z"/></g></g></g></g><path fill="none" stroke="#a09f9f" stroke-miterlimit="10" stroke-width="14.544" d="M1390.52,90.21l9.67-49.52c3.6-18.46-8.41-33.43-26.83-33.43h-94.92c-18.42,0-36.28,14.97-39.88,33.43
				l-58.27,298.53c-3.6,18.46,8.41,33.43,26.83,33.43h62.33c18.42,0,36.28-14.97,39.88-33.43l35.35-181.12
				c3.6-18.46-8.41-33.43-26.83-33.43h-7.54c-18.42,0-36.28,14.97-39.88,33.43l-28.72,147.13"/><linearGradient id="j" x1="1847.682" x2="2067.954" y1="378.36" y2="244.781" gradientUnits="userSpaceOnUse"><stop offset="0" stop-color="#cbcbd6"/><stop offset=".604" stop-color="#f9faf9"/></linearGradient><path fill="url(#j)" d="M1972.98,311.32c-6.01,41.11-15.71,104.52-28.31,181.51c-15.13-39.95-173.75-229.02-180.73-236.97
				l164.64,3.3C1956.11,259.74,1976.86,284.17,1972.98,311.32z"/><linearGradient id="k" x1="1685.052" x2="1944.662" y1="374.253" y2="374.253" gradientUnits="userSpaceOnUse"><stop offset="0" stop-color="#cbcbd6"/><stop offset="1" stop-color="#f9faf9"/></linearGradient><path fill="url(#k)" d="M1763.98,255.72c0,0,40.48,7.99,103.95,82.63s76.73,154.43,76.73,154.43s-82.72-92.19-225.95-62.58
				c-22.52,4.66-40.58-18.94-31.07-39.88C1704.36,353.5,1729.99,303.49,1763.98,255.72z"/><linearGradient id="l" x1="957.052" x2="819.758" y1="1270.266" y2="1337.729" gradientUnits="userSpaceOnUse"><stop offset="0" stop-color="#cbcbd6"/><stop offset="1" stop-color="#f9faf9"/></linearGradient><path fill="url(#l)" d="M996.6,1407.35l-154.94-18.04c-29.67-3.49-48.09-33.74-37.43-61.47c17.45-45.76,34.9-102,51.78-164.44
				L996.6,1407.35z"/><linearGradient id="m" x1="1055.119" x2="902.439" y1="1158.557" y2="1308.87" gradientUnits="userSpaceOnUse"><stop offset="0" stop-color="#cbcbd6"/><stop offset="1" stop-color="#f9faf9"/></linearGradient><path fill="url(#m)" d="M996.6,1407.35c0,0-25.99-68.76-10.25-141.49c12.9-59.64,30.23-90.13,43.04-105.43
				c7.29-8.72,2.73-22.32-8.31-25c-28.75-6.97-82.37-9.16-165.07,27.97C856.01,1163.4,857.39,1269.36,996.6,1407.35z"/></g><g><linearGradient id="n" x1="645.638" x2="618.516" y1="1179.675" y2="1311.213" gradientUnits="userSpaceOnUse"><stop offset="0" stop-color="#ffdad2"/><stop offset="1" stop-color="#efb284"/></linearGradient><path fill="url(#n)" d="M1056.75,1410.55c-22.94,80.05-219.1,153.29-369.08,142.69c-168.95-12.02-263.08,41.76-263.08,41.76
				l-262.92-292.82l131.46-75.14c0,0,143.49-99.51,317.19-57.58c141.9,34.17,173.7,14.71,173.7,14.71s0,0,0.16,0.16
				c5.54,8.22,200.12,289.5,254.86,246C1045.04,1425.58,1051.05,1418.78,1056.75,1410.55z"/><linearGradient id="o" x1="1044.21" x2="1125.322" y1="1187.209" y2="1222.198" gradientUnits="userSpaceOnUse"><stop offset="0" stop-color="#ffdad2"/><stop offset="1" stop-color="#efb284"/></linearGradient><path fill="url(#o)" d="M1169.54,1081.03c-18.67,83.37-63.6,260.39-112.64,329.21c0.16,0.16,0,0.16-0.16,0.32
				c-5.69,8.23-11.71,15.03-17.72,19.77c-21.04,16.77-62.96-14.71-106.78-60.27c79.89-78.94,122.6-181.93,151.71-299.15
				c25-100.77,76.57-91.44,90.65-86.69C1180.77,1007.78,1179.03,1038.79,1169.54,1081.03z"/><linearGradient id="p" x1="966.133" x2="1029.753" y1="1121.986" y2="1148.29" gradientUnits="userSpaceOnUse"><stop offset="0" stop-color="#ffdad2"/><stop offset="1" stop-color="#efb284"/></linearGradient><path fill="url(#p)" d="M1124.13,994.27l13.3-36.99c4.23-11.76-0.89-24.69-11.88-30.64c-2.29-1.24-4.66-2.45-7.11-3.64
				c-5.38-2.53-10.76-4.43-16.45-5.86c0,0-0.95-0.32-2.53-0.48c-9.65-0.95-44.14,3.17-80.68,94.92
				c-43.19,108.37-73.88,218.79-155.67,278.59c21.67,27.21,45.72,55.53,69.13,79.89c79.89-78.94,122.6-181.93,151.71-299.15
				c10.36-41.75,25.28-64.43,40.2-76.54C1124.16,994.36,1124.13,994.27,1124.13,994.27z"/><linearGradient id="q" x1="891.431" x2="944.985" y1="1089.283" y2="1107.75" gradientUnits="userSpaceOnUse"><stop offset="0" stop-color="#ffdad2"/><stop offset="1" stop-color="#efb284"/></linearGradient><path fill="url(#q)" d="M1037.27,929.47c-4.34-2.74-9.17-3.42-14.04-3.16c-7.39,2.85-14.71,6.02-21.85,9.49c0,0-0.63,0.32-1.9,0.95
				c-8.23,4.75-42.4,29.58-86.06,135.1c-33.54,81-75.46,130.35-99.66,154.08c13.45,18.19,30.53,40.82,49.36,64.23
				c81.79-59.8,112.48-170.22,155.67-278.59c8.59-21.57,17.05-38.15,25.12-51.11C1046.07,947.54,1045.66,934.77,1037.27,929.47z"/><linearGradient id="r" x1="861.568" x2="894.967" y1="1080.392" y2="1106.634" gradientUnits="userSpaceOnUse"><stop offset="0" stop-color="#ffdad2"/><stop offset="1" stop-color="#efb284"/></linearGradient><path fill="url(#r)" d="M948.22,965.39c-46.83,28.16-164.21,218.79-164.21,218.79s0,0,0.16,0.16c1.26,1.9,12.5,18.19,29.58,41.6
				c24.2-23.73,66.13-73.09,99.66-154.08c15.38-37.18,29.55-64.18,41.86-83.98C955.78,977.77,953.99,969.46,948.22,965.39z"/><linearGradient id="s" x1="642.142" x2="715.627" y1="1320.557" y2="1505.801" gradientUnits="userSpaceOnUse"><stop offset="0" stop-color="#ffdad2"/><stop offset="1" stop-color="#efb284"/></linearGradient><path fill="url(#s)" d="M189.73,1333.45c0,0,208.42-119.61,363.05-84.39c154.63,35.21,205.15,97.98,205.15,97.98l153.09-28.73
				c0,0,61.97-127.91,128.2-110.06c66.23,17.85-6.11,138.51-48.64,198.54c-42.53,60.03-112.92,80.55-259.89,107.25
				c-146.97,26.7-306.1,80.98-306.1,80.98L189.73,1333.45z"/><g><path fill="#616161" d="M195.05,1238.05c51.55-37.83,154.15,22.36,229.15,134.45c75,112.09,94.01,233.62,42.46,271.46
					c-51.55,37.83-285.78,74.24-360.78-37.85C30.87,1494.01,143.5,1275.88,195.05,1238.05z"/><path fill="#47516b" d="M193.01,1239.54c51.55-37.83,154.15,22.36,229.15,134.45c75,112.09,94.01,233.62,42.46,271.46
					c-4.59,3.36-159.24,118.84-164.58,120.69c-54.67,18.91-127.87-56.42-196.2-158.54c-67.31-100.6-109.48-198.29-76.06-246.77
					C31.6,1355.29,187.73,1243.42,193.01,1239.54z"/><linearGradient id="t" x1="2237.974" x2="2029.119" y1="-317.873" y2="-317.873" gradientTransform="matrix(-1.0826 -1.6179 1.3529 -.9928 2889.729 4676.9)" gradientUnits="userSpaceOnUse"><stop offset="0" stop-color="#262c3d"/><stop offset="1" stop-color="#7d859e"/></linearGradient><path fill="url(#t)" d="M29,1359.9c51.55-37.83,154.15,22.36,229.15,134.45s94.01,233.62,42.46,271.46
					c-51.55,37.83-154.15-22.36-229.15-134.45S-22.55,1397.73,29,1359.9z"/><linearGradient id="u" x1="1994.38" x2="2245.265" y1="-283.568" y2="-283.568" gradientTransform="matrix(-1.0826 -1.6179 1.3529 -.9928 2889.729 4676.9)" gradientUnits="userSpaceOnUse"><stop offset="0" stop-color="#40465a"/><stop offset=".436" stop-color="#fff"/><stop offset=".995" stop-color="#2d3345"/></linearGradient><path fill="url(#u)" d="M257.09,1495.12c74.74,111.7,93.83,232.73,42.94,271.01c0.18-0.13,0.39-0.2,0.57-0.33
					c51.55-37.83,32.55-159.37-42.46-271.46c-75-112.09-177.59-172.28-229.14-134.45c-0.18,0.13-0.31,0.31-0.49,0.44
					C80.24,1323.32,182.35,1383.43,257.09,1495.12z" opacity=".47"/></g><linearGradient id="v" x1="1032.954" x2="1000.522" y1="1284.269" y2="1261.446" gradientUnits="userSpaceOnUse"><stop offset="0" stop-color="#ffdad2"/><stop offset="1" stop-color="#fff"/></linearGradient><path fill="url(#v)" d="M1039.88,1218.18c-13.17-9-41.22,23.92-62.18,59.28c-20.96,35.36,18.66,63.05,41.42,39.38
				S1059.49,1231.59,1039.88,1218.18z"/><g><g><radialGradient id="w" cx="2326.197" cy="425.944" r="8.255" gradientTransform="translate(-35277.594 -5437.271) scale(15.4879)" gradientUnits="userSpaceOnUse"><stop offset=".444" stop-color="#fefeff"/><stop offset=".759" stop-color="#7d859e"/><stop offset=".92" stop-color="#262c3d"/></radialGradient><path fill="url(#w)" d="M894.98,1051.37l-21.3,143.92c0,40.14-55.26,72.72-123.42,72.72c-68.26,0-123.52-32.58-123.52-72.72
						l-21.3-143.92c11.79,40.72,72.19,71.79,144.82,71.79C822.9,1123.16,883.19,1092.09,894.98,1051.37z"/><path fill="#e27513" d="M936.79,937.78c0,6.35-0.97,12.7-2.77,18.76L936.79,937.78z"/><linearGradient id="x" x1="563.64" x2="936.793" y1="937.784" y2="937.784" gradientUnits="userSpaceOnUse"><stop offset="0" stop-color="#262c3d"/><stop offset="1" stop-color="#7d859e"/></linearGradient><path fill="url(#x)" d="M936.79,937.78l-2.77,18.76c-14.98,51.7-91.52,91.15-183.73,91.15c-92.21,0-168.9-39.44-183.87-91.15
						l-2.77-18.76c0-60.72,83.62-109.91,186.65-109.91C853.32,827.88,936.79,877.07,936.79,937.78z"/><linearGradient id="y" x1="943.559" x2="589.883" y1="1094.077" y2="1094.077" gradientUnits="userSpaceOnUse"><stop offset="0" stop-color="#262c3d"/><stop offset="1" stop-color="#7d859e"/></linearGradient><path fill="url(#y)" d="M934.02,956.55l-27.04,182.73c0,50.97-70.17,92.33-156.69,92.33c-86.67,0-156.83-41.36-156.83-92.33
						l-27.04-182.73c14.98,51.7,91.66,91.15,183.87,91.15C842.5,1047.69,919.04,1008.25,934.02,956.55z"/><radialGradient id="z" cx="2325.132" cy="417.031" r="12.286" gradientTransform="matrix(15.4879 0 0 7.7483 -35277.594 -2209.637)" gradientUnits="userSpaceOnUse"><stop offset=".444" stop-color="#fefeff"/><stop offset=".759" stop-color="#7d859e"/><stop offset=".92" stop-color="#262c3d"/></radialGradient><path fill="url(#z)" d="M750.29,1104.59c81.97,0,151.44-31.19,176.41-74.43l7.33-49.5c-14.98,51.7-91.52,91.15-183.73,91.15
						s-168.9-39.44-183.87-91.15l7.32,49.49C598.72,1073.39,668.31,1104.59,750.29,1104.59z"/><radialGradient id="A" cx="2355.385" cy="373.626" r="12.286" gradientTransform="matrix(14.9026 0 0 7.4555 -34367.098 -1709.198)" gradientUnits="userSpaceOnUse"><stop offset=".444" stop-color="#fefeff"/><stop offset=".759" stop-color="#7d859e"/><stop offset=".92" stop-color="#262c3d"/></radialGradient><path fill="url(#A)" d="M750.28,1156.2c78.87,0,145.72-30.02,169.74-71.62l7.05-47.63c-14.41,49.75-88.06,87.7-176.79,87.7
						s-162.52-37.95-176.93-87.7l7.05,47.62C604.45,1126.18,671.41,1156.2,750.28,1156.2z"/><radialGradient id="B" cx="2383.045" cy="334.011" r="12.286" gradientTransform="matrix(14.405 0 0 7.2066 -33592.86 -1279.697)" gradientUnits="userSpaceOnUse"><stop offset=".444" stop-color="#fefeff"/><stop offset=".759" stop-color="#7d859e"/><stop offset=".92" stop-color="#262c3d"/></radialGradient><path fill="url(#B)" d="M750.28,1204.53c76.24,0,140.85-29.01,164.07-69.23l6.81-46.04c-13.93,48.09-85.12,84.77-170.89,84.77
						s-157.09-36.68-171.02-84.77l6.81,46.03C609.32,1175.51,674.04,1204.53,750.28,1204.53z"/></g><linearGradient id="C" x1="433.863" x2="1066.646" y1="633.714" y2="633.714" gradientUnits="userSpaceOnUse"><stop offset="0" stop-color="#fff"/><stop offset=".503" stop-color="#fabb0c"/><stop offset="1" stop-color="#f88019"/></linearGradient><path fill="url(#C)" d="M1066.65,539.82c0-180.33-150.87-325.43-333.27-315.95C569.09,232.4,436.45,370.34,433.9,534.83
					c-1.32,84.96,31.03,162.21,84.4,219.73c14.71,15.86,23.55,36.26,23.55,57.89v109.79h0.59c-0.22,2.16-0.59,4.3-0.59,6.49
					c0,63.66,93.31,115.27,208.41,115.27c115.1,0,208.4-51.61,208.4-115.27c0-2.19-0.37-4.33-0.59-6.49h0.59V812.47
					c0-21.67,8.88-42.09,23.61-57.98C1034.55,698.11,1066.65,622.78,1066.65,539.82z"/><ellipse cx="750.25" cy="928.73" fill="#e27513" rx="189.24" ry="104.67"/><g opacity=".81"><linearGradient id="D" x1="846.602" x2="722.302" y1="821.543" y2="821.543" gradientUnits="userSpaceOnUse"><stop offset="0" stop-color="#cbcbd6"/><stop offset="1" stop-color="#f9faf9"/></linearGradient><path fill="url(#D)" d="M826.46,821.48c0,19.46-34.09,35.25-76.2,35.25c-42.12,0-76.2-15.79-76.2-35.25
						c0-19.33,34.09-35.12,76.2-35.12C792.37,786.35,826.46,802.15,826.46,821.48z"/><linearGradient id="E" x1="674.054" x2="826.456" y1="896.636" y2="896.636" gradientUnits="userSpaceOnUse"><stop offset="0" stop-color="#cbcbd6"/><stop offset="1" stop-color="#f9faf9"/></linearGradient><path fill="url(#E)" d="M826.46,821.48v115.19c0,19.33-34.09,35.12-76.2,35.12c-42.12,0-76.2-15.79-76.2-35.12V821.48
						c0,19.46,34.09,35.25,76.2,35.25C792.37,856.73,826.46,840.94,826.46,821.48z"/></g><g opacity=".81"><linearGradient id="F" x1="807.077" x2="733.769" y1="654.386" y2="654.386" gradientUnits="userSpaceOnUse"><stop offset="0" stop-color="#cbcbd6"/><stop offset="1" stop-color="#f9faf9"/></linearGradient><path fill="url(#F)" d="M795.2,654.35c0,11.48-20.1,20.79-44.94,20.79c-24.84,0-44.94-9.31-44.94-20.79
						c0-11.4,20.1-20.72,44.94-20.72C775.09,633.63,795.2,642.95,795.2,654.35z"/><linearGradient id="G" x1="705.314" x2="795.196" y1="750.765" y2="750.765" gradientUnits="userSpaceOnUse"><stop offset="0" stop-color="#cbcbd6"/><stop offset="1" stop-color="#f9faf9"/></linearGradient><path fill="url(#G)" d="M795.2,654.35v172.12c0,11.4-20.1,20.72-44.94,20.72c-24.84,0-44.94-9.31-44.94-20.72V654.35
						c0,11.48,20.1,20.79,44.94,20.79C775.09,675.14,795.2,665.82,795.2,654.35z"/></g><g><linearGradient id="H" x1="823.085" x2="729.125" y1="639.671" y2="639.671" gradientUnits="userSpaceOnUse"><stop offset="0" stop-color="#262c3d"/><stop offset="1" stop-color="#7d859e"/></linearGradient><path fill="url(#H)" d="M807.86,639.62c0,14.71-25.77,26.65-57.6,26.65c-31.84,0-57.6-11.94-57.6-26.65
						c0-14.61,25.77-26.55,57.6-26.55C782.09,613.07,807.86,625.01,807.86,639.62z"/><linearGradient id="I" x1="692.653" x2="807.856" y1="665.385" y2="665.385" gradientUnits="userSpaceOnUse"><stop offset="0" stop-color="#262c3d"/><stop offset="1" stop-color="#7d859e"/></linearGradient><path fill="url(#I)" d="M807.86,639.62v24.97c0,14.61-25.77,26.55-57.6,26.55c-31.84,0-57.6-11.94-57.6-26.55v-24.97
						c0,14.71,25.77,26.65,57.6,26.65C782.09,666.27,807.86,654.33,807.86,639.62z"/></g><path fill="none" stroke="#f1f1f2" stroke-miterlimit="10" stroke-width="11.616" d="M807.15,827.88v-9.99c0-38.17,6.73-76.03,19.89-111.86l88.42-240.73"/><path fill="none" stroke="#f1f1f2" stroke-miterlimit="10" stroke-width="11.616" d="M693.69,827.88v-9.99c0-38.17-6.73-76.03-19.89-111.86L585.38,465.3"/><g><line x1="730.13" x2="693.69" y1="654.35" y2="479.62" fill="none" stroke="#f1f1f2" stroke-miterlimit="10" stroke-width="3.872"/><line x1="776.97" x2="813.42" y1="654.35" y2="479.62" fill="none" stroke="#f1f1f2" stroke-miterlimit="10" stroke-width="3.872"/><polyline fill="none" stroke="#f1f1f2" stroke-miterlimit="10" stroke-width="3.872" points="585.38 465.3 693.69 479.62 813.42 479.62 913.75 465.3"/></g></g></g></g></g></svg>