<svg xmlns="http://www.w3.org/2000/svg" xmlns:xlink="http://www.w3.org/1999/xlink" enable-background="new 0 0 3000 3000" viewBox="0 0 3000 3000"><switch><g><g><g><g><path fill="#3c2415" d="M1583.355,1687.473c0,0,423.58-183.674,774.198-134.758
						c-177.88-202.587-361.072-523.731-361.072-523.731l-320.555,73.856L1583.355,1687.473z"/><g><g><g><g><path fill="#231f20" d="M1465.516,1950.295c120.761-69.721,315.946-69.749,435.922-0.027
										c8.332,4.842,16.021,9.911,23.19,15.142c0.586-0.343,1.126-0.701,1.717-1.042c135.389-78.167,354.219-78.198,488.729-0.03
										c124.531,72.37,133.066,186.382,26.223,264.934l-57.123,33.196c-136.029,62.698-334.269,57.752-459.478-15.01
										c-17.811-10.351-33.178-21.572-46.247-33.401c-41.684,19.97-90.303,32.465-140.7,37.844
										c-244.375,35.329-397.486-41.25-358.19-206.801C1390.434,2010.375,1419.047,1977.124,1465.516,1950.295z" opacity=".1"/><g><polygon fill="#594a42" points="2176.631 2054.596 2202.344 2066.299 2184.06 2078.614"/><path fill="#2e231b" d="M2195.907,2069.899l27.966-80.609c-36.904-22.473-53.427-44.517-76.921-17.192
											c-28.271,32.881-26.97,73.243,36.854,106.36c1.386-3.482,2.924-10.012,3.528-13.777
											C2190.188,2066.234,2193.043,2067.99,2195.907,2069.899z"/><path fill="#2e231b" d="M2392.976,2106.978c15.007-32.416-70.645-74.701-140.008-112.865
											c-56.827-31.267-80.648-60.587-101.358-19.665c-20.71,40.922-15.781,63.551,42.629,95.322
											c31.352,17.053,57.518,43.718,98.314,58.417C2330.594,2141.894,2382.26,2130.127,2392.976,2106.978z"/><path fill="#613b20" d="M2399.168,2099.36c15.007-32.417-50.815-42.511-112.863-91.681
											c-50.754-40.22-120.66-90.974-142.743-44.999c-19.858,41.342-4.658,64.375,64.29,102.002
											c31.328,17.096,49.761,41.538,90.558,56.237C2336.45,2134.624,2388.452,2122.509,2399.168,2099.36z"/></g><g><g><g><g><g><g><path fill="#594a42" d="M1617.895,2093.146c0,0,56.025-27.166,66.8-42.841
																c2.533-3.685,5.692-22.771,5.692-22.771l-89.28,50.389L1617.895,2093.146z"/><path fill="#2e231b" d="M1617.895,2093.146c0,0,59.56-26.677,70.335-42.353
																c2.533-3.685,2.156-23.26,2.156-23.26l-74.459,44.226L1617.895,2093.146z"/><path fill="#2e231b" d="M1424.512,2096.32c-3.363-32.337,87.699-60.794,151.208-93.666
																c63.991-33.122,98.176-53.043,112.355-13.781s0.647,66.19-67.124,90.664c-30.552,11.033-59.801,39.285-97.882,49.654
																C1482.277,2140.296,1427.666,2126.645,1424.512,2096.32z"/><path fill="#613b20" d="M1424.162,2091.327c-9.968-30.946,96.613-54.374,151.209-93.666
																c58.483-42.09,98.176-53.043,112.355-13.781c14.179,39.262,0.096,64.159-67.675,88.632
																c-30.552,11.033-66.409,37.461-104.891,46.224C1479.277,2126.906,1431.281,2113.426,1424.162,2091.327z"/></g><g><g><path fill="#383838" d="M1774.191,1670.276l-83.275,349.786c-23.245,45.758-118.942,28.344-114.388-16.699
																	c0,0,43.035-352.506,51.179-359.486C1664.82,1612.066,1774.191,1670.276,1774.191,1670.276z"/><path fill="#383838" d="M1823.117,1148.35l162.27,134.901c-86.006,102.375-169.537,279.712-211.196,387.614
																	c0,0-148.892-16.16-146.624-26.988C1644.947,1560.903,1739.899,1246.247,1823.117,1148.35z"/></g></g><g><g><path fill="#2e2e2e" d="M2023.466,1654.42l119.892,342.377c23.245,45.758,118.942,28.344,114.388-16.699
																	c0,0-79.653-345.098-87.796-352.078C2132.836,1596.21,2023.466,1654.42,2023.466,1654.42z"/><path fill="#2e2e2e" d="M1976.806,1137.636l-144.965,81.214c0,56.775,29.57,119.463,58.803,162.887
																	c56.502,93.888,106.001,203.076,135.089,278.414c0,0,148.892-16.159,146.624-26.987
																	C2154.977,1550.189,2060.025,1235.534,1976.806,1137.636z"/></g></g></g><g><g><g><g><g><g><g><g><path fill="#1860db" d="M1810.422,1336.466l0.257,0.177
																						C1810.63,1336.667,1810.542,1336.602,1810.422,1336.466z"/></g></g></g></g></g></g></g></g></g></g></g></g></g><path fill="#ededed" d="M2025.145,1108.802l-129.729-449.835c-23.809-9.163-32.497-50.345-57.598-52.127
									c-62.456-4.432-137.688,13.055-194.21,34.463c-18.43,6.98-24.363,53.361-38.614,72.212l147.781,484.488L2025.145,1108.802z"/><path fill="#e6e7e8" d="M1738.237,1216.806c-1.312-37.108,2.503-27.841-9.663-68.796
									c-18.672-62.862-45.391-131.798-67.446-189.969c-26.944-71.067-67.972-129.169-74.799-169.861
									c-4.209-25.082-11.24-104.002,56.893-139.976c-2.074,5.766,74.674-20.386,82.159-21.1
									c102.024-9.729,112.745-3.589,116.291-15.145c30.191,10.44,76.649,9.753,93.265,15.288
									c53.083,17.68,16.955,254.435,30.54,312.313c13.811,58.854,75.182,221.011,84.124,276.44
									C2064.473,1308.201,1740.815,1289.718,1738.237,1216.806z"/><path fill="#9b8579" d="M1929.32,628.176c-19.184-6.39-65.12,2.391-94.541-20.618
									c2.101,11.025-111.053,146.988-120.443,180.864l105.289,451.001c0,0,29.02,85.095,47.916,89.89
									c69.464,17.628,252.295-64.7,221.395-120.718c-28.922-52.432-70.494-124.414-74.396-196.471
									c-3.096-57.19,5.426-166.495-15.109-254.002C1985.766,699.892,1986.03,647.065,1929.32,628.176z"/><path fill="#726658" d="M1629.041,668.789c-6.569-35.364,9.509-29.95,25.9-39.422
									c-82.77,26.84-83.234,108.248-74.581,159.812c12.736,75.895,120.495,266.245,135.63,360.334
									c6.215,38.635,17.54,97.529,10.373,127.503c34.359,41.854,81.918,73.825,98.27,42.844
									c18.438-34.933,8.021-45.619,8.021-45.619l-118.318-485.82C1694.767,777.287,1644.612,752.613,1629.041,668.789z"/><path fill="#594a42" d="M1714.335,788.422c5.791,20.033,11.094,40.185,16.654,60.274l15.854,60.468
									c10.49,40.332,20.292,80.831,30.471,121.238c9.561,40.558,19.451,81.035,28.701,121.669l13.723,60.987
									c4.295,20.397,8.852,40.73,12.915,61.184c-5.797-20.031-11.099-40.183-16.664-60.271l-15.857-60.468
									c-10.469-40.337-20.299-80.829-30.458-121.241c-9.54-40.563-19.458-81.034-28.688-121.672l-13.725-60.987
									C1722.962,829.208,1718.404,808.875,1714.335,788.422z"/><g><g><path fill="#4a3d35" d="M1714.865,813.345c5.864,1.235,12.116,6.842,13.969,12.555
											c1.841,5.677-1.422,9.28-7.286,8.046c-5.864-1.235-12.116-6.842-13.957-12.519
											C1705.737,815.714,1709.001,812.11,1714.865,813.345z"/></g><g><path fill="#a8a8a8" d="M1711.534,815.505c3.126,0.012,6.056,1.477,8.571,3.245c2.416,1.92,4.605,4.264,5.714,7.17
											C1721.547,821.567,1717.112,817.964,1711.534,815.505z"/></g></g><g><g><path fill="#4a3d35" d="M1738.864,903.766c5.864,1.235,12.115,6.842,13.968,12.554
											c1.841,5.677-1.422,9.281-7.286,8.046c-5.864-1.235-12.115-6.842-13.957-12.519
											C1729.736,906.135,1733,902.531,1738.864,903.766z"/></g><g><path fill="#a8a8a8" d="M1735.533,905.925c3.126,0.012,6.056,1.477,8.571,3.245c2.417,1.92,4.605,4.264,5.714,7.17
											C1745.546,911.988,1741.111,908.385,1735.533,905.925z"/></g></g><g><g><path fill="#4a3d35" d="M1767.384,1002.902c5.864,1.235,12.116,6.842,13.969,12.555
											c1.841,5.677-1.422,9.28-7.286,8.046c-5.864-1.235-12.115-6.842-13.957-12.519
											C1758.257,1005.271,1761.52,1001.667,1767.384,1002.902z"/></g><g><path fill="#a8a8a8" d="M1764.054,1005.062c3.126,0.012,6.056,1.477,8.571,3.245
											c2.417,1.92,4.605,4.264,5.714,7.17C1774.067,1011.124,1769.632,1007.521,1764.054,1005.062z"/></g></g><g><g><path fill="#4a3d35" d="M1791.075,1103.749c5.864,1.235,12.116,6.842,13.969,12.555
											c1.841,5.677-1.422,9.281-7.286,8.046c-5.864-1.235-12.115-6.842-13.957-12.519
											C1781.947,1106.118,1785.211,1102.514,1791.075,1103.749z"/></g><g><path fill="#a8a8a8" d="M1787.744,1105.908c3.126,0.012,6.056,1.477,8.571,3.245
											c2.417,1.92,4.605,4.264,5.714,7.17C1797.758,1111.971,1793.323,1108.368,1787.744,1105.908z"/></g></g><g><g><path fill="#4a3d35" d="M1816.455,1220.259c5.864,1.235,12.115,6.842,13.968,12.555
											c1.842,5.677-1.422,9.28-7.286,8.046c-5.864-1.235-12.116-6.842-13.957-12.519
											C1807.328,1222.628,1810.591,1219.025,1816.455,1220.259z"/></g><g><path fill="#a8a8a8" d="M1813.124,1222.419c3.126,0.012,6.056,1.477,8.571,3.245
											c2.417,1.92,4.605,4.264,5.714,7.17C1823.138,1228.481,1818.703,1224.879,1813.124,1222.419z"/></g></g></g></g></g><path fill="#d9b49c" d="M1669.558,680.139l130.503-71.837c0,0,2.447-44.556-6.336-55.518
						c-42.262-31.383-49.189-67.563-49.189-67.563l-114.066,22.617L1669.558,680.139z"/><path fill="#964021" d="M1796.098,557.397c4.595,11.267-21.438,71.267-92.497,78.534
						c-51.757,5.293-60.301-28.344-60.301-28.344l6.889,63.525c0,0,12.836,21.821,59.364,14.75
						c73.931-11.237,102.599-71.832,102.599-71.832S1806.865,556.415,1796.098,557.397z"/><path fill="#b24c2c" d="M1699.05,765.826c7.759,15.166,15.188,21.819,15.188,21.819l49.456-77.415
						c0,0,6.264-68.363-39.727-66.186C1677.308,646.251,1644.62,659.432,1699.05,765.826z"/><path fill="#8b5e3c" d="M1904.416,634.452c56.177,9.213,89.557,21.85,102.338,77.323
						c13.725,59.571,16.962,172.198,43.913,285.124c40.278,168.773,328.025,555.815,328.025,555.815l-208.743,150.612
						c0,0-323.402-638.511-345.838-740.465c-17.053-77.493-22.204-392.568-0.427-368.663
						C1838.677,610.656,1885.672,631.378,1904.416,634.452z"/><path fill="#8b5e3c" d="M1557.222,724.837c3.733-49.45,59.589-99.091,105.391-96.011
						c-15.204,23.218-20.207,94.487-4.176,167.962c14.386,65.932,29.962,134.473,38.991,174.716
						c54.374,242.334-17.659,800.564-17.659,800.564l-120.195-89.88c0,0,99.651-484.421,66.349-646.002
						C1600.235,911.544,1551.392,802.07,1557.222,724.837z"/><path fill="#f7f7f7" d="M1781.556,594.012c-8.635,8.069-45.858,32.303-81.702,41.56
						c30.339,8.778,60.976,30.424,60.976,30.424S1761.78,629.633,1781.556,594.012z"/><path fill="#f7f7f7" d="M1651.169,597.731c0,0,1.027,2.003,2.576,7.811c6.806,25.518,19.565,26.152,49.856,30.388
						c-38.723,8.811-49.327,41.346-49.327,41.346s-13.413-12.965-13.732-43.696C1640.451,624.766,1651.169,597.731,1651.169,597.731
						z"/><path fill="#be512f" d="M1670.221,754.736c7.185,15.446,44.114,33.686,44.114,33.686l33.504-53.421
						c0,0,5.566-95.443-40.426-93.267C1660.756,643.943,1641.179,692.303,1670.221,754.736z"/><path fill="#603913" d="M2102.755,1032.331c25.208,0.989,52.317-25.776,57.767-47.465l-93.573-120.726l-99.704,55.345
						C1967.245,919.486,2041.041,1029.91,2102.755,1032.331z"/><g><g><path fill="#3c2415" d="M1963.576,1142.517c-18.497,36.162-38.624,60.054-38.624,60.054
								c-4.848,27.031,87.425,79.269,91.031,50.711l44.821-74.354L1963.576,1142.517z"/><path fill="#c7c7c7" d="M2020.395,1229.302l-22.544,40.56c-13,25.34-77.294-13.285-78.297-40.416l18.49-35.317
								L2020.395,1229.302z"/><g><path fill="#f0c7ad" d="M1948.06,1199.834c-16.522,33.798-31.415,57.453-31.415,57.453
									c28.644,3.761,40.896,19.285,49.038,28.142c0,0,24.761-23.221,43.724-47.726
									C1984.732,1224.449,1969.828,1217.744,1948.06,1199.834z"/></g><path fill="#fff" d="M2020.395,1229.302l-22.544,40.56c1.989-16.446-68.402-62.809-78.297-40.416l18.49-35.317
								C1966.039,1190.424,1993.325,1206.802,2020.395,1229.302z"/><path fill="#754c29" d="M1924.952,1202.572c0,0,108.879-203.258,159.142-239.347
								c61.307-44.018,97.755,28.588,74.758,63.371c-20.954,31.693-142.869,226.687-142.869,226.687
								C2019.017,1228.749,1937.653,1180.148,1924.952,1202.572z"/></g></g><g><path fill="#231f20" d="M1898.877,626.418c56.48,7.118,116.663,7.976,131.497,62.936
							c15.93,59.02,156.895,198.137,176.243,289.753c-71.844,53.402-94.139,123.754-94.139,123.754
							c-39.276,41.662-153.736,56.591-153.736,56.591s-109.582-187.781-135.792-288.83c-19.921-76.805-28.896-304.508-6.246-281.429
							C1832.299,605.083,1880.032,624.043,1898.877,626.418z" opacity=".2"/><path fill="#40590a" d="M1892.178,619.519c56.48,7.118,127.006,9.419,141.841,64.38
							c15.93,59.02,161.536,199.839,180.883,291.454c-15.888,52.202-79.885,97.602-97.678,116.477
							c-39.275,41.662-165.181,60.723-165.181,60.723s-109.582-187.781-135.791-288.83c-19.921-76.805-16.391-292.462-6.246-281.429
							C1825.075,598.682,1873.333,617.144,1892.178,619.519z"/><g><defs><path id="a" d="M1892.178,619.519c56.48,7.118,127.006,9.419,141.841,64.38
									c15.93,59.02,161.536,199.839,180.883,291.454c-19.19,55.505-79.885,97.602-97.678,116.477
									c-39.275,41.662-165.181,60.723-165.181,60.723s-109.582-187.781-135.791-288.83
									c-19.921-76.805-28.896-304.508-6.246-281.429C1825.6,598.184,1873.333,617.144,1892.178,619.519z"/></defs><clipPath id="b"><use overflow="visible" xlink:href="#a"/></clipPath><g clip-path="url(#b)"><g><polygon fill="#a97c50" points="1637.849 1008.546 1963.631 440.429 1955.297 435.446 1629.515 1003.563"/><polygon fill="#a97c50" points="1675.221 1030.462 2001.004 462.345 1992.669 457.361 1666.887 1025.478"/><polygon fill="#a97c50" points="1712.594 1052.377 2038.376 484.26 2030.042 479.277 1704.26 1047.394"/><polygon fill="#a97c50" points="1749.966 1074.293 2075.748 506.176 2067.414 501.192 1741.632 1069.31"/><polygon fill="#a97c50" points="1787.339 1096.209 2113.121 528.091 2104.787 523.108 1779.004 1091.225"/><polygon fill="#a97c50" points="1824.711 1118.124 2150.493 550.007 2142.159 545.024 1816.377 1113.141"/><polygon fill="#a97c50" points="1863.197 1138.102 2188.979 569.985 2180.645 565.002 1854.863 1133.119"/><polygon fill="#a97c50" points="1900.57 1160.018 2226.352 591.901 2218.018 586.917 1892.235 1155.035"/><polygon fill="#a97c50" points="1937.942 1181.934 2263.724 613.816 2255.39 608.833 1929.608 1176.95"/><polygon fill="#a97c50" points="1975.314 1203.849 2301.096 635.732 2292.762 630.749 1966.98 1198.866"/><polygon fill="#a97c50" points="2012.687 1225.765 2338.469 657.648 2330.135 652.664 2004.353 1220.781"/><polygon fill="#a97c50" points="2050.059 1247.681 2375.841 679.563 2367.507 674.58 2041.725 1242.697"/></g><g><polygon fill="#eb7a23" points="2384.742 706.914 2388.085 700.869 1924.461 433.62 1921.118 439.664"/><polygon fill="#eb7a23" points="2367.276 737.886 2370.618 731.842 1906.994 464.592 1903.652 470.637"/><polygon fill="#eb7a23" points="2349.81 768.859 2353.152 762.814 1889.528 495.565 1886.185 501.609"/><polygon fill="#eb7a23" points="2332.343 799.831 2335.686 793.787 1872.061 526.537 1868.719 532.582"/><polygon fill="#eb7a23" points="2314.876 830.804 2318.219 824.759 1854.595 557.51 1851.253 563.554"/><polygon fill="#eb7a23" points="2297.41 861.776 2300.753 855.732 1837.129 588.482 1833.786 594.527"/><polygon fill="#eb7a23" points="2279.944 892.749 2283.286 886.704 1819.662 619.455 1816.32 625.499"/><polygon fill="#eb7a23" points="2262.477 923.721 2265.82 917.677 1802.196 650.427 1798.853 656.472"/><polygon fill="#eb7a23" points="2245.011 954.694 2248.353 948.649 1784.729 681.4 1781.387 687.444"/><polygon fill="#eb7a23" points="2225.243 984.343 2228.586 978.299 1764.962 711.049 1761.619 717.094"/><polygon fill="#eb7a23" points="2207.777 1015.316 2211.119 1009.271 1747.495 742.022 1744.153 748.066"/><polygon fill="#eb7a23" points="2190.311 1046.288 2193.653 1040.244 1730.029 772.994 1726.687 779.039"/><polygon fill="#eb7a23" points="2172.844 1077.261 2176.187 1071.216 1712.562 803.967 1709.22 810.011"/><polygon fill="#eb7a23" points="2155.378 1108.233 2158.72 1102.189 1695.096 834.939 1691.754 840.984"/><polygon fill="#eb7a23" points="2137.911 1139.206 2141.254 1133.161 1677.63 865.912 1674.287 871.956"/><polygon fill="#eb7a23" points="2120.445 1170.178 2123.787 1164.134 1660.163 896.885 1656.821 902.929"/><polygon fill="#eb7a23" points="2102.979 1201.151 2106.321 1195.107 1642.697 927.857 1639.354 933.901"/><polygon fill="#eb7a23" points="2085.512 1232.123 2088.854 1226.079 1625.23 958.83 1621.888 964.874"/></g></g></g></g><g><path fill="#231f20" d="M1805.414,574.899c5.961,3.012,42.655,45.766,48.181,49.799
							c23.582,17.21,2.026,101.551,2.026,101.551l-33.083,27.122l22.87,64.084l-21.605,143.583c0,0-35.981-155.489-38.133-194.366
							C1778.742,641.524,1822.218,622.305,1805.414,574.899z" opacity=".2"/><path fill="#754c29" d="M1800.107,559.828c6.009,2.915,31.894,53.536,48.17,64.492
							c24.219,16.301,3.672,101.505,3.672,101.505l-32.639,27.655l23.906,63.704l-19.276,143.915c0,0-38.496-154.885-41.278-193.722
							C1773.706,642.357,1817.676,606.955,1800.107,559.828z"/></g><path fill="#231f20" d="M1540.348,723.016c4.482-49.387,74.443-87.141,120.193-83.367
						c-15.555,22.985-21.637,94.17-6.722,167.879c13.384,66.142,26.575,329.012,37.528,384.211
						c-72.127,14.585-162.392-38.522-162.392-38.522s15.012-58.929,6.112-223.666
						C1528.21,802.646,1533.348,800.152,1540.348,723.016z" opacity=".2"/><g><defs><path id="c" d="M1533.257,713.711c4.482-49.388,74.443-87.141,120.193-83.367
								c-15.555,22.985-21.637,94.17-6.722,167.879c13.384,66.142,26.575,329.012,37.528,384.211
								c-72.127,14.585-177.038-45.251-177.038-45.251s29.657-52.2,20.757-216.937
								C1521.12,793.34,1526.257,790.846,1533.257,713.711z"/></defs><use fill="#40590a" overflow="visible" xlink:href="#c"/><clipPath id="d"><use overflow="visible" xlink:href="#c"/></clipPath><g clip-path="url(#d)"><g><polygon fill="#a97c50" points="1240.994 1050.033 1596.053 499.738 1587.991 494.326 1232.932 1044.62"/><polygon fill="#a97c50" points="1277.168 1073.874 1632.228 523.579 1624.166 518.167 1269.106 1068.461"/><polygon fill="#a97c50" points="1313.343 1097.714 1668.402 547.42 1660.34 542.007 1305.281 1092.302"/><polygon fill="#a97c50" points="1349.518 1121.555 1704.577 571.261 1696.515 565.848 1341.455 1116.143"/><polygon fill="#a97c50" points="1385.692 1145.396 1740.752 595.102 1732.689 589.689 1377.63 1139.984"/><polygon fill="#a97c50" points="1421.867 1169.237 1776.926 618.943 1768.864 613.53 1413.805 1163.825"/><polygon fill="#a97c50" points="1459.255 1191.202 1814.315 640.907 1806.252 635.495 1451.193 1185.789"/><polygon fill="#a97c50" points="1495.43 1215.042 1850.489 664.748 1842.427 659.335 1487.367 1209.63"/><polygon fill="#a97c50" points="1531.604 1238.883 1886.664 688.589 1878.602 683.176 1523.542 1233.471"/><polygon fill="#a97c50" points="1567.779 1262.724 1922.838 712.43 1914.776 707.017 1559.716 1257.312"/><polygon fill="#a97c50" points="1603.953 1286.565 1959.013 736.271 1950.951 730.858 1595.891 1281.153"/><polygon fill="#a97c50" points="1640.128 1310.406 1995.187 760.112 1987.125 754.699 1632.066 1304.993"/></g><g><polygon fill="#eb7a23" points="2002.645 787.89 2006.299 782.029 1557.292 490.889 1553.638 496.75"/><polygon fill="#eb7a23" points="1983.582 817.907 1987.236 812.045 1538.23 520.905 1534.575 526.767"/><polygon fill="#eb7a23" points="1964.519 847.923 1968.173 842.062 1519.167 550.922 1515.512 556.783"/><polygon fill="#eb7a23" points="1945.456 877.939 1949.11 872.078 1500.104 580.938 1496.45 586.799"/><polygon fill="#eb7a23" points="1926.393 907.955 1930.047 902.094 1481.041 610.954 1477.387 616.815"/><polygon fill="#eb7a23" points="1907.33 937.972 1910.984 932.11 1461.978 640.97 1458.324 646.831"/><polygon fill="#eb7a23" points="1888.267 967.988 1891.922 962.127 1442.915 670.987 1439.261 676.848"/><polygon fill="#eb7a23" points="1869.204 998.004 1872.859 992.143 1423.852 701.003 1420.198 706.864"/><polygon fill="#eb7a23" points="1850.141 1028.02 1853.796 1022.159 1404.789 731.019 1401.135 736.88"/><polygon fill="#eb7a23" points="1828.85 1056.595 1832.504 1050.734 1383.497 759.594 1379.843 765.455"/><polygon fill="#eb7a23" points="1809.787 1086.611 1813.441 1080.75 1364.434 789.61 1360.78 795.471"/><polygon fill="#eb7a23" points="1790.724 1116.628 1794.378 1110.766 1345.371 819.626 1341.717 825.488"/><polygon fill="#eb7a23" points="1771.661 1146.644 1775.315 1140.783 1326.308 849.643 1322.654 855.504"/><polygon fill="#eb7a23" points="1752.598 1176.66 1756.252 1170.799 1307.245 879.659 1303.591 885.52"/><polygon fill="#eb7a23" points="1733.535 1206.676 1737.189 1200.815 1288.182 909.675 1284.528 915.536"/><polygon fill="#eb7a23" points="1714.472 1236.693 1718.126 1230.831 1269.12 939.691 1265.465 945.553"/><polygon fill="#eb7a23" points="1695.409 1266.709 1699.063 1260.848 1250.057 969.708 1246.402 975.569"/><polygon fill="#eb7a23" points="1676.346 1296.725 1680 1290.864 1230.994 999.724 1227.339 1005.585"/></g></g></g><g><path fill="#231f20" d="M1642.374,610.547c-4.819-0.058-16.292,17.675-22.204,32.593
							c-8.792,22.184-23.707,89.637-23.707,89.637l27.464,24.259l2.389,66.886l65.08,127.746
							c1.512-7.245-16.344-122.046-25.341-158.349c-4.17-16.828-20.045-118.597-20.554-119.496
							C1627.064,641.269,1634.793,622.131,1642.374,610.547z" opacity=".1"/><path fill="#754c29" d="M1651.169,597.731c-4.817-0.138-19.719,16.193-25.876,31.013
							c-9.156,22.036-25.545,101.976-25.545,101.976l27.06,24.709l1.286,66.916l62.966,128.802
							c1.631-7.219-14.33-122.299-22.728-158.745c-3.892-16.895-18.543-118.786-18.582-119.819
							C1648.257,632.694,1643.398,609.189,1651.169,597.731z"/></g><g><path fill="#754c29" d="M1841,447.844c13.876,19.567-18.142,29.209-41.904,31.499l-83.039-4.19l-50.059-70.592
							l132.046,10.438C1823.101,428.449,1834.77,439.246,1841,447.844z"/><g><path fill="#f0c7ad" d="M1798.157,463.277c7.729,43.806-1.174,84.215-22.196,123.709
								c-18.482,34.724-43.903,72.027-71.309,79.142c-61.292,15.912-46.798-14.358-65.436-36.298
								c-23.575-27.751-46.137-67.533-54.248-113.507c-6.025-34.15-8.479-75.961,6.038-102.976
								c20.476-38.107,72.638-63.923,108.047-64.52C1760.072,347.8,1783.633,380.956,1798.157,463.277z"/><path fill="#382f26" d="M1569.626,385.786c-6.429,8.51,3.329,17.148,5.829,29.677
								c2.715,13.607,0.299,28.626,5.388,41.149c4.41-11.728,7.178-36.589,20.032-31.699c9.711,3.695,10.142,5.193,25.339,3.527
								c25.025-6.619,32.47-29.396,67.669-29.173c31.136,0.197,65.967,29.877,51.468,72.504c5.834,9.224,11.468,21.312,23.896,36.22
								c0.26-14.173,5.375-25.317,12.204-25.641c7.481-0.355,14.166,12.396,14.932,28.482c0.519,10.89-3.881,20.443-7.76,25.636
								c6.641,9.874-2.562,21.93-1.256,26.242c17.941-30.511,21.04-61.212,16.024-84.604
								c-12.213-56.956-24.407-107.807-59.671-127.201C1701.869,327.889,1587.528,362.087,1569.626,385.786z"/></g><g><path fill="#40590a" d="M1734.172,401.062c-17.988-43.171-66.787-66.888-83.585-92.974
								c-46.144,6.452-88.339,69.635-91.14,111.455c-2.451,36.598,22.958,55.097,28.189,56.624
								c5.154,1.505,15.317-2.031,21.698-4.245c16.736-5.807,30.646-11.562,39.971-22.461
								C1649.277,449.104,1734.313,401.399,1734.172,401.062z"/><path fill="#754c29" d="M1736.176,402.755c-17.988-43.171-37.761-101.104-83.216-93.531
								c-20.655-5.814-88.659,49.523-85.453,104.366c2.14,36.618,16.903,62.743,22.133,64.271
								c5.154,1.505,15.317-2.031,21.698-4.245c16.736-5.807,30.646-11.562,39.971-22.461
								C1651.281,450.797,1736.317,403.093,1736.176,402.755z"/><path fill="#8b5e3c" d="M1649.646,312.882c63.084-14.73,102.928,24.035,125.792,58.305
								c8.531,12.787,24.573,39.927,21.073,43.918c-3.448,3.934-13.412,6.058-20.532,7.717c-34.345,8.004-57.073,2.412-85.49,4.012
								l-131.834,19.885C1553.043,404.748,1584.822,328.018,1649.646,312.882z"/><path fill="#231f20" d="M1731.095,425.555c-11.993-36.871-44.219-100.256-78.746-113.153
								c64.326-14.692,102.898,16.041,126.28,51.087c8.756,13.125,21.218,48.786,17.626,52.884
								c-3.539,4.038-14.01,6.514-20.583,8.073c-17.236,4.091-30.378,6.243-44.097,2.057
								C1731.406,426.186,1731.209,425.903,1731.095,425.555z" opacity=".2"/><path fill="#40590a" d="M1731.756,425.723c-8.013-46.077-49.47-115.99-80.567-116.243
								c53.236-34.319,104.175-2.787,126.508,26.128c22.422,29.029,24.492,76.371,20.901,80.468
								c-3.54,4.037-14.011,6.514-20.583,8.073c-17.236,4.091-32.138,7.282-45.857,3.096
								C1731.989,426.929,1731.819,426.084,1731.756,425.723z"/><path fill="#9a6944" d="M1504.397,521.314c-8.687-24.539,54.633-75.376,53.777-77.41
								c19.923-30.172,165.55-34.641,173.984-16.658c-12.488,17.773-69.399,58.043-106.845,57.39
								c-25.639-0.447-76.043,12.73-93.384,19.914C1511.934,512.834,1506.681,527.765,1504.397,521.314z"/><g><defs><path id="e" d="M1731.756,425.723c-8.013-46.077-49.47-115.99-80.567-116.243
										c53.236-34.319,104.175-2.787,126.508,26.128c22.422,29.029,24.492,76.371,20.901,80.468
										c-3.54,4.037-14.011,6.514-20.583,8.073c-17.236,4.091-32.138,7.282-45.857,3.096
										C1731.989,426.929,1731.819,426.084,1731.756,425.723z"/></defs><clipPath id="f"><use overflow="visible" xlink:href="#e"/></clipPath><g clip-path="url(#f)"><g><polygon fill="#a97c50" points="1407.916 668.598 1563.198 32.376 1553.808 29.901 1398.526 666.123"/><polygon fill="#a97c50" points="1449.903 679.278 1605.186 43.056 1595.796 40.582 1440.513 676.804"/><polygon fill="#a97c50" points="1491.89 689.959 1647.173 53.737 1637.783 51.263 1482.5 687.485"/><polygon fill="#a97c50" points="1533.877 700.639 1689.16 64.417 1679.77 61.943 1524.488 698.165"/><polygon fill="#a97c50" points="1575.865 711.32 1731.147 75.098 1721.757 72.624 1566.475 708.846"/><polygon fill="#a97c50" points="1617.852 722.001 1773.134 85.778 1763.744 83.304 1608.462 719.526"/><polygon fill="#a97c50" points="1660.371 730.511 1815.653 94.289 1806.263 91.814 1650.981 728.036"/><polygon fill="#a97c50" points="1702.358 741.191 1857.64 104.969 1848.25 102.495 1692.968 738.717"/><polygon fill="#a97c50" points="1744.345 751.872 1899.627 115.65 1890.237 113.176 1734.955 749.398"/><polygon fill="#a97c50" points="1786.332 762.552 1941.615 126.33 1932.224 123.856 1776.942 760.078"/><polygon fill="#a97c50" points="1828.319 773.233 1983.601 137.011 1974.211 134.537 1818.929 770.759"/><polygon fill="#a97c50" points="1870.307 783.914 2025.589 147.692 2016.198 145.217 1860.916 781.439"/></g><g><polygon fill="#eb7a23" points="2041.732 171.497 2043.265 164.762 1523.677 36.707 1522.144 43.442"/><polygon fill="#eb7a23" points="2033.549 206.1 2035.082 199.365 1515.495 71.311 1513.961 78.045"/><polygon fill="#eb7a23" points="2025.366 240.704 2026.9 233.969 1507.312 105.914 1505.778 112.649"/><polygon fill="#eb7a23" points="2017.183 275.307 2018.717 268.573 1499.129 140.518 1497.596 147.253"/><polygon fill="#eb7a23" points="2009.001 309.911 2010.534 303.177 1490.946 175.122 1489.413 181.856"/><polygon fill="#eb7a23" points="2000.818 344.515 2002.351 337.78 1482.764 209.725 1481.23 216.46"/><polygon fill="#eb7a23" points="1992.635 379.119 1994.169 372.384 1474.581 244.329 1473.047 251.064"/><polygon fill="#eb7a23" points="1984.453 413.722 1985.986 406.987 1466.398 278.933 1464.865 285.667"/><polygon fill="#eb7a23" points="1976.27 448.326 1977.803 441.591 1458.216 313.536 1456.682 320.271"/><polygon fill="#eb7a23" points="1965.51 482.297 1967.043 475.563 1447.455 347.508 1445.922 354.243"/><polygon fill="#eb7a23" points="1957.327 516.901 1958.86 510.166 1439.272 382.112 1437.739 388.846"/><polygon fill="#eb7a23" points="1949.144 551.505 1950.677 544.77 1431.09 416.715 1429.556 423.45"/><polygon fill="#eb7a23" points="1940.961 586.108 1942.495 579.374 1422.907 451.319 1421.373 458.053"/><polygon fill="#eb7a23" points="1932.779 620.712 1934.312 613.978 1414.724 485.923 1413.191 492.657"/><polygon fill="#eb7a23" points="1924.596 655.316 1926.129 648.581 1406.541 520.526 1405.008 527.261"/><polygon fill="#eb7a23" points="1916.413 689.919 1917.947 683.185 1398.359 555.13 1396.825 561.865"/><polygon fill="#eb7a23" points="1908.231 724.523 1909.764 717.788 1390.176 589.734 1388.643 596.468"/><polygon fill="#eb7a23" points="1900.048 759.127 1901.581 752.392 1381.993 624.337 1380.46 631.072"/></g></g></g></g><g><g><path fill="#754c29" d="M1650.098,308.365c-9.296-1.793-17.874-4.335-24.636-8.382
									c-3.258-2.18-6.228-4.518-7.974-7.397c-1.971-2.564-2.708-6.025-2.181-6.775c0.162-0.329-0.394,0.127-0.156-0.085
									c0.312-0.139,1.506-0.174,3.037,0.188c3.136,0.575,6.754,2.791,10.333,4.95c7.106,4.632,14.276,10.388,21.834,16.108
									l0.608-0.462c-5.555-7.315-11.505-14.433-18.672-20.318c-3.572-2.913-7.426-5.664-11.956-7.131
									c-2.24-0.736-4.719-1.09-7.156-0.505c-2.466,0.56-4.541,2.653-5.192,5.078c-1.292,4.961,0.979,9.763,3.829,13.393
									c2.921,3.728,6.875,6.478,11.102,8.418c8.564,3.836,18.1,4.452,27.245,3.681L1650.098,308.365z"/></g><g><path fill="#754c29" d="M1653.057,306.046c7.449-7.802,14.883-15.141,22.499-21.165
									c3.937-2.783,7.879-5.425,11.764-6.58c1.87-0.513,3.646-0.896,4.857-0.757c1.292,0.169,1.17,0.54,0.996,0.366
									c0.006-0.191,0.296,0.623-0.195,2.015c-0.349,1.38-1.578,2.971-2.747,4.591c-2.562,3.302-6.379,6.117-10.328,8.918
									c-8.254,5.163-17.63,9.736-27.483,14.126l0.14,0.751c10.374-1.882,20.642-4.802,30.143-9.567
									c4.679-2.492,9.178-5.474,12.858-9.415c1.751-2.028,3.457-4.196,4.389-6.817c0.968-2.532,1.323-5.606-0.068-8.248
									c-1.38-2.673-4.395-4.031-7.141-4.145c-2.799-0.146-5.475,0.549-8.012,1.462c-5.01,2.037-9.349,5.28-13.251,8.865
									c-7.683,7.35-13.836,16.076-19.084,25.218L1653.057,306.046z"/></g><path fill="#603913" d="M1645.918,310.487c0.485,2.15,3.438,3.316,6.596,2.604c3.158-0.712,5.325-3.032,4.84-5.182
								c-0.485-2.15-3.438-3.316-6.596-2.604C1647.601,306.017,1645.434,308.337,1645.918,310.487z"/></g><path fill="#8b5e3c" d="M1798.929,415.489c-2.188,2.891-6.813,4.571-6.813,4.571
							c23.07,9.512,32.122,13.476,50.066,29.7C1842.182,449.761,1831.517,430.574,1798.929,415.489z"/><g><g><path fill="#231f20" d="M1653.619,597.953c-8.344-2.047-17.448-3.049-25.015,0.367
									c-7.508,3.406-12.548,10.273-15.593,17.967c-6.177,15.511-7.999,32.791-11.142,50.011
									c-1.538,8.654-3.258,17.407-5.844,26.221c-2.616,8.779-6.052,17.759-11.903,26.141
									c-5.724,8.361-14.649,15.802-24.998,19.414c-10.321,3.724-20.961,4.047-30.885,3.236
									c-6.852-0.56-11.953-6.569-11.393-13.421c0.56-6.852,6.568-11.953,13.421-11.393c0.468,0.038,0.928,0.102,1.378,0.189
									l0.341,0.07c7.239,1.46,14.35,1.99,20.675,0.568c6.32-1.376,11.951-4.77,16.788-10.142
									c9.739-10.899,15.36-27.486,20.337-43.755c5.114-16.41,8.969-33.851,17.66-49.895c4.232-7.908,11.158-15.387,20.098-18.129
									C1636.51,592.66,1645.591,594.977,1653.619,597.953z"/><path fill="#3c2415" d="M1538.61,742.629L1538.61,742.629c17.428-1.904,30.012-17.576,28.108-35.004l-3.448-31.556
									c-1.415-6.121-64.328-5.942-63.112,6.896l3.448,31.556C1505.51,731.949,1521.182,744.533,1538.61,742.629z"/><path fill="#754c29" d="M1538.61,742.629L1538.61,742.629c17.428-1.904,30.012-17.576,28.108-35.004l-3.448-31.556
									c1.267,14.341-62.142,15.773-63.112,6.896l3.448,31.556C1505.51,731.949,1521.182,744.533,1538.61,742.629z"/></g><g><path fill="#bfbfbf" d="M1497.437,480.082c-2.75,8.796-5.375,17.727-6.057,27.036
									c-0.736,9.199,0.975,19.176,6.941,27.327c2.842,3.988,5.984,7.538,7.848,11.359c1.907,3.81,2.753,8.028,2.559,12.167
									c-0.171,8.463-5.562,15.574-12.248,22.253c-6.594,6.614-14.685,13.82-18.034,24.075c-1.627,5.049-1.618,11.12,1.015,16.314
									c2.689,5.131,7.006,8.977,11.429,11.981c9.171,5.927,18.839,8.778,25.915,14.234c3.623,2.653,6.102,5.995,7.211,10.085
									c1.281,3.968,0.725,8.475-2.514,11.912l0.643,0.657c4.666-2.672,6.659-8.188,6.295-13.142
									c-0.32-4.991-3.013-10.075-6.774-13.775c-7.528-7.663-17.758-11.425-24.724-16.817c-7.473-5.253-11.271-11.77-9.101-19.306
									c1.87-7.724,8.177-14.555,14.681-21.781c3.23-3.649,6.479-7.555,8.888-12.055c2.448-4.479,3.766-9.581,3.686-14.552
									c-0.038-4.987-1.321-9.947-3.833-14.389c-2.518-4.48-6.036-8.012-8.858-11.625c-5.866-6.989-8.135-15.893-8.087-24.839
									c0.007-8.983,1.953-17.993,4.07-26.911L1497.437,480.082z"/><path fill="#bfbfbf" d="M1533.952,582.574c1.456,2.843,1.811,6.061,1.115,9.026c-0.672,2.989-2.548,5.573-4.801,7.91
									c-4.266,4.614-10.769,9.257-11.057,16.983c-0.125,3.837,2.421,7.389,5.287,9.683c2.906,2.416,6.302,3.884,9.186,5.421
									c2.919,1.47,5.624,3.157,7.116,5.431c1.475,2.329,2.111,5.508,0.008,8.038l0.322,0.329c3.468-1.821,4.131-6.241,2.815-9.565
									c-1.343-3.645-4.629-6.011-7.626-7.913c-3.114-1.858-6.159-3.24-8.641-5.007c-2.519-1.739-4.339-3.911-4.542-6.526
									c-0.224-2.621,1.018-5.464,2.783-7.996c1.752-2.542,4.177-4.914,6.294-7.549c2.105-2.625,3.925-5.712,4.309-9.034
									c0.421-3.284-0.335-6.633-2.132-9.43L1533.952,582.574z"/></g></g></g></g><g><g><g><g><g><g><path fill="#58595b" d="M1993.576,1422.692c0.651-3.437,1.278-8.068,1.567-11.554
											c0.229-2.764,0.323-6.476,0.157-9.245c-0.226-3.777-0.68-8.816-1.351-12.54c-0.663-3.681-1.92-8.526-3.086-12.079
											c-1.04-3.17-2.685-7.323-4.173-10.309c-1.827-3.665-4.614-8.377-6.854-11.805c-1.774-2.716-4.535-6.068-6.673-8.509
											c-1.905-2.175-4.667-4.875-6.781-6.848c9.528,8.636,13.47,23.453,9.598,42.517c-7.873,38.765-45.075,80.413-83.092,93.023
											c-19.321,6.409-35.135,4.084-44.982-4.842c1.628,1.362,3.697,3.31,5.426,4.541c3.405,2.422,7.953,5.693,11.664,7.614
											c2.833,1.466,6.637,3.398,9.624,4.516c3.339,1.25,7.912,2.962,13.505,4.143c10.569,2.231,17.954,2.227,24.361,1.892
											c7.043-0.369,15.003-1.911,22.412-4.344c2.99-0.981,6.897-2.542,9.744-3.882c5.553-2.614,9.375-5.111,9.413-5.136
											c3.886-2.551,6.026-3.956,10.334-7.595c4.463-3.771,8.367-8.159,8.531-8.344c7.877-8.883,11.534-16.182,13.72-20.543
											C1988.978,1438.701,1992.146,1430.242,1993.576,1422.692z"/><path fill="#f3bf00" d="M1966.383,1339.805l-299.861-272.143c9.528,8.636,13.47,23.453,9.599,42.517
											c-7.873,38.765-45.075,80.413-83.092,93.023c-19.321,6.409-35.135,4.084-44.982-4.842l299.861,272.143
											c9.847,8.925,25.661,11.25,44.982,4.842c38.017-12.61,75.219-54.258,83.092-93.023
											C1979.853,1363.258,1975.911,1348.441,1966.383,1339.805z"/><path fill="#b3b3b3" d="M1589.024,1204.404c1.318-0.362,2.649-0.753,4.004-1.203
											c18.026-5.979,35.828-18.526,50.448-34.159l298.601,273.477c-14.378,15.01-31.677,27.017-49.188,32.825
											c-2.094,0.695-4.132,1.252-6.139,1.739L1589.024,1204.404z"/><g><ellipse cx="1607.284" cy="1133.011" fill="#ffe173" rx="88.202" ry="51.089" transform="rotate(-47.809 1607.367 1133.053)"/></g></g><path fill="#58595b" d="M1555.116,1000.332l90.69,81.956c6.726,6.096,9.508,16.554,6.775,30.01
										c-5.557,27.361-31.815,56.757-58.648,65.658c-13.638,4.524-24.799,2.882-31.749-3.417l-90.948-82.189L1555.116,1000.332z"/><path fill="#a6a6a6" d="M1516.005,1110.96l22.941-25.166l82.867,75.539c-8.591,7.498-18.19,13.409-27.879,16.623
										c-1.133,0.376-2.246,0.704-3.343,0.995L1516.005,1110.96z"/></g><path fill="#194275" d="M1469.743,1118.331c-127.28,40.495-309.919,0.521-407.894-89.3
									c-48.683-44.632-67.312-93.164-58.13-135.671l23.284-107.793c-9.182,42.507,9.446,91.039,58.13,135.671
									c97.976,89.822,280.614,129.795,407.895,89.3c64.059-20.38,101.905-57.264,111.207-100.329l-23.284,107.794
									C1571.648,1061.066,1533.802,1097.951,1469.743,1118.331z"/><path fill="#1f1f1f" d="M1303.312,1096.913l6.714,34.579c-0.219-0.023-0.437-0.05-0.656-0.073
									c-3.206-0.342-6.413-0.722-9.62-1.127c-0.621-0.078-1.242-0.154-1.863-0.234c-3.313-0.432-6.625-0.899-9.935-1.397
									c-0.672-0.101-1.342-0.207-2.014-0.311c-3.412-0.528-6.822-1.079-10.227-1.677c-0.01-0.002-0.02-0.003-0.03-0.005
									c-3.415-0.6-6.824-1.247-10.229-1.917c-0.39-0.077-0.781-0.153-1.171-0.231l-13.065-37.796
									C1268.391,1091.018,1285.831,1094.428,1303.312,1096.913z"/><path fill="#1f1f1f" d="M1003.719,893.359l23.284-107.793c-3.078,14.248-3.014,29.175,0.242,44.403
									c-29.029,48.66-15.246,110.746,45.793,166.705c35.974,32.98,83.363,59.241,135.234,77.264l1.983,36.725
									c-56.995-18.026-109.407-45.881-148.406-81.633C1013.166,984.398,994.537,935.867,1003.719,893.359z"/><path fill="#53d5e6" d="M1136.255,734.675c127.281-40.495,309.919-0.521,407.924,89.327
									c97.975,89.822,74.181,195.472-53.1,235.967c-127.281,40.495-309.919,0.521-407.894-89.301
									C985.18,880.82,1008.974,775.169,1136.255,734.675L1136.255,734.675z" opacity=".4"/><g><defs><path id="g" d="M1126.108,760.681c127.281-40.495,309.919-0.521,407.924,89.327
											c97.975,89.822,74.181,195.472-53.1,235.967c-127.281,40.495-309.919,0.521-407.894-89.301
											C975.033,906.827,998.828,801.176,1126.108,760.681L1126.108,760.681z"/></defs><use fill="#b669ff" opacity=".3" overflow="visible" xlink:href="#g"/><clipPath id="h"><use opacity=".3" overflow="visible" xlink:href="#g"/></clipPath><g clip-path="url(#h)" opacity=".4"><rect width="246.722" height="719.471" x="962.625" y="614.242" fill="#fff" transform="translate(9.783 -10.799)"/><rect width="51.335" height="719.469" x="1252.293" y="604.508" fill="#fff" transform="translate(9.694 -12.715)"/></g></g><path fill="#315275" d="M1586.722,870.657c-126.016-115.528-360.872-166.957-524.581-114.873
									c-82.38,26.21-131.043,73.635-143.004,129.009l18.999-88.135c11.961-55.373,60.624-102.8,143.004-129.008
									c163.709-52.085,398.565-0.656,524.581,114.873c62.602,57.393,86.564,119.805,74.756,174.472l-18.999,88.135
									C1673.287,990.463,1649.325,928.05,1586.722,870.657z"/><g><defs><path id="i" d="M1527.62,1155.162c-80.214,25.518-180.16,27.361-281.433,5.185
											c-101.251-22.172-190.998-65.544-252.71-122.121c-57.985-53.155-83.596-111.097-72.121-163.149
											c11.568-52.474,59.767-94.682,135.713-118.846c80.214-25.518,180.164-27.36,281.433-5.185
											c101.255,22.172,191.002,65.544,252.715,122.121c57.985,53.155,83.596,111.097,72.121,163.149
											C1651.765,1088.791,1603.57,1130.999,1527.62,1155.162z M1522.844,882.364c-98.005-89.847-280.643-129.821-407.924-89.327
											c-127.28,40.494-151.075,146.144-53.07,235.993c97.975,89.822,280.613,129.795,407.894,89.3
											C1597.024,1077.836,1620.819,972.186,1522.844,882.364z"/></defs><use fill="#cce0ff" overflow="visible" xlink:href="#i"/><clipPath id="j"><use overflow="visible" xlink:href="#i"/></clipPath><rect width="246.722" height="719.471" x="969.124" y="599.507" fill="#9e9e9e" clip-path="url(#j)" transform="rotate(2.144 1094.282 959.669)"/><rect width="45.865" height="550.213" x="1265.669" y="688.402" fill="#878787" clip-path="url(#j)" transform="translate(9.684 -12.817)"/></g></g></g><path fill="#baa523" d="M1576.75,1032.179c17.192-45.653,0.266-100.151-53.906-149.815
							c-98.004-89.847-280.643-129.822-407.924-89.327c-65.068,20.701-103.074,58.434-111.604,102.375
							C913.17,1092.064,612.427,2020.138,485.474,2289.92c-38.22,579.605,1134.874,520.536,1284.164,202.137
							C1722.077,2254.249,1565.132,1250.164,1576.75,1032.179z" opacity=".1"/></g><g><g opacity=".1"><path fill="#231f20" d="M1857.545,1311.244c7.398-3.32,16.246-13.151,19.273-12.996
								c0.631,0.422-3.166,12.022-12.484,23.89c-11.048,14.071-15.36,18.378-15.765,21.548c-6.48,16.661,32.824,29.476,37.563,30.02
								c17.627,2.022,38.925-16.011,47.693-26.378c9.826-11.616,22.064-36.614,27.586-49.539c5.229-12.24,0.36-24.829,1.227-29.938
								c3.819-22.514-23.271-27.519-30.619-18.193c-6.8,8.497-24.612,9.937-33.568,11.246
								c-16.712,2.441-32.509,13.825-34.332,17.956c-3.992,9.048-17.142,20.141-23.148,23.604c-1.581,0.912-2.207,2.946-1.27,4.512
								C1842.591,1311.807,1848.189,1315.443,1857.545,1311.244z"/></g><g><path fill="#f0c7ad" d="M1869.437,1307.997c7.255-3.62,15.693-13.806,18.724-13.775
								c0.648,0.395-2.67,12.142-11.493,24.382c-10.462,14.512-14.594,18.992-14.868,22.177
								c-5.791,16.912,34.005,28.105,38.762,28.454c17.695,1.297,38.235-17.594,46.571-28.311
								c9.342-12.01,24.987-36.584,25.531-50.629c0.651-16.801-0.658-24.823-0.002-29.963c2.892-22.652-35.453-33.126-42.412-23.507
								c-6.446,8.768-11.881,12.514-20.776,14.188c-16.598,3.124-33.145,20.156-34.796,24.358
								c-3.617,9.204-16.302,20.827-22.161,24.534c-1.542,0.976-2.085,3.034-1.084,4.56
								C1854.519,1309.172,1860.261,1312.576,1869.437,1307.997z"/></g></g><g><path fill="#231f20" d="M1623.04,1212.289c-24.407-22.053-47.093-29.44-63.765-2.608
							c-6.025,9.696,6.636,38.738,32.98,55.108c26.345,16.37,48.344,27.868,54.369,18.171c3.766-6.06,9.367-29.583,1.37-45.064
							C1643.196,1228.607,1631.67,1220.087,1623.04,1212.289z" opacity=".1"/><path fill="#f0c7ad" d="M1620.285,1217.356c-24.407-22.053-47.093-29.44-63.765-2.608
							c-6.025,9.696,6.636,38.739,32.98,55.108c26.345,16.37,48.344,27.868,54.369,18.171c3.766-6.06,9.367-29.583,1.37-45.064
							C1640.441,1233.674,1628.915,1225.154,1620.285,1217.356z"/></g></g><g opacity=".2"><g><path fill="#231f20" d="M1042.388,2396.202c16.253-6.418,32.988-6.833,50.327-7.257
							c23.581-0.575,43.986-9.273,62.708-22.804c15.727-11.366,31.351-26.051,48.667-35.001c8.662-4.477,17.57-8.325,27.516-8.917
							c11.357-0.676,19.867,4.354,26.681,13.048c13.434,17.137,10.616,33.71-1.539,48.957
							c-9.361,11.742-21.074,20.932-34.007,28.237c-28.294,15.982-53.795,35.603-78.011,57.131
							c-9.986,8.878-20.073,18.061-31.454,24.863c-23.112,13.814-48.35,18.329-74.87,11.361
							c-18.03-4.737-32.206-15.347-42.71-30.558c-6.978-10.104-6.215-21.385-2.348-32.404c6.617-18.855,20.308-31.469,37.357-40.875
							C1034.507,2399.889,1038.489,2398.121,1042.388,2396.202z"/></g><g><path fill="#231f20" d="M778.722,2520.783c13.727-10.814,22.179-26.306,31.272-41.076
							c12.366-20.087,30.151-33.342,51.267-42.709c17.737-7.869,38.619-12.739,55.068-23.197
							c8.228-5.231,16.037-10.993,21.554-19.289c6.299-9.473,6.237-19.358,2.154-29.622c-8.047-20.233-23.786-26.14-43.078-23.31
							c-14.858,2.179-28.694,7.675-41.516,15.173c-28.051,16.405-57.84,28.566-88.631,38.656
							c-12.698,4.161-25.71,8.255-37.316,14.666c-23.569,13.019-40.173,32.555-47.5,58.978c-4.981,17.964-2.948,35.554,4.909,52.286
							c5.219,11.115,15.351,16.134,26.818,18.338c19.623,3.772,37.414-1.71,54.123-11.708
							C771.57,2525.738,775.102,2523.186,778.722,2520.783z"/></g><g><path fill="#231f20" d="M1148.646,2259.194c13.727-10.814,22.179-26.306,31.272-41.076
							c12.366-20.087,30.151-33.342,51.267-42.71c17.737-7.869,38.619-12.738,55.068-23.197
							c8.228-5.232,16.037-10.993,21.554-19.289c6.3-9.473,6.237-19.358,2.154-29.622c-8.047-20.233-23.786-26.14-43.078-23.311
							c-14.858,2.179-28.694,7.675-41.516,15.174c-28.051,16.405-57.84,28.566-88.631,38.656
							c-12.698,4.161-25.709,8.255-37.316,14.666c-23.569,13.019-40.173,32.555-47.5,58.978
							c-4.981,17.964-2.948,35.554,4.909,52.286c5.219,11.115,15.351,16.134,26.818,18.338c19.623,3.772,37.414-1.71,54.122-11.708
							C1141.494,2264.149,1145.026,2261.597,1148.646,2259.194z"/></g></g></g></g></g></switch></svg>