<svg xmlns="http://www.w3.org/2000/svg" enable-background="new 0 0 3000 3000" viewBox="0 0 3000 3000"><switch><g><g><g><g><g><g><g><g><path fill="#adadad" d="M773.11,779.703l469.495-272.842c-0.003,0.057-0.007,0.113-0.012,0.167L773.098,779.87
										C773.102,779.815,773.106,779.76,773.11,779.703L773.11,779.703z"/><path fill="#a8a8a8" d="M773.098,779.87l469.495-272.842c-0.01,0.119-0.022,0.235-0.036,0.346L773.062,780.217
										C773.076,780.105,773.088,779.99,773.098,779.87L773.098,779.87z"/><path fill="#a3a3a3" d="M773.062,780.217l469.496-272.842c-0.014,0.111-0.03,0.218-0.048,0.321L773.015,780.538
										C773.033,780.435,773.048,780.328,773.062,780.217L773.062,780.217z"/><path fill="#9e9e9e" d="M773.015,780.538l469.495-272.842c-0.018,0.105-0.038,0.205-0.06,0.302L772.954,780.84
										C772.977,780.743,772.997,780.643,773.015,780.538L773.015,780.538z"/><path fill="#999" d="M772.954,780.84l469.495-272.842c-0.023,0.1-0.048,0.196-0.075,0.288L772.88,781.128
										C772.907,781.036,772.932,780.94,772.954,780.84L772.954,780.84z"/><path fill="#949494" d="M772.88,781.128l469.495-272.842c-0.029,0.097-0.059,0.19-0.092,0.279L772.788,781.406
										C772.821,781.318,772.852,781.225,772.88,781.128L772.88,781.128z"/><path fill="#8f8f8f" d="M772.788,781.406l469.495-272.842c-0.036,0.098-0.075,0.19-0.117,0.277L772.671,781.683
										C772.712,781.596,772.751,781.504,772.788,781.406L772.788,781.406z"/><path fill="#8a8a8a" d="M772.671,781.683l469.495-272.842c-0.05,0.105-0.104,0.202-0.161,0.292L772.51,781.975
										C772.567,781.886,772.621,781.788,772.671,781.683L772.671,781.683z"/><path fill="#858585" d="M772.51,781.975l469.496-272.842c-0.175,0.275-0.382,0.477-0.615,0.612L771.896,782.587
										C772.128,782.452,772.335,782.25,772.51,781.975L772.51,781.975z"/></g><g><path fill="#d5ab12" d="M1168.535,486.779c-22.438-16.026-33.984-67.157-41.568-109.939
										c-6.028-34.091-2.04-9.249-9.189-51.138c-12.266-71.906-20.24-113.992-41.911-143.402c-0.508-0.69-1.084-1.213-1.655-1.542
										c-0.779-0.45-1.548-0.54-2.12-0.208L670.279,414.059c0.572-0.332,1.341-0.241,2.12,0.208
										c0.571,0.33,1.147,0.852,1.655,1.542c21.671,29.409,29.645,71.495,41.911,143.402c7.149,41.889,3.16,17.047,9.189,51.138
										c7.584,42.782,19.13,93.913,41.568,109.94c1.358,0.98,2.374,2.767,2.588,4.343l401.814-233.509
										C1170.909,489.546,1169.893,487.759,1168.535,486.779z"/><path fill="#d9d9d9" d="M1126.967,376.84c-6.028-34.091-2.04-9.249-9.189-51.138
										c-5.928-34.752-10.863-62.49-16.817-85.247l-384.6,223.506c4.959,20.926,9.354,45.775,14.496,75.921
										c7.149,41.888,3.16,17.046,9.189,51.138c7.584,42.782,19.13,93.913,41.568,109.939c1.359,0.98,2.374,2.767,2.588,4.343
										l380.923-221.369C1144.919,465.382,1134.155,417.388,1126.967,376.84z"/><g><path fill="#9c7d0f" d="M672.399,414.267c0.571,0.33,1.147,0.852,1.655,1.543
											c21.671,29.409,29.646,71.495,41.911,143.401c7.149,41.889,3.16,17.047,9.189,51.138
											c7.584,42.782,19.13,93.913,41.568,109.94c1.358,0.98,2.374,2.767,2.588,4.343c-0.163,2.59-1.452,3.125-2.933,2.269
											c-26.334-18.775-38.511-70.354-47.003-118.353c-6.053-34.134-2.064-9.291-9.213-51.208
											c-11.93-70.009-19.641-110.909-39.448-137.79c-0.847-1.152-1.305-2.495-1.303-3.59c0.001-0.658,0.168-1.226,0.515-1.612
											C670.505,413.704,671.445,413.716,672.399,414.267z"/></g></g><polygon points="1581.481 1784.939 539.004 2384.971 405.254 2307.427 1478.513 1725.182" opacity=".1"/><g><path fill="#826d4e" d="M521.368,2281.112l-5.561-1499.72c-0.096-33.976,23.788-75.344,53.355-92.414
										l893.085-509.416c14.878-8.59,28.357-9.389,38.09-3.733l-38.042-22.217c-9.733-5.656-23.212-4.858-38.09,3.732
										L500.338,648.973c-29.568,17.07-53.451,58.439-53.355,92.415l0.001,0l5.56,1499.719
										c0.048,16.878,6.005,28.753,15.613,34.337l68.824,40.004C527.373,2309.865,521.416,2297.99,521.368,2281.112z"/><polygon fill="#dcdcdc" points="789.672 563.199 964.367 463.552 908.9 431.56 728.177 527.73"/><g><path fill="#bf9e73" d="M575.072,2311.716c-29.568,17.071-53.608,3.371-53.704-30.604l-5.561-1499.72
											c-0.096-33.975,23.788-75.344,53.355-92.415l893.085-509.415c29.568-17.071,53.608-3.371,53.704,30.604l5.561,1499.72
											c0.096,33.975-23.788,75.344-53.355,92.415L575.072,2311.716z"/></g></g><polygon fill="#e6e6e6" points="551.714 2273.997 1479.314 1748.954 1470.039 250.091 551.418 769.455"/><polygon fill="#d9d9d9" points="920.618 488.507 789.612 563.233 789.612 715.906 920.618 643.583"/><g><g><polygon fill="#d4d4d4" points="1451.702 231.841 558.029 762.132 562.444 2262.938 578.19 2272.792 1456.117 1732.647 1466.85 242.854"/></g><polygon fill="#e6e6e6" points="888.95 584.753 872.471 575.239 789.504 624.77 805.983 634.285"/><polygon fill="#fff" points="1466.746 242.212 573.073 772.503 577.488 2273.309 1471.161 1761.054"/><polygon fill="#bfbfbf" points="935.732 555.469 806.06 634.233 806.06 709.196 935.732 636.873"/></g><g><path fill="#ffcd15" d="M833.353,464.485l401.814-233.509c-14.023,8.15-14.26,47.867-12.681,83.165
										c1.464,32.211-0.048,8.379,2.027,48.176c3.574,68.313,4.775,107.605-12.059,121.068c-0.058,0.047-0.119,0.089-0.183,0.126
										L810.457,717.02c0.063-0.037,0.124-0.079,0.183-0.126c16.834-13.463,15.633-52.755,12.059-121.068
										c-2.075-39.797-0.562-15.965-2.027-48.176C819.093,512.351,819.329,472.634,833.353,464.485z"/><g><path fill="#9c7d0f" d="M839.131,455.789c1.163,0.671,2.255,2.083,2.744,3.666
											c0.096,0.363,0.168,0.711,0.216,1.046c0.142,1.562-0.566,2.633-1.806,2.533c-20.849-1.899-21.418,44.248-19.612,84.616
											c1.464,32.211-0.048,8.379,2.027,48.176c3.574,68.313,4.775,107.605-12.059,121.068c-0.589,0.476-1.437,0.414-2.291-0.078
											c-0.665-0.384-1.333-1.029-1.884-1.885c-1.259-1.928-1.422-4.173-0.375-5.02c15.372-12.324,14.168-50.557,10.686-117.057
											c-2.099-39.839-0.587-16.007-2.027-48.232c-2.035-45.332-0.883-91.394,23.222-89.234
											C838.353,455.426,838.746,455.567,839.131,455.789z"/></g><path fill="#ffe480" d="M1243.688,225.945c-0.489-1.583-1.581-2.994-2.744-3.666
										c-0.385-0.222-0.777-0.363-1.158-0.403c-3.401-0.305-6.345,0.351-8.888,1.829L829.084,457.215
										c2.543-1.478,5.487-2.133,8.888-1.828c0.381,0.039,0.774,0.18,1.158,0.403c1.163,0.671,2.255,2.083,2.744,3.666
										l0.216,1.046c0.1,1.107-0.226,1.967-0.866,2.339l401.814-233.509c0.64-0.372,0.966-1.232,0.865-2.339L1243.688,225.945z"/></g><path fill="#595959" d="M1075.867,182.3c-0.508-0.69-1.084-1.213-1.655-1.542c-0.779-0.45-1.548-0.54-2.12-0.208
									L670.279,414.059c0.572-0.332,1.341-0.241,2.12,0.208c0.571,0.33,1.147,0.852,1.655,1.542
									c7.144,9.695,12.782,20.81,17.593,33.875l401.814-233.509C1088.649,203.111,1083.011,191.995,1075.867,182.3z"/><path fill="#787878" d="M823.312,687.58L1224.9,455.722c1.786-11.953,2.136-27.195,1.682-45.907L824.738,641.821
									C825.226,660.385,824.939,675.545,823.312,687.58z"/></g></g></g></g><g><g><g><path fill="#978e7a" d="M1014.567,1578.808c-80.082,46.235-145.254,48.669-146.311,5.666l39.652-22.893l0.049,17.201
								c20.195,11.447,64.195-1.357,108.167-26.744c41.663-24.054,83.299-59.401,104.653-96.128l-0.049-17.202l39.651-22.893
								C1159.571,1459.897,1094.648,1532.573,1014.567,1578.808z"/></g><g><g><path fill="#978e7a" d="M1235.341,970.96c0.083,0.098,0.168,0.197,0.25,0.294c-0.883,2.159-1.734,4.513-2.544,7.027
									C1233.749,975.621,1234.513,973.172,1235.341,970.96z"/></g><g><path fill="#978e7a" d="M1224.966,1052.616c0.804,13.523,3.693,21.99,10.817,20.859
									c-17.357,108.001-59.65,219.239-115.237,300.716c-30.7,44.998-65.458,80.923-102.301,102.195
									c-40.068,23.134-77.769,26.159-110.54,13.304c-50.66-19.873-89.547-77.703-107.256-157.911
									c7.298-7.438,10.02-19.866,10.584-35l2.291-1.323c-1.278-31.364-2.768-66.195,1.558-94.216
									c15.718-25.077,36.644-53.049,57.766-65.244c2.161-1.248,4.318-2.328,6.478-3.225
									c26.227-10.905,63.494-28.281,102.655-50.891c56.589-32.671,117.15-76.273,154.219-127.138
									c5.822-7.999,11.904-13.541,18.085-17.109c19.267-11.124,39.529-3.109,56.122,9.261
									c10.017,20.237,8.386,75.22,6.999,116.623l7.459-4.307C1224.762,1057.002,1224.862,1054.801,1224.966,1052.616z"/></g><g><path fill="#978e7a" d="M1016.119,817.554c68.111-39.324,137.688-69.962,182.981-51.587
									c49.865,20.268,59.592,84.629,49.918,190.544c-1.134-0.301-2.328-0.161-3.568,0.467c-3.668,2.103-6.939,7.138-9.859,14.277
									c-10.542-12.919-20.894-29.265-30.132-34.352l0.217,3.96c1.725,1.351,3.227,3.399,4.531,6.033
									c-16.593-12.37-36.855-20.385-56.122-9.261c-6.181,3.569-12.263,9.11-18.085,17.109
									c-37.069,50.865-97.63,94.467-154.218,127.138c-39.161,22.61-76.428,39.985-102.655,50.89
									c-2.16,0.897-4.317,1.978-6.478,3.225c-21.122,12.195-42.048,40.167-57.767,65.244c1.858-12.033,4.786-22.812,9.267-31.517
									l0.194-4.197l-30.083,57.926c0.656,0.859,1.273,1.905,1.855,3.118c-1.877-0.946-3.822-0.929-5.762,0.191
									c-1.424,0.917-2.451,1.932-3.434,3.223c-6.878-101.319,0.508-176.827,48.325-253.944
									C878.791,905.839,947.082,857.412,1016.119,817.554z"/></g><g><path fill="#978e7a" d="M1245.057,957.188c0.131-0.076,0.262-0.146,0.392-0.211c1.241-0.628,2.434-0.768,3.568-0.467
									c7.24,1.921,12.023,21.932,10.586,49.431c-1.574,31.141-4.84,57.481-19.14,65.737c-0.32,0.185-0.643,0.359-0.973,0.525
									c-1.348,0.678-2.58,1.093-3.707,1.272c-7.124,1.131-10.013-7.336-10.817-20.859c1.396-29.494,3.408-56.614,8.082-74.335
									c0.809-2.515,1.661-4.868,2.543-7.027C1238.51,964.115,1241.782,959.08,1245.057,957.188z"/></g><g><path fill="#978e7a" d="M907.704,1489.689c32.771,12.855,70.472,9.829,110.54-13.304
									c36.843-21.271,71.601-57.197,102.301-102.195l0.183,64.519l0.049,17.202c-21.354,36.727-62.991,72.074-104.653,96.127
									c-43.972,25.387-87.973,38.191-108.167,26.744l-0.049-17.202L907.704,1489.689z"/></g><g><path fill="#978e7a" d="M1205.459,936.902c9.238,5.087,19.59,21.433,30.34,32.87
									c-0.155,0.387-0.308,0.784-0.458,1.187c-0.828,2.212-1.591,4.661-2.293,7.321c-4.674,17.721-6.686,44.841-8.082,74.335
									c-0.103,2.186-0.203,4.387-0.301,6.595l-7.459,4.307c1.388-41.402,3.019-96.386-6.999-116.623
									c-1.304-2.634-2.805-4.682-4.531-6.033L1205.459,936.902z"/></g><g><path fill="#978e7a" d="M1165.689,1412.751c136.479-78.796,250.458-23.994,261.961,125.912l6.205,80.376
									l-836.979,483.23l5.678-87.237c10.618-162.677,123.914-348.697,260.443-427.522l5.258-3.035
									c1.057,43.003,66.229,40.569,146.311-5.666c80.081-46.235,145.003-118.911,145.812-162.991L1165.689,1412.751z"/></g><g><path fill="#978e7a" d="M824.342,1165.526l-0.194,4.197c-4.48,8.705-7.409,19.484-9.267,31.517
									c-4.326,28.021-2.837,62.852-1.558,94.216l-2.291,1.323l-5.169,2.984c-1.683-32.065-3.953-61.1-9.748-73.193
									c-0.582-1.214-1.199-2.259-1.855-3.118L824.342,1165.526z"/></g></g><g><path fill="#978e7a" d="M790.353,1226.76c1.94-1.12,3.884-1.137,5.762-0.191c5.795,12.093,8.066,41.128,9.748,73.193
								l5.169-2.984c-0.564,15.134-3.286,27.562-10.584,35c-1.182,1.204-2.482,2.278-3.914,3.212
								c-0.329,0.215-0.652,0.414-0.97,0.597c-14.251,8.228-17.657-14.259-19.453-43.396c-1.577-26.407,3.327-52.388,10.808-62.208
								c0.983-1.291,2.01-2.306,3.074-3.002C790.113,1226.903,790.233,1226.829,790.353,1226.76z"/></g></g><g><g><path fill="#fff" d="M1015.245,1535.538c41.04-23.694,67.93-6.413,68.634,39.757
								c0.128,45.209-27.145,95.068-68.185,118.762c-39.906,23.04-67.372,4.785-67.5-40.424
								C948.062,1607.134,975.911,1558.248,1015.245,1535.538z"/></g><g><path fill="#fff" d="M1024.802,1080.564c100.336-57.929,146.123-20.726,146.329,51.989
								c0.188,66.164-35.609,130.786-64.009,183.929c-28.404,51.828-39.709,92.479-38.453,131.122l0.044,15.719l-101.481,58.59
								l-0.627-22.603c-2.413-42.561,10.575-95.99,44.646-162.907c23.844-46.574,43.717-86.257,43.634-115.735
								c-0.087-30.793-17.809-40.904-55.44-20.483c-25.081,14.481-55.844,42.731-75.181,69.651l-26.497-80.501
								C925.086,1155.186,970.645,1111.833,1024.802,1080.564z"/></g></g></g><g><g><g><polygon fill="#ccc" points="1120.777 596.897 1150.05 973.693 1481.321 802.404 1480.15 389.413"/></g><g><path fill="#ff7d52" d="M1120.777,596.897c2.17,143.228,117.097,264.863,37.883,364.741
								c61.993-13.776,210.089-111.933,322.661-159.234c82.019-85.296,6.249-250.612-1.171-412.991L1120.777,596.897z"/></g></g></g><g><g><g><path fill="#594432" d="M930.252,2603.348c-7.11,6.452-63.858,26.587-80.105-0.571
								c-2.433-4.067-1.602-17.347-1.602-17.347l83.569,3.292L930.252,2603.348z"/><path fill="#594432" d="M854.974,2597.286c16.093,19.628,41.699,6.918,81.506-0.821
								c45.271-8.801,62.763-9.614,92.792-30.244c22.397-15.386,29.316-50.147,12.357-50.03
								c-36.192,0.25-44.302,12.576-99.958,26.146c-36.371,8.868-58.91-2.082-76.945,7.519
								C850.64,2557.355,841.732,2581.134,854.974,2597.286z"/><path fill="#17110d" d="M858.705,2598.169c23.561,12.482,44.532,1.197,81.924-8.122
								c45.22-11.269,55.134-9.184,85.192-29.773c20.705-14.182,36.904-47.976,14.014-48.61
								c-36.179-1.001-43.175,3.612-98.831,17.182c-36.371,8.868-68.232,5.942-82.561,20.507
								C846.536,2561.458,841.891,2589.262,858.705,2598.169z"/></g><g><g><g><polygon fill="#786046" points="484.221 2498.508 460.476 2484.154 442.317 1925.372 480.887 1947.338"/></g><g><polygon fill="#b59069" points="524.022 1921.993 508.628 2483.779 484.221 2498.508 480.887 1947.338"/></g></g><g><path fill="#594432" d="M705.323,2576.436c26.497-2.967,36.696-25.343,62.138-54.288
									c26.521-30.172,37.667-35.553,45.82-61.724c7.465-23.96,5.984-55.061-15.817-48.053
									c-27.875,8.96-29.866,16.661-68.195,59.235c-25.048,27.822-42.971,43.351-46.6,63.458
									C679.653,2551.773,686.414,2578.553,705.323,2576.436z"/><path fill="#594432" d="M760.398,2535.295c1.58,28.232-56.814,65.464-79.805,27.091
									c-3.143-5.127-3.888-27.918-3.888-27.918l83.438-18.156L760.398,2535.295z"/><path fill="#17110d" d="M704.825,2565.485c26.497-2.967,37.461-24.107,63.1-52.877
									c31.005-34.792,31.631-29.188,44.858-63.135c9.112-23.384,5.984-55.061-15.817-48.053
									c-27.875,8.96-29.866,16.661-68.195,59.235c-25.048,27.822-48.042,44.545-51.672,64.652
									C674.083,2542.016,685.916,2567.602,704.825,2565.485z"/></g><path fill="#3d3d3d" d="M522.696,2415.034c94.293,5.823,129.644-110.594,129.644-110.594l25.637,218.501
								c24.082,59.468,86.499,3.932,86.007-38.826c0,0,18.138-392.607-42.619-386.749
								c-81.285,7.837-293.121,214.995-293.121,214.995S484.826,2412.696,522.696,2415.034z"/></g></g><g><g><path fill="#ededed" d="M676.053,1872.43c12.531,14.858,33.507,27.237,49.424,30.582
								c1.913-5.907,5.781-11.64,11.588-16.853c-11.689-7.467-24.411-22.425-33.648-38.049
								C691.545,1855.398,682.419,1863.655,676.053,1872.43z"/></g></g><g><g><g><g opacity=".1"><polygon points="774.538 2707.669 526.884 2850 310.59 2724.853 558.244 2582.521"/></g><g><path fill="#fff" d="M560.134,2329.47l-23.289-13.534c0.387,22.229,0.305,192.789,0.228,289.799l23.289,13.534
										C560.439,2522.259,560.521,2351.699,560.134,2329.47z"/><g><path fill="#b3b3b3" d="M560.134,2329.47l-23.289-13.534c0.042,2.386,0.078,6.989,0.109,13.426l23.289,13.534
											C560.211,2336.459,560.175,2331.856,560.134,2329.47L560.134,2329.47z"/><path fill="#b59069" d="M560.243,2342.896l-23.289-13.534c0.26,53.525,0.188,189.777,0.119,276.373l23.289,13.534
											C560.431,2532.672,560.503,2396.42,560.243,2342.896L560.243,2342.896z"/></g><g><polygon fill="#dcdcdc" points="580.696 2317.598 557.407 2304.064 536.845 2315.936 560.134 2329.47"/></g><g><path fill="#786046" d="M560.134,2329.47c0.387,22.229,0.305,192.789,0.228,289.799l20.605-11.896
											c0.024-26.368,0.057-94.069,0.062-161.898c0.004-43.402-0.021-42.778-0.071-75.449
											c-0.048-31.975-0.074-45.931-0.261-52.427L560.134,2329.47z"/></g></g><g><path fill="#fff" d="M725.956,2426.744l-23.289-13.534c0.387,22.229,0.305,192.789,0.228,289.799l23.289,13.534
										C726.262,2619.533,726.343,2448.974,725.956,2426.744z"/><g><path fill="#b3b3b3" d="M725.956,2426.744l-23.289-13.534c0.042,2.385,0.078,6.986,0.109,13.419l23.289,13.534
											C726.034,2433.73,725.998,2429.13,725.956,2426.744L725.956,2426.744z"/><path fill="#b59069" d="M726.065,2440.164l-23.289-13.534c0.26,53.516,0.188,189.78,0.119,276.38l23.289,13.534
											C726.253,2629.943,726.326,2493.679,726.065,2440.164L726.065,2440.164z"/></g><g><polygon fill="#dcdcdc" points="746.519 2414.873 723.23 2401.339 702.667 2413.211 725.956 2426.744"/></g><g><path fill="#786046" d="M725.956,2426.744c0.387,22.229,0.305,192.789,0.228,289.799l20.605-11.896
											c0.024-26.368,0.057-94.069,0.062-161.882c0.003-43.418-0.021-42.794-0.071-75.465
											c-0.048-31.975-0.074-45.931-0.261-52.427L725.956,2426.744z"/></g></g><g><g><polygon fill="#9e9982" points="800.883 1623.199 682.438 1589.644 569.203 1838.26 687.648 1871.815"/><g><polygon fill="#ded7b6" points="800.883 1623.199 893.44 1705.759 780.205 1954.375 687.648 1871.815"/><polygon fill="#e8e8e8" points="718.981 1834.151 741.51 1854.501 726.305 1888.735 703.777 1868.385"/><polygon fill="#e8e8e8" points="746.663 1886.646 776.089 1913.686 774.422 1917.977 744.997 1890.938"/><polygon fill="#e8e8e8" points="750.342 1878.439 779.767 1905.479 778.101 1909.77 748.676 1882.731"/><polygon fill="#e8e8e8" points="753.485 1871.102 782.911 1898.141 781.245 1902.432 751.819 1875.393"/><polygon fill="#e8e8e8" points="766.974 1837.473 796.4 1864.512 794.734 1868.804 765.308 1841.765"/><polygon fill="#e8e8e8" points="770.653 1829.266 800.079 1856.305 798.413 1860.596 768.987 1833.557"/><polygon fill="#e8e8e8" points="773.796 1821.928 803.222 1848.967 801.556 1853.259 772.13 1826.22"/><polygon fill="#e8e8e8" points="794.205 1782.085 823.631 1809.124 821.965 1813.416 792.539 1786.377"/><polygon fill="#e8e8e8" points="797.884 1773.878 827.31 1800.917 825.643 1805.209 796.218 1778.17"/><polygon fill="#e8e8e8" points="801.027 1766.541 830.453 1793.58 828.786 1797.871 799.361 1770.832"/><polygon fill="#e8e8e8" points="823.24 1721.535 852.666 1748.574 851 1752.865 821.574 1725.826"/><polygon fill="#e8e8e8" points="826.919 1713.327 856.345 1740.367 854.679 1744.658 825.253 1717.619"/><polygon fill="#e8e8e8" points="830.062 1705.99 859.488 1733.029 857.822 1737.321 828.396 1710.282"/><polygon fill="#e8e8e8" points="741.364 1782.915 763.893 1803.265 748.688 1837.499 726.16 1817.149"/><polygon fill="#e8e8e8" points="768.125 1727.546 790.654 1747.896 775.45 1782.13 752.921 1761.78"/><polygon fill="#e8e8e8" points="796.578 1666.453 819.107 1686.803 803.902 1721.037 781.374 1700.687"/></g><path fill="#e8e8e8" d="M777.053,1942.814l-87.886-78.395l-109.348-30.973l106.919-234.756l112.97,32.213
											l84.912,75.741L777.053,1942.814z M585.409,1830.854l106.084,30.263l84.165,75.079L879.74,1707.67l-82.359-73.466
											l-108.418-30.713L585.409,1830.854z"/><polygon fill="#e8e8e8" points="646.148 1795.487 611.48 1785.666 592.848 1825.61 627.517 1835.431"/><polygon fill="#e8e8e8" points="684.001 1841.421 649.332 1831.6 647.04 1836.019 681.709 1845.84"/><polygon fill="#e8e8e8" points="687.863 1832.358 653.195 1822.537 650.902 1826.956 685.571 1836.777"/><polygon fill="#e8e8e8" points="691.373 1823.309 656.704 1813.488 654.412 1817.906 689.081 1827.727"/><polygon fill="#e8e8e8" points="707.23 1787.323 672.561 1777.502 670.269 1781.921 704.938 1791.742"/><polygon fill="#e8e8e8" points="711.092 1778.26 676.423 1768.439 674.131 1772.858 708.799 1782.679"/><polygon fill="#e8e8e8" points="714.602 1769.211 679.933 1759.39 677.641 1763.809 712.309 1773.63"/><polygon fill="#e8e8e8" points="729.425 1730.438 694.757 1720.616 692.464 1725.035 727.133 1734.856"/><polygon fill="#e8e8e8" points="733.287 1721.374 698.619 1711.553 696.327 1715.972 730.995 1725.793"/><polygon fill="#e8e8e8" points="736.797 1712.325 702.129 1702.504 699.836 1706.923 734.505 1716.744"/><polygon fill="#e8e8e8" points="752.598 1668.987 717.93 1659.166 715.638 1663.586 750.306 1673.406"/><polygon fill="#e8e8e8" points="756.461 1659.924 721.792 1650.103 719.5 1654.522 754.168 1664.343"/><polygon fill="#e8e8e8" points="759.97 1650.875 725.302 1641.054 723.01 1645.473 757.678 1655.294"/><polygon fill="#e8e8e8" points="669.603 1742.512 634.934 1732.691 616.302 1772.634 650.971 1782.455"/><polygon fill="#e8e8e8" points="694.504 1684.954 659.835 1675.133 641.204 1715.076 675.872 1724.897"/><polygon fill="#e8e8e8" points="718.691 1628.555 684.023 1618.734 665.391 1658.678 700.06 1668.499"/></g><path fill="#3ca3a1" d="M353.538,2398.559c17.848-10.304,56.722-33.234,97.873-57.494
										c30.871-18.212,15.905-9.976,40.166-24.177c0.895-0.525,1.781-1.04,2.66-1.548c42.408-24.484,67.65-29.445,89.503-17.829
										c0.073,0.039,0.146,0.079,0.217,0.121l206.494,120.001c-0.072-0.042-0.144-0.082-0.217-0.121
										c-21.853-11.615-47.095-6.655-89.503,17.829c-0.88,0.508-1.766,1.024-2.661,1.549
										c-24.261,14.201-9.295,5.965-40.166,24.177c-41.152,24.261-80.025,47.19-97.873,57.495
										c-7.342,4.239-13.272,14.51-13.248,22.946c0.012,4.181,1.489,7.125,3.873,8.51l-206.494-120.001
										c-2.384-1.385-3.861-4.329-3.873-8.51C340.266,2413.069,346.196,2402.798,353.538,2398.559z"/><g><path fill="#2d7878" d="M700.732,2435.34c-0.88,0.508-1.766,1.024-2.66,1.549
											c-24.261,14.201-9.295,5.965-40.166,24.177c-41.152,24.261-80.025,47.19-97.873,57.495
											c-7.342,4.239-13.272,14.51-13.248,22.946c0.024,8.42,5.992,11.822,13.334,7.583
											c17.989-10.386,56.932-33.356,98.155-57.673c30.857-18.188,15.863-9.935,40.082-24.129
											c0.862-0.506,1.72-1.006,2.561-1.492c40.053-23.125,56.916-23.116,70.928-15.684c2.582,1.375,5.905,0.881,9.239-1.044
											c3.474-2.006,6.944-5.563,9.537-10.168c2.458-4.359,3.686-8.856,3.697-12.652c0.012-4.041-1.354-7.29-4.082-8.736
											C768.382,2405.895,743.14,2410.855,700.732,2435.34z"/></g><path fill="#4a4a4a" d="M495.707,2439.834c75.036,20.767,305.301-114.156,305.301-114.156l48.142,245.978
										c18.866,37.984,105.472,6.006,93.576-29.683c0,0-25.875-297.83-60.283-331.064
										c-48.97-47.3-491.127,126.864-491.127,126.864C390.253,2352.652,407.258,2415.355,495.707,2439.834z"/><path fill="#787878" d="M551.368,1914.388c-10.618-18.411-71.922-74.036-98.994-81.712
										c-33.707-9.558-61.705,32.534-64.705,56.235c-6.991,55.224,30.775,132.18,50.33,122.331
										C451.014,2004.689,561.44,1931.852,551.368,1914.388z"/><path fill="#575757" d="M450.398,1836.853c-82.817,17.472-56.941,161.194-68.514,290.752
										c-7.571,84.762-7.003,222.604-1.836,262.462c11.81,28.787,91.015,83.224,138.788,68.116
										c36.815-11.642,125.923-26.382,128.356-94.504c0.517-14.465-31.647-49.029-30.699-94.562
										c0.805-38.682,2.8-82.75,7.744-122.303c12.193-97.545,41.922-133.436,14.691-187.897
										C610.981,1903.028,496.304,1827.169,450.398,1836.853z"/><path fill="#d9b49c" d="M495.261,1834.309c5.679,13.082,32.57,21.393,63.205,27.595
										c12.288,2.488,20.862,7.142,24.621,11.465l4.33-89.345l-89.166-8.707L495.261,1834.309z"/><path fill="#f0c7ad" d="M472.539,1757.404c4.068,26.597,20.854,58.915,37.772,72.383
										c27.389,21.803,91.088,23.527,102.872,8.729c13.014-16.343,27.032-71.619,19.815-110.796
										c-10.902-59.181-53.684-110.864-118.234-93.214C471.811,1646.25,463.442,1697.919,472.539,1757.404z"/><path fill="#8a4d1e" d="M438.065,1680.23c-2.963,4.452-5.38,9.995-4.451,15.449
										c-2.85-9.719,2.047-20.478,7.867-27.223c0.71-11.956,8.511-30.17,23.331-35.561c-7.473,3.754-11.607,12.364-13.789,19.728
										c4.342-5.244,9.5-9.612,15.377-12.914c32.797-18.421,74.463-20.475,107.682-11.196c3.325-0.177,6.833,0.194,10.425,0.931
										c1.473,0.145,2.94,0.297,4.384,0.452l20.585,1.98c-3.666,0.848-7.169,1.437-10.526,1.844
										c1.658,0.596,3.303,1.203,4.919,1.807l19.454,7.014c-4.935-0.112-9.465-0.603-13.712-1.285
										c4.297,2.272,8.546,4.938,12.604,7.522l17.573,10.902c-8.43-1.991-15.471-4.826-21.683-7.791
										c5.836,3.729,11.054,10.08,15.799,16.003l10.527,12.832c-6.492-3.062-11.483-6.643-15.633-10.293
										c1.059,3.103,10.348,17.112,4.305,33.519l-10.194,13.227c1.703-7.307,0.32-14.969-3.569-19.458
										c-0.637,9.247-10.62,13.216-11.297,15.079c-1.786,4.914-5.487,37.642-8.264,46.288c-4.014,2.02-8.11,3.566-12.409,4.821
										c-1.64,0.479-4.777-31.06-11.331-36.984c-4.423-3.998-10.534-5.67-16.943-0.296c-4.823,4.045-4.044,13.431-2.158,23.373
										c3.655,19.267-4.756,49.356-16.046,57.692c-19.903,14.692-34.115,12.876-37.265,25.024
										C445.857,1776.697,430.441,1716.273,438.065,1680.23z"/><path fill="#f0c7ad" d="M741.726,1997.273c4.92-10.489,7.021-13.575,6.88-23.21
										c-0.115-7.873-1.907-15.204-1.471-20.272c0.64-7.446,6.702-19.006,9.654-25.512c2.661-5.866,11.411-19.816,15.186-20.818
										c2.561-0.68,5.806,1.605,6.576,4.141c1.762,5.801-4.513,20.08-4.513,20.08l0.102,7.208
										c1.739-1.065,3.354-2.014,4.636-2.738c9.073-5.125,11.724-13.464,13.232-22.798l13.651-16.443
										c6.079,3.944,12.659,10.756,14.711,13.113c7.627,8.764,11.604,18.613,8.121,34.191
										c-3.535,15.808-9.728,31.802-24.443,42.541c-5.883,4.294-13.196,10.175-16.27,14.756
										C775.534,2019.754,736.271,2008.675,741.726,1997.273z"/><path fill="#fff" d="M729.235,1989.515l-10.866,26.496l61.885,35.383c6.323-29.557,10.054-49.823,10.054-49.823
										C772.245,1972.468,735.997,1967.817,729.235,1989.515z"/><path fill="#6b6b6b" d="M789.98,2016.947c-18.776-28.648-64.8-37.959-68.53-14.407l-56.265,155.595
										c0,0,31.598,105.131,55.748,88.572C763.276,2217.675,789.98,2016.947,789.98,2016.947z"/><path fill="#787878" d="M723.749,2167.805c-9.892-50.699-52.552-162.03-74.597-188.737
										c-21.067-25.522-50.354-19.44-69.257-3.219c-14.964,12.84-27.401,47.724,2.948,108.767
										c9.363,18.833,69.477,165.922,105.082,172.351C745.243,2267.315,728.759,2193.485,723.749,2167.805z"/></g><g><path fill="#3da6a4" d="M526.017,2173.027l-206.494-120.001c-1.477-0.858-3.495-0.657-5.577,0.545l206.494,120.001
										C522.522,2172.37,524.54,2172.169,526.017,2173.027z"/><path fill="#308280" d="M331.656,2308.161l206.494,120.001c-1.268-0.737-2.108-2.226-2.26-4.359
										c-1.984-28.851-2.26-66.539-2.081-117.974c0.137-36.291-6.87-87.641-20.487-115.57c-1.743-3.543,0.057-9.875,4.017-14.153
										c1.01-1.089,2.063-1.936,3.101-2.535l-206.494-120.001c-1.038,0.599-2.091,1.446-3.101,2.535
										c-3.961,4.278-5.76,10.61-4.017,14.153c13.617,27.929,20.624,79.279,20.487,115.57
										c-0.178,51.435,0.098,89.123,2.081,117.973C329.548,2305.935,330.388,2307.424,331.656,2308.161z"/><g><path fill="#256361" d="M520.44,2173.572c-1.038,0.599-2.091,1.447-3.101,2.535
											c-3.961,4.278-5.76,10.61-4.017,14.153c13.617,27.929,20.624,79.279,20.487,115.57
											c-0.178,51.435,0.098,89.123,2.081,117.974c0.323,4.54,3.765,6.163,7.815,3.824c0.197-0.114,0.38-0.219,0.577-0.349
											c4.303-2.856,7.526-9.023,7.202-13.79c-1.954-28.269-2.229-65.553-2.049-116.535
											c0.131-38.198-7.306-92.407-21.802-122.128C526.337,2172.19,523.455,2171.831,520.44,2173.572z"/></g></g><g><path fill="#b59069" d="M447.057,2145.476l23.289,13.534c18.27,10.617,32.085,77.416,31.902,129.677
										c-0.452,123.888,1.754,161.481,22.908,209.131c0.373,22.205,0.291,236.823,0.214,333.833l-23.289-13.534
										c0.077-97.01,0.159-311.627-0.214-333.832c-21.154-47.649-23.359-85.243-22.908-209.131
										C479.142,2222.892,465.328,2156.094,447.057,2145.476z"/><path fill="#d4a87b" d="M445.001,2128.655c2.028-3.801,4.85-6.772,7.688-8.41c2.436-1.407,4.885-1.831,6.853-0.956
										c0.646,0.287,1.285,0.615,1.916,0.981l23.289,13.534c-0.631-0.367-1.27-0.694-1.916-0.981
										c-1.968-0.875-4.416-0.451-6.853,0.956c-2.838,1.638-5.659,4.609-7.687,8.41c-3.624,6.792-3.393,13.767,0.414,15.98
										l-23.289-13.534C441.607,2142.422,441.377,2135.447,445.001,2128.655z"/><g><path fill="#786046" d="M475.977,2133.779c-2.838,1.638-5.659,4.609-7.688,8.41
											c-3.769,7.065-3.369,14.328,0.891,16.223c18.845,8.384,33.254,76.908,33.067,130.274
											c-0.452,123.888,1.754,161.481,22.908,209.131c0.373,22.205,0.291,236.822,0.214,333.832l20.605-11.896
											c0.024-26.368,0.057-94.068,0.062-161.882c0.004-43.418-0.021-86.852-0.071-119.522
											c-0.09-56.783-0.09-56.783-1.069-58.938c-20.514-45.558-22.497-79.023-22.044-202.442
											c0.188-52.897-13.618-132.422-40.023-144.146C480.862,2131.948,478.413,2132.372,475.977,2133.779z"/></g></g><g><path fill="#b59069" d="M279.443,2048.347l23.289,13.534c18.271,10.617,32.085,77.416,31.902,129.677
										c-0.452,123.888,1.754,161.481,22.908,209.131c0.373,22.205,0.291,236.822,0.214,333.832l-23.289-13.534
										c0.077-97.01,0.159-311.627-0.214-333.832c-21.154-47.65-23.36-85.243-22.908-209.131
										C311.528,2125.763,297.714,2058.965,279.443,2048.347z"/><path fill="#d4a87b" d="M277.387,2031.526c2.028-3.801,4.85-6.772,7.688-8.41c2.436-1.407,4.885-1.831,6.853-0.956
										c0.646,0.287,1.285,0.615,1.916,0.981l23.289,13.534c-0.631-0.367-1.27-0.694-1.916-0.981
										c-1.968-0.876-4.416-0.451-6.853,0.956c-2.838,1.638-5.659,4.609-7.687,8.41c-3.624,6.792-3.393,13.767,0.414,15.98
										l-23.289-13.534C273.993,2045.293,273.763,2038.318,277.387,2031.526z"/><g><path fill="#786046" d="M308.363,2036.65c-2.838,1.638-5.659,4.609-7.688,8.41
											c-3.769,7.065-3.369,14.329,0.891,16.224c18.845,8.383,33.254,76.908,33.067,130.274
											c-0.452,123.887,1.754,161.481,22.908,209.131c0.373,22.205,0.291,236.823,0.214,333.832l20.605-11.896
											c0.024-26.367,0.057-94.068,0.062-161.882c0.004-43.418-0.021-86.852-0.071-119.523
											c-0.09-56.783-0.09-56.783-1.069-58.938c-20.514-45.558-22.497-79.023-22.044-202.442
											c0.188-52.897-13.618-132.422-40.023-144.146C313.248,2034.819,310.8,2035.243,308.363,2036.65z"/></g></g></g></g><path fill="gray" d="M453.529,1773.81c-5.541,23.016-6.168,44.711-0.629,64.748
							c7.761,32.446,123.857,44.063,168.994,93.908c10.412-27.622,16.983-59.543,21.134-94.172
							C563.81,1815.723,465.07,1790.304,453.529,1773.81z"/><path fill="#4a4a4a" d="M592.725,1776.828h-5.59c0-5.569,5.471-15.216,9.023-18.743
							c8.766-8.731,23.306-19.905,23.922-20.377l3.401,4.436c-0.148,0.112-14.867,11.428-23.38,19.898
							C597.055,1765.076,592.725,1773.237,592.725,1776.828z"/><path fill="#4a4a4a" d="M617.2,1740.554c2.594,8.24,8.177,14.003,16.311,11.427c8.134-2.576,9.809-12.128,7.214-20.368
							c-2.594-8.24-8.476-12.049-16.609-9.473C615.981,1724.715,614.605,1732.313,617.2,1740.554z"/><g><ellipse cx="533.66" cy="1690.659" fill="#404040" rx="142.85" ry="77.449" transform="rotate(-27.285 533.711 1690.777)"/><path fill="#6b6b6b" d="M436.391,1712.381c13.602,28.096,57.832,20.7,103.605-1.563
								c45.773-22.263,75.756-50.961,62.153-79.057c-7.553-15.602-27.745-28.579-52.048-33.224
								c-19.462-3.719-31.048,12.284-51.403,22.184c-20.261,9.854-45.911,11.876-55.311,29.534
								C431.55,1672.491,428.81,1696.721,436.391,1712.381z"/><path fill="#bd3512" d="M436.391,1712.381c5.883,7.65,13.91,11.849,22.415,12.712
								c8.514,1.028,17.268-0.273,25.866-2.178c8.573-2.167,17.171-4.672,25.516-8.146c8.39-3.29,16.756-6.794,24.884-10.904
								c16.312-7.984,32.444-16.49,46.262-27.486c6.805-5.54,13.164-11.638,17.429-19.021c4.489-7.268,5.711-16.262,3.386-25.597
								c5.793,7.561,7.456,18.922,4.213,28.779c-3.207,9.853-9.269,18.321-16.136,25.45c-13.876,14.317-30.619,24.635-47.893,32.99
								c-17.428,8.04-35.797,14.952-55.623,16.818c-9.828,0.966-20.146,0.565-29.905-2.759
								C447.06,1729.698,438.739,1721.677,436.391,1712.381z"/></g></g></g><g><g><g><g opacity=".1"><path d="M1699.167,2096.527c112.411,35.363,113.008,92.699,1.323,128.063c-111.68,35.363-293.348,35.363-405.758,0
									c-112.411-35.363-113.003-92.698-1.323-128.061C1405.093,2061.164,1586.756,2061.164,1699.167,2096.527z"/></g><path fill="#862f26" d="M1497.342,1743.805c-37.877,0-60.345-3.992-62.704-4.436l3.07-16.455
								c1.503,0.289,152.467,26.805,352.141-64.158c68.893-31.382,120.293-65.975,152.777-102.807
								c9.896-11.223,18.564-11.083,24.101-8.998c29.407,11.097,32.741,122.071,32.811,169.267l-16.737,0.028
								c-0.123-77.684-10.614-150.918-22.01-153.643c0.004,0.007-1.873,0.176-5.612,4.415
								c-34.05,38.613-87.341,74.6-158.392,106.975C1668.335,1732.504,1561.046,1743.805,1497.342,1743.805z"/><path fill="#4a340a" d="M1634.866,2189.851c-2.325,9.889-15.216,15.317-28.793,12.125
								c-13.577-3.192-22.699-13.796-20.374-23.685c2.325-9.889,15.216-15.317,28.793-12.125
								C1628.069,2169.359,1637.191,2179.963,1634.866,2189.851z"/><path fill="#3d2909" d="M1734.644,2159.184c-2.325,9.888-15.216,15.317-28.793,12.125
								c-13.577-3.192-22.699-13.796-20.374-23.684c2.325-9.889,15.216-15.317,28.793-12.125
								C1727.847,2138.691,1736.969,2149.295,1734.644,2159.184z"/><polygon fill="#4a340a" points="1670.52 2083.427 1695.068 2099.977 1632.98 2194.549 1602.417 2184.44"/><path fill="#4a340a" d="M1694.736,2099.871l-35.109,1.579c5.269-46.766-65.93-119.814-26.71-186.316l80.684,64.49
								C1704.084,2012.222,1688.035,2053.622,1694.736,2099.871z"/><g><g><path fill="#3b2808" d="M1407.455,2021.584c5.39,8.356,28.736,16.321,30.003,7.162
										c8.153-58.946,54.074-102.381,47.272-140.923l-71.638,18.76C1413.092,1906.583,1402.065,2013.229,1407.455,2021.584z"/></g></g><polygon fill="#3d2909" points="1770.298 2052.76 1794.847 2069.31 1732.713 2163.422 1702.195 2153.773"/><path fill="#3d2909" d="M1794.514,2069.204l-35.109,1.579c5.268-46.766-53.561-98.774-14.341-165.277l68.315,43.45
								C1803.862,1981.555,1787.814,2022.955,1794.514,2069.204z"/><path fill="#402c09" d="M1337.51,1572.792c-5.32,17.296-5.445,40.321-5.445,40.321
								c10.37,18.477,26.753,26.245,50.005,21.78c0,0-2.585-30.472-9.528-53.997
								C1361.011,1575.064,1349.339,1572.25,1337.51,1572.792z"/><path fill="#4a340a" d="M1766.988,1991.523c-14.502,6.593-81.108-3.072-106.429-13.392
								c-40.975-16.701-97.467-9.259-151.937-6.693c-87.797,4.136-125.072-19.669-154.986-67.452
								c-23.767-37.963,4.384-152.362,43.785-173.662c6.706-3.625,14.221-10.699,20.595-7.374
								c30.44,15.882,87.056,19.084,163.536,55.917c88.713,42.724,202.548,39.472,235.067,97.232
								C1853.437,1941.494,1807.762,1972.987,1766.988,1991.523z"/><path fill="#593f0c" d="M1581.552,1778.868c-76.48-36.833-133.095-40.035-163.536-55.917
								c-6.374-3.326-13.889,3.748-20.596,7.374c-24.959,13.493-37.638,43.368-37.551,73.106
								c3.818-25.472,17.133-49.046,39.233-59.925c6.84-3.366,14.619-10.149,20.862-6.582
								c29.812,17.033,86.264,22.394,161.282,62.119c87.018,46.079,199.056,33.054,229.347,92.013
								c7.861,15.301,13.257,42.757,13.634,54.459c8.796-17.582,8.91-40.08-7.607-69.417
								C1784.099,1818.339,1670.264,1821.591,1581.552,1778.868z"/><path fill="#402c09" d="M1796.03,1928.461c-3.454-16.191,2.728-29.48,20.008-39.427
								c56.623-11.179,117.35-48.772,159.28-157.213C1953.63,1908.218,1863.986,1944.365,1796.03,1928.461z"/><path fill="#382508" d="M1796.643,1910.43c-1.805,5.528-1.998,11.542-0.613,18.031
								c67.956,15.904,157.6-20.242,179.288-196.639c-0.133,0.345-0.272,0.67-0.406,1.014
								C1946.843,1892.828,1861.846,1925.735,1796.643,1910.43z"/><g><g><path fill="#4a340a" d="M1274.918,1932.985c-6.995,9.234,4.815,34.706,15.346,32.437
										c67.776-14.6,111.285,4.316,150.758-18.512l-47.544-78.214C1393.478,1868.697,1281.913,1923.751,1274.918,1932.985z"/></g></g><g><path fill="#3b2808" d="M1388.666,2102.155c14.593,1.849,25.158,6.168,22.926,16.071
									c-4.664,20.703-12.954,22.25-27.547,20.4c-14.593-1.849-25.389-11.512-24.113-21.583
									C1361.208,2106.972,1374.072,2100.306,1388.666,2102.155z"/><path fill="#3b2808" d="M1406.746,2019.267c3.611-11.382,12.906-18.59,20.76-16.099
									c7.854,2.49,11.294,13.737,7.683,25.119c-3.611,11.382-12.905,18.59-20.76,16.1
									C1406.574,2041.895,1403.135,2030.649,1406.746,2019.267z"/><g><path fill="#3b2808" d="M1437.34,2027.633c-3.083-10.208-21.956-11.083-28.15-8.359
										c-6.193,2.724-28.644,97.778-28.644,97.778l30.014,4.278C1410.561,2121.33,1438.829,2032.563,1437.34,2027.633z"/></g></g><path fill="#4a340a" d="M1436.175,1731.148c5.549,35.229-24.838,81.746-63.228,88.621l-78.893-85.491l96.461-67.447
								L1436.175,1731.148z"/><path fill="#52390a" d="M1386.819,1753.606c-25.619,8.537-160.876,8.941-192.201-18.969
								c-10.846-9.663-18.471-45.949-10.322-53.722c5.246-5.004,33.237-15.912,72.754-20.986
								c22.456-59.898,124.613-60.611,148.486-46.123C1466.575,1650.849,1435.391,1737.421,1386.819,1753.606z"/><path fill="#5e420b" d="M1257.049,1659.929c-39.516,5.074-67.507,15.982-72.754,20.986
								c-8.15,7.773-0.524,44.058,10.322,53.722c13.556,12.078,46.565,18.849,81.734,21.955
								C1316.242,1741.619,1274.711,1665.644,1257.049,1659.929z"/><path fill="#362409" d="M1360.709,1603.48c-6.363,19.022-6.507,45.751-6.507,45.751
								c11.31,20.153,29.179,28.626,54.541,23.755c0,0-2.234-26.334-8.066-50.217L1360.709,1603.48z"/><path fill="#452f0a" d="M1360.709,1603.48c0,0,4.007,62.359,29.369,57.489c9.081-10.009,13.392-22.36,10.599-38.2
								L1360.709,1603.48z"/><path fill="#4a340a" d="M1306.873,1944.142c-10.014-7.353-27.393-4.417-32.182,1.845
								c-4.789,6.262,30.779,102.522,30.779,102.522l35.946-2.921C1341.416,2045.588,1316.887,1951.495,1306.873,1944.142z"/><path fill="#4a340a" d="M1330.381,2025.325c15.382-1.838,28.879,5.277,30.148,15.892
								c1.269,10.616-10.172,20.712-25.554,22.55c-15.382,1.838-28.88-5.277-30.148-15.892
								C1303.559,2037.259,1315,2027.163,1330.381,2025.325z"/><path fill="#d42fa8" d="M1445.504,1734.419c-9.616,35.584-63.822,77.263-99.179,76.422l-17.941-21.67
								c31.336,2.847,95.33-37.915,98.175-72.938L1445.504,1734.419z"/><path fill="#141414" d="M1197.379,1674.219c5.379,3.192,1.83,9.885-2.436,17.072
								c-4.267,7.187-7.635,12.145-13.014,8.953s-6.281-11.606-2.014-18.792C1184.181,1674.265,1192,1671.027,1197.379,1674.219z"/><path fill="#141414" d="M1193.996,1735.074c6.151,5.48,16.073,9.931,28.306,13.503
								c27.562,1.272,63.369,0.32,83.73-8.17c-26.908,4.039-102.464-4.996-112.933-6.284
								C1193.399,1734.434,1193.691,1734.802,1193.996,1735.074z"/><path fill="#c22a25" d="M1289.751,1760.802c-10.479,0.405-21.075-1.029-31.802-4.482c0,0,15.11,24.593,23.494,28.43
								c5.493,2.514,21.383,4.841,24.157-0.525C1308.848,1777.944,1289.751,1760.802,1289.751,1760.802z"/><path fill="#c22a25" d="M1289.751,1760.802c-10.724,0.814-21.328-0.618-31.802-4.482l-3.814-16.685l35.016,1.66
								L1289.751,1760.802z"/></g><g><g><g><path fill="#d6d6d6" d="M2055.163,1525.835c-13.257,4.787-27.25,3.208-36.615,6.829
										c-13.914,11.235,1.29,67.76,17.552,64.038c8.244-1.951,28.135-8.322,54.179-14.144L2055.163,1525.835z"/><path fill="#d6d6d6" d="M2016.667,1598.677c24.587-5.819,177.774-36.738,196.316-54.864
										c22.307-21.804-19.942-57.395-48.487-50.978c-41.041,9.226-125.766,34.193-163.518,48.792
										C1988.688,1551.551,2002.301,1601.965,2016.667,1598.677z"/><g><path fill="#dbb69d" d="M1938.884,1565.32c0.807-13.22,9.219-12.457,13.839-7.511
											c9.797,10.488,28.797-7.215,36.38-0.829c7.183,6.05,28.023-4.269,28.023-4.269c9.698,10.248,12.531,24.098,12.709,39.41
											c0,0-23.269,6.181-32.028,16.055c-7.799,8.792-36.997,7.739-42.642,3.752
											C1944.75,1604.575,1938.567,1570.508,1938.884,1565.32z"/><path fill="#dbb69d" d="M1947.08,1537.719c-1.036-0.517-2.332-0.135-2.832,0.909
											c-1.543,3.222-0.828,8.696,5.227,11.081c5.34,2.103,15.435,5.655,16.557,13.769l23.256-6.374
											c0,0-12.621-5.989-15.073-8.259C1969.609,1544.582,1951.017,1539.682,1947.08,1537.719z"/><path fill="#862f26" d="M1496.357,1743.805c-37.877,0-60.345-3.992-62.704-4.436l3.07-16.455
											c1.5,0.289,152.467,26.805,352.141-64.158c68.893-31.382,120.293-65.975,152.777-102.807
											c9.893-11.223,18.563-11.083,24.101-8.998c29.407,11.097,32.745,122.071,32.815,169.267l-16.736,0.028
											c-0.124-77.691-10.615-150.918-22.014-153.643c0.003,0.007-1.873,0.176-5.612,4.415
											c-34.05,38.613-87.341,74.6-158.392,106.975C1667.349,1732.504,1560.06,1743.805,1496.357,1743.805z"/><g><path fill="#dbb69d" d="M2017.126,1552.711c0,0-20.84,10.319-28.023,4.269c-6.121-5.155-19.678,7.76-29.832,6.498
												v50.032c9.983,2.487,31.925,2.12,38.536-5.333c8.759-9.874,32.028-16.055,32.028-16.055
												C2029.657,1576.809,2026.823,1562.96,2017.126,1552.711z"/></g></g><path fill="#fff" d="M2016.667,1598.677c24.587-5.819,177.774-36.738,196.316-54.864
										c22.307-21.804-19.942-57.395-48.487-50.978c-41.041,9.226-125.766,34.193-163.518,48.792
										C2016.974,1538.449,2030.835,1588.748,2016.667,1598.677z"/><path fill="#6b6b6b" d="M2036.101,1596.702c59.579-8.791,214.198-42.488,222.239-62.108
										c13.392-32.674-22.575-64.974-54.889-57.71c-46.46,10.445-142.165,39.253-184.902,55.779
										C2036.656,1529.066,2052.14,1585.462,2036.101,1596.702z"/></g><g><g><ellipse cx="2347.276" cy="2212.822" opacity=".1" rx="268.938" ry="173.423" transform="rotate(-4.704 2346.833 2212.443)"/><g><path fill="#594432" d="M2493.163,2201.447c-0.895,1.766-1.421,7.578-1.894,10.324
												c21.866,17.618,49.034,31.118,70.29,25.203c18.426-5.127,21.188-20.692,17.855-35.717L2493.163,2201.447z"/><path fill="#594432" d="M2562.723,2233.335c-26.701,7.43-69.01-27.367-89.217-45.632
												c-19.548-17.669-38.459-24.72-49.23-38.625c-9.03-11.658-10.143-25.347-6.881-40.122
												c8.605-38.978,47.384-5.51,96.448,30.04c31.512,22.832,52.244,24.804,62.071,43.633
												C2584.081,2198.274,2586.945,2226.595,2562.723,2233.335z"/><path fill="#211913" d="M2562.865,2224.515c-26.701,7.43-65.092-23.602-86.24-41.471
												c-20.127-17.007-40.416-27.618-51.187-41.522c-9.03-11.658-10.857-22.528-7.595-37.303
												c8.605-38.978,48.957-7.339,98.021,28.21c31.512,22.832,52.244,24.804,62.071,43.633
												C2586.102,2191.707,2587.086,2217.775,2562.865,2224.515z"/></g><path fill="#3d3d3d" d="M2489.16,2158.971c10.211,54.931,85.763,67.686,94.602,27.029
											c1.123-5.164-9.802-467.813-9.802-467.813l-150.036-16.671C2423.923,1701.516,2485.705,2140.385,2489.16,2158.971z"/><path fill="#787878" d="M2722.692,1416.899c-19.792-45.816-111.163-168.556-140.199-194.036
											c-17.648-15.487-45.644-18.186-68.754-7.52c-30.478,14.067-22.6,65.48-0.503,90.749c0,0,68.199,90.119,109.156,128.736
											C2639.387,1450.852,2738.495,1453.48,2722.692,1416.899z"/><path fill="#f7f7f7" d="M2573.736,1556.027c-6.105,18.331-10.152,31.199-10.152,31.199
											c4.34,25.324,47.071,44.006,66.449,33.968c0,0,14.208-28.403,34.099-64.409L2573.736,1556.027z"/><path fill="#c7c7c7" d="M2565.675,1569.287c-5.306,15.972-8.793,27.057-8.793,27.057
											c3.678,16.613,39.821,38.197,61.038,31.202c0,0,15.437-25.93,33.333-58.258L2565.675,1569.287z"/><rect width="42.107" height="54.074" x="2565.918" y="1594.288" fill="#f0c7ad" transform="rotate(28.37 2586.939 1621.467)"/><path fill="#ededed" d="M2567.74,1563.099c-6.456,19.247-10.858,33.245-10.858,33.245
											c13.504-4.911,55.857,3.069,61.038,31.202c0,0,17.444-29.305,36.743-64.447H2567.74z"/><path fill="#787878" d="M2724.547,1424.137c-7.2-16.038-90.551-4.274-102.147,10.593
											c-18.204,23.338-58.816,152.496-58.816,152.496c14.701-5.346,60.809,3.341,66.449,33.968
											C2630.033,1621.194,2734.359,1445.993,2724.547,1424.137z"/><g><path fill="#f0c7ad" d="M2499.932,1159.898c11.486-32.422,19.921-31.701,27.79-75.168
												c13.689-75.619,3.155-89.156-54.765-99.641c-48.875-8.848-85.223-8.073-111.743,45.695
												c-3.152,6.39-0.833,17.621-3.033,26.28c-1.172,4.611-12.378,18.055-13.742,22.94
												c-10.198,36.532-6.006,80.683,8.325,91.348c10.385,7.729,32.907,11.665,38.052,17.93
												C2394.957,1194.325,2497.263,1167.431,2499.932,1159.898z"/><path fill="#e6bea6" d="M2390.815,1189.281c4.063,2.932,6.876,7.093,9.621,16.845
												c2.067,7.342,4.597,21.041,6.49,24.686l77.258-31.513c3.862-6.443,3.725-35.057,4.008-43.045
												c1.215-34.375,9.159-64.029,3.606-107.852c-16.368,32.338-40.715,44.426-41.315,76.992
												C2449.828,1160.939,2404.643,1187.03,2390.815,1189.281z"/></g><g><path fill="#594432" d="M2244.978,2303.208c7.423,6.671,66.511,27.317,83.263-0.994
												c2.509-4.24,1.578-18.04,1.578-18.04l-86.85,3.84L2244.978,2303.208z"/><path fill="#594432" d="M2323.196,2296.531c-16.63,20.483-43.31,7.399-84.726-0.446
												c-47.102-8.922-68.042-6.108-96.606-30.974c-18.395-16.015-30.724-51.98-13.095-51.943
												c37.622,0.079,46.114,12.852,104.033,26.679c37.851,9.036,61.224-2.458,80.02,7.431
												C2327.502,2255.002,2336.88,2279.676,2323.196,2296.531z"/><path fill="#211913" d="M2319.323,2297.467c-24.428,13.092-46.283,1.466-85.198-8.033
												c-47.061-11.488-57.356-9.271-88.703-30.522c-21.593-14.638-38.601-49.686-14.809-50.458
												c37.602-1.222,44.897,3.539,102.816,17.366c37.851,9.036,70.954,5.835,85.922,20.904
												C2331.789,2259.246,2336.755,2288.125,2319.323,2297.467z"/></g><path fill="#4a4a4a" d="M2224.168,2240.245c-1.132,42.444,80.066,66.175,104.295,32.352
											c3.668-5.121,57.483-281.152,57.483-281.152l128.625-255.748l-151.595-59.938c0,0-96.177,233.938-105.118,278.641
											C2249.775,1994.815,2224.4,2231.523,2224.168,2240.245z"/><path fill="#575757" d="M2561.008,1217.491c46.947,30.794,35.719,231.067,31.914,419.457
											c-4.292,212.521-12.528,182.478-13.543,196.607c-8.209,18.113-104.482,73.236-144.15,78.498
											c-87.687,11.632-138.893-26.04-157.133-53.602c32.012-137.265,91.072-190.392,90.547-258.41
											c-0.569-73.523-37.375-176.845-37.375-176.845c-1.549-48.711,1.839-110.564,43.261-136.242
											c11.365-7.046,19.422-21.637,36.25-32.069c25.082-15.549,34.628-25.171,51.569-35.672
											C2496.052,1198.319,2538.596,1202.791,2561.008,1217.491z"/></g></g><g><path fill="#787878" d="M2258.34,1534.594c40.25-30.187,141.332-122.417,151.029-140.581
										c15.998-29.967-1.693-101.091-41.491-87.621c-36.504,12.355-110.245,82.742-148.629,139.626
										C2177.58,1507.769,2225.38,1559.314,2258.34,1534.594z"/></g></g></g><path fill="#8a4d1e" d="M2421.687,1113.415l-13.344-8.801c-1.225-25.096,3.778-61.719-15.185-63.034
							c1.194-9.526-20.664-33.124-26.341-20.828c-1.144,2.477-12.02-47.345-18.99-46.557c1.891-13.626,48.582-2.257,104.009-3.166
							c53.48-0.876,102.9,35.002,91.508,119.734c-3.372,25.079-26.179,42.041-39.183,70.119c-1.12,2.418-2.193,4.878-3.205,7.387
							c0,0-11.088,7.415-20.881,6.987c-11.941-0.52-29.589-17.469-29.27-30.475c0.322-13.153,0.683-38.058-20.318-40.491
							C2425.916,1103.761,2423.261,1108.247,2421.687,1113.415z"/><path fill="gray" d="M2528.457,1142.981c5.542,23.016,6.168,44.711,0.629,64.748
							c-7.761,32.446-123.857,44.063-168.994,93.908c-10.412-27.622-16.983-59.544-21.134-94.173
							C2418.176,1184.894,2516.915,1159.474,2528.457,1142.981z"/></g><g><ellipse cx="2456.013" cy="1039.913" fill="#404040" rx="77.449" ry="142.85" transform="rotate(-50.214 2456.155 1039.958)"/><path fill="#6b6b6b" d="M2546.275,1082.173c-19.361,24.486-60.941,7.692-100.811-23.95
							c-39.869-31.642-62.93-66.149-43.569-90.636c10.751-13.597,33.273-21.897,58.005-21.171
							c19.806,0.581,27.654,18.713,45.384,32.784c17.647,14.005,42.252,21.531,47.607,40.805
							C2559.635,1044.277,2557.066,1068.525,2546.275,1082.173z"/><path fill="#bd3512" d="M2546.275,1082.173c-4.304,8.567-14.165,14.598-24.401,15.75
							c-10.247,1.132-20.407-0.709-29.794-3.779c-18.953-6.113-35.39-16.837-50.665-28.459
							c-15.056-11.896-29.169-25.593-39.618-42.574c-5.161-8.447-9.246-18.026-10.245-28.34
							c-1.032-10.325,3.05-21.057,10.342-27.184c-4.289,8.61-5.043,17.655-2.234,25.723c2.566,8.131,7.454,15.46,12.898,22.343
							c11.111,13.726,25.02,25.522,39.217,36.847c7.045,5.772,14.455,11.003,21.934,16.032c7.395,5.199,15.247,9.505,23.148,13.476
							c7.982,3.721,16.246,6.886,24.781,7.725C2530.13,1090.73,2538.876,1088.368,2546.275,1082.173z"/></g></g></g></g></g></switch></svg>